<svg width="66" height="65" viewBox="0 0 66 65" fill="none" xmlns="http://www.w3.org/2000/svg">
    <rect width="66" height="65" rx="15" fill="white" />
    <g clip-path="url(#clip0_401_9012)">
        <path
            d="M26.7985 34.2237C26.7985 33.8998 27.0611 33.6372 27.385 33.6372H30.694C31.0179 33.6372 31.2805 33.8998 31.2805 34.2237C31.2805 34.5476 31.0179 34.8102 30.694 34.8102H27.385C27.0611 34.8102 26.7985 34.5476 26.7985 34.2237ZM27.385 37.4399H30.694C31.0179 37.4399 31.2805 37.1773 31.2805 36.8534C31.2805 36.5295 31.0179 36.2669 30.694 36.2669H27.385C27.0611 36.2669 26.7985 36.5295 26.7985 36.8534C26.7985 37.1773 27.0611 37.4399 27.385 37.4399ZM29.2735 28.0834C29.2735 26.9545 30.4711 26.0702 32 26.0702C33.5288 26.0702 34.7264 26.9545 34.7264 28.0834C34.7264 29.2122 33.5288 30.0965 32 30.0965C30.4711 30.0965 29.2735 29.2122 29.2735 28.0834ZM30.4464 28.0834C30.4464 28.48 31.1109 28.9236 32 28.9236C32.8891 28.9236 33.5535 28.48 33.5535 28.0834C33.5535 27.6867 32.8891 27.2432 32 27.2432C31.1108 27.2432 30.4464 27.6868 30.4464 28.0834ZM27.385 32.8442H30.694C31.0179 32.8442 31.2805 32.5816 31.2805 32.2577C31.2805 31.9338 31.0179 31.6712 30.694 31.6712H27.385C27.0611 31.6712 26.7985 31.9338 26.7985 32.2577C26.7985 32.5816 27.0611 32.8442 27.385 32.8442ZM36.6151 41.9736H34.6904C34.3665 41.9736 34.1039 42.2362 34.1039 42.5601C34.1039 42.884 34.3665 43.1466 34.6904 43.1466H36.6151C36.9389 43.1466 37.2016 42.884 37.2016 42.5601C37.2016 42.2362 36.9389 41.9736 36.6151 41.9736ZM40.1121 22.5865V45.4135C40.1121 45.7374 39.8495 46 39.5256 46H24.4744C24.1504 46 23.8879 45.7374 23.8879 45.4135V22.5865C23.8879 22.2626 24.1504 22 24.4744 22H26.6245C26.9484 22 27.211 22.2626 27.211 22.5865V23.4267H28.1882V22.5865C28.1882 22.2626 28.4508 22 28.7747 22H30.9249C31.2488 22 31.5114 22.2626 31.5114 22.5865V23.4267H32.4886V22.5865C32.4886 22.2626 32.7512 22 33.0751 22H35.2252C35.5491 22 35.8117 22.2626 35.8117 22.5865V23.4267H36.789V22.5865C36.789 22.2626 37.0516 22 37.3755 22H39.5256C39.8495 22 40.1121 22.2626 40.1121 22.5865ZM38.9391 23.173H37.962V24.0132C37.962 24.3371 37.6994 24.5997 37.3755 24.5997H35.2253C34.9014 24.5997 34.6388 24.3371 34.6388 24.0132V23.173H33.6616V24.0132C33.6616 24.3371 33.399 24.5997 33.0751 24.5997H30.9249C30.601 24.5997 30.3385 24.3371 30.3385 24.0132V23.173H29.3612V24.0132C29.3612 24.3371 29.0986 24.5997 28.7747 24.5997H26.6246C26.3007 24.5997 26.0381 24.3371 26.0381 24.0132V23.173H25.0608V44.827H38.9391V23.173ZM36.6151 33.6372H34.6904C34.3665 33.6372 34.1039 33.8998 34.1039 34.2237C34.1039 34.5476 34.3665 34.8102 34.6904 34.8102H36.6151C36.9389 34.8102 37.2016 34.5476 37.2016 34.2237C37.2016 33.8998 36.9389 33.6372 36.6151 33.6372ZM36.6151 36.2669H34.6904C34.3665 36.2669 34.1039 36.5295 34.1039 36.8534C34.1039 37.1773 34.3665 37.4399 34.6904 37.4399H36.6151C36.9389 37.4399 37.2016 37.1773 37.2016 36.8534C37.2016 36.5295 36.9389 36.2669 36.6151 36.2669ZM36.6151 39.1203H27.385C27.0611 39.1203 26.7985 39.3829 26.7985 39.7068C26.7985 40.0307 27.0611 40.2933 27.385 40.2933H36.6151C36.9389 40.2933 37.2016 40.0307 37.2016 39.7068C37.2016 39.3829 36.9389 39.1203 36.6151 39.1203Z"
            fill="#06C258" />
    </g>
    <defs>
        <clipPath id="clip0_401_9012">
            <rect width="24" height="24" fill="white" transform="translate(20 22)" />
        </clipPath>
    </defs>
</svg>
