<svg width="25" height="24" viewBox="0 0 25 24" fill="none" xmlns="http://www.w3.org/2000/svg">
    <path
        d="M15.35 3.9498V7.7498H13.85V3.9498C13.85 3.6798 13.61 3.5498 13.45 3.5498C13.4 3.5498 13.35 3.5598 13.3 3.5798L5.36997 6.56981C4.83997 6.7698 4.49997 7.2698 4.49997 7.8398V8.5098C3.58997 9.1898 2.99997 10.2798 2.99997 11.5098V7.8398C2.99997 6.6498 3.72997 5.5898 4.83997 5.1698L12.78 2.1698C13 2.0898 13.23 2.0498 13.45 2.0498C14.45 2.0498 15.35 2.8598 15.35 3.9498Z"
        fill="white" />
    <path
        d="M22 14.5V15.5C22 15.77 21.79 15.99 21.51 16H20.05C19.52 16 19.04 15.61 19 15.09C18.97 14.78 19.09 14.49 19.29 14.29C19.47 14.1 19.72 14 19.99 14H21.5C21.79 14.01 22 14.23 22 14.5Z"
        fill="white" />
    <path
        d="M19.98 12.95H21C21.55 12.95 22 12.5 22 11.95V11.51C22 9.44 20.31 7.75 18.24 7.75H6.75997C5.90997 7.75 5.12997 8.03 4.49997 8.51C3.58997 9.19 2.99997 10.28 2.99997 11.51V18.24C2.99997 20.31 4.68997 22 6.75997 22H18.24C20.31 22 22 20.31 22 18.24V18.05C22 17.5 21.55 17.05 21 17.05H20.13C19.17 17.05 18.25 16.46 18 15.53C17.79 14.77 18.04 14.04 18.54 13.55C18.91 13.17 19.42 12.95 19.98 12.95ZM14.5 12.75H7.49997C7.08997 12.75 6.74997 12.41 6.74997 12C6.74997 11.59 7.08997 11.25 7.49997 11.25H14.5C14.91 11.25 15.25 11.59 15.25 12C15.25 12.41 14.91 12.75 14.5 12.75Z"
        fill="white" />
</svg>
