<svg width="66" height="65" viewBox="0 0 66 65" fill="none" xmlns="http://www.w3.org/2000/svg">
    <rect width="66" height="65" rx="15" fill="white" />
    <g clip-path="url(#clip0_401_9016)">
        <path
            d="M34 23C29.3261 23 25.4835 26.5641 25.0423 31.1224C24.9955 31.6054 24.6066 32 24.1213 32V32C23.3385 32 22.9465 32.9465 23.5 33.5L25.8784 35.8784C25.8861 35.8861 25.8925 35.895 25.8973 35.9047V35.9047C25.9282 35.9664 26.0104 35.9798 26.0592 35.931L28.4974 33.4989C29.0513 32.9464 28.66 32 27.8776 32V32C27.3929 32 26.9942 31.6051 27.0541 31.1241C27.4842 27.6685 30.4267 25 34 25C37.87 25 41 28.13 41 32C41 35.87 37.87 39 34 39C32.4307 39 30.9803 38.4777 29.8157 37.5997C29.3735 37.2663 28.7402 37.2598 28.3486 37.6514V37.6514C27.9581 38.0419 27.9535 38.6816 28.3843 39.0271C29.9231 40.261 31.8701 41 34 41C38.97 41 43 36.97 43 32C43 27.03 38.97 23 34 23ZM33.75 28C33.3358 28 33 28.3358 33 28.75V32.4306C33 32.7836 33.1861 33.1104 33.4896 33.2906L36.6751 35.181C37.0093 35.3793 37.441 35.2695 37.6397 34.9355V34.9355C37.8387 34.6012 37.7288 34.1688 37.3943 33.97L34.9891 32.5407C34.6859 32.3605 34.5 32.0338 34.5 31.681V28.75C34.5 28.3358 34.1642 28 33.75 28V28Z"
            fill="#06C258" />
    </g>
    <defs>
        <clipPath id="clip0_401_9016">
            <rect width="24" height="24" fill="white" transform="translate(21 20)" />
        </clipPath>
    </defs>
</svg>
