<svg width="375" height="167" viewBox="0 0 375 167" fill="none" xmlns="http://www.w3.org/2000/svg">
    <g opacity="0.5" clip-path="url(#clip0_101_6933)">
        <path
            d="M32.2979 -1C-10.7328 -1 -10.7992 60.1913 32.2979 60.1913C75.395 60.1913 75.395 -1 32.2979 -1Z"
            fill="#EBEBEB" />
        <path
            d="M58.4635 35.3295C56.1716 45.8588 47.4442 54.9847 32.2896 54.9847C-3.46684 54.9847 -3.41701 4.20654 32.2896 4.20654H32.9955C-0.610305 4.82103 -0.444227 52.9171 33.6515 52.9171C47.5605 52.9254 55.856 44.8789 58.4635 35.3295Z"
            fill="#DBDBDB" />
        <path
            d="M32.5554 10.8995C32.6972 10.895 32.8384 10.9186 32.9711 10.9688C33.1038 11.019 33.2253 11.0948 33.3286 11.192C33.4319 11.2892 33.5151 11.4057 33.5734 11.5351C33.6316 11.6644 33.6638 11.804 33.6681 11.9457V13.6065C36.6607 13.8024 39.5381 14.8354 41.972 16.5876C42.3955 16.8865 42.628 17.144 42.628 17.5675C42.6046 17.8678 42.4647 18.1471 42.2382 18.3457C42.0116 18.5443 41.7165 18.6464 41.4156 18.6304C41.1122 18.6409 40.8159 18.5372 40.5853 18.3397C38.5547 16.7943 36.1393 15.835 33.6017 15.5662V27.5072C40.6766 28.8773 43.6577 31.3021 43.6577 35.4789C43.6577 39.9879 39.5057 43.1849 33.693 43.3593V46.6808C33.6689 46.9604 33.5408 47.2208 33.334 47.4105C33.1272 47.6002 32.8568 47.7055 32.5762 47.7055C32.2955 47.7055 32.0251 47.6002 31.8183 47.4105C31.6115 47.2208 31.4834 46.9604 31.4593 46.6808V43.3095C27.6203 43.0557 23.9578 41.6035 20.9881 39.1575C20.8356 39.0614 20.709 38.9294 20.6192 38.7731C20.5295 38.6168 20.4794 38.4409 20.4733 38.2607C20.5001 37.9707 20.6341 37.7011 20.8491 37.5045C21.064 37.308 21.3445 37.1986 21.6358 37.1978C21.9407 37.1871 22.2381 37.2941 22.4662 37.4968C24.9968 39.7355 28.1835 41.0958 31.5506 41.3747V29.2593C24.5505 27.8477 21.6939 25.506 21.6939 21.2461C21.6939 16.9862 25.7877 13.6646 31.4676 13.5401V11.9457C31.4783 11.6645 31.5977 11.3984 31.8005 11.2032C32.0034 11.0081 32.274 10.8992 32.5554 10.8995ZM31.534 27.0837V15.4583C27.0167 15.5413 24.0605 18.0159 24.0605 21.08C24.0356 23.9781 25.522 25.7634 31.534 27.0837ZM33.5768 29.6828V41.4411C38.2353 41.3498 41.2579 38.8835 41.2579 35.6284C41.2579 32.7054 39.6303 30.9201 33.5768 29.6828Z"
            fill="#DBDBDB" />
        <path
            d="M294.659 81.6484C259.924 81.6484 259.866 131.048 294.659 131.048C329.452 131.048 329.452 81.6484 294.659 81.6484Z"
            fill="#EBEBEB" />
        <path
            d="M315.784 110.978C313.932 119.481 306.882 126.846 294.659 126.846C265.786 126.846 265.828 85.8502 294.659 85.8502H295.224C268.095 86.3485 268.228 125.177 295.755 125.177C306.982 125.186 313.675 118.684 315.784 110.978Z"
            fill="#DBDBDB" />
        <path
            d="M294.891 91.2561C295.121 91.2492 295.344 91.3322 295.513 91.4873C295.682 91.6424 295.784 91.8574 295.796 92.0865V93.4649C298.206 93.6245 300.523 94.459 302.481 95.873C302.822 96.1139 303.013 96.3215 303.013 96.6619C302.985 96.899 302.869 97.1168 302.687 97.271C302.505 97.4253 302.271 97.5044 302.033 97.4923C301.786 97.4987 301.546 97.4128 301.36 97.2515C299.722 96.0008 297.771 95.2251 295.722 95.0094V104.642C301.435 105.738 303.835 107.698 303.835 111.069C303.835 114.715 300.513 117.297 295.796 117.43V120.112C295.775 120.336 295.671 120.544 295.504 120.695C295.338 120.847 295.121 120.931 294.895 120.931C294.67 120.931 294.453 120.847 294.287 120.695C294.12 120.544 294.016 120.336 293.995 120.112V117.405C290.896 117.211 287.936 116.049 285.533 114.083C285.41 114.006 285.309 113.899 285.236 113.773C285.164 113.648 285.123 113.506 285.118 113.361C285.146 113.131 285.258 112.919 285.433 112.766C285.607 112.612 285.832 112.529 286.064 112.531C286.31 112.527 286.549 112.613 286.737 112.771C288.781 114.576 291.352 115.673 294.069 115.902V106.103C288.431 104.966 286.098 103.073 286.098 99.6347C286.098 96.1969 289.419 93.5147 293.995 93.4151V92.0782C293.995 91.964 294.02 91.8512 294.066 91.7469C294.112 91.6425 294.18 91.5488 294.264 91.4717C294.348 91.3945 294.447 91.3356 294.555 91.2985C294.663 91.2614 294.778 91.2469 294.891 91.2561ZM294.061 104.326V94.9347C290.416 95.0011 288.007 96.9941 288.007 99.4769C287.991 101.81 289.195 103.288 294.061 104.326ZM295.722 106.419V115.91C299.475 115.844 301.925 113.851 301.925 111.235C301.9 108.86 300.579 107.44 295.722 106.419Z"
            fill="#DBDBDB" />
        <path
            d="M371.073 136C336.338 136 336.28 185.4 371.073 185.4C405.866 185.4 405.866 136 371.073 136Z"
            fill="#EBEBEB" />
        <path
            d="M392.198 165.329C390.346 173.832 383.296 181.198 371.073 181.198C342.201 181.198 342.242 140.202 371.073 140.202H371.638C344.509 140.7 344.642 179.529 372.169 179.529C383.396 179.537 390.089 173.035 392.198 165.329Z"
            fill="#DBDBDB" />
        <path
            d="M371.306 145.608C371.535 145.601 371.758 145.684 371.927 145.839C372.096 145.994 372.198 146.209 372.211 146.438V147.816C374.621 147.976 376.937 148.811 378.895 150.225C379.236 150.465 379.427 150.673 379.427 151.013C379.4 151.251 379.283 151.468 379.101 151.623C378.919 151.777 378.685 151.856 378.447 151.844C378.201 151.85 377.961 151.764 377.774 151.603C376.136 150.352 374.186 149.577 372.136 149.361V158.993C377.849 160.09 380.249 162.049 380.249 165.421C380.249 169.066 376.927 171.649 372.211 171.781V174.464C372.189 174.688 372.085 174.896 371.918 175.047C371.752 175.198 371.535 175.282 371.31 175.282C371.085 175.282 370.868 175.198 370.701 175.047C370.535 174.896 370.43 174.688 370.409 174.464V171.757C367.31 171.562 364.351 170.401 361.947 168.435C361.825 168.357 361.723 168.251 361.651 168.125C361.578 167.999 361.538 167.858 361.532 167.713C361.56 167.482 361.673 167.27 361.847 167.117C362.022 166.964 362.246 166.88 362.479 166.882C362.724 166.879 362.963 166.964 363.151 167.123C365.195 168.927 367.767 170.025 370.484 170.254V160.455C364.845 159.317 362.512 157.424 362.512 153.986C362.512 150.548 365.833 147.866 370.409 147.767V146.43C370.41 146.316 370.434 146.203 370.48 146.098C370.527 145.994 370.594 145.9 370.678 145.823C370.762 145.746 370.861 145.687 370.969 145.65C371.077 145.613 371.192 145.599 371.306 145.608ZM370.475 158.678V149.286C366.83 149.353 364.422 151.346 364.422 153.828C364.405 156.162 365.609 157.64 370.475 158.678ZM372.136 160.771V170.262C375.889 170.195 378.339 168.202 378.339 165.587C378.314 163.212 376.994 161.792 372.136 160.771Z"
            fill="#DBDBDB" />
        <path
            d="M202.187 129.271C163.441 136.222 173.68 193.618 212.484 186.651C251.288 179.684 240.991 122.313 202.187 129.271Z"
            fill="#DBDBDB" />
        <path
            d="M205.824 128.615C168.905 135.258 179.135 192.638 216.121 186.003C253.106 179.368 242.809 121.98 205.824 128.615Z"
            fill="#EBEBEB" />
        <path
            d="M234.389 158.659C234.19 168.889 228.244 178.795 215.24 181.129C184.516 186.634 176.055 138.995 206.696 133.498C206.895 133.498 207.094 133.423 207.302 133.398C178.562 139.153 186.8 184.235 216.063 178.978C227.995 176.844 233.758 168.059 234.389 158.659Z"
            fill="#DBDBDB" />
        <path
            d="M213.198 139.709C213.45 139.748 213.677 139.883 213.832 140.086C213.987 140.289 214.057 140.543 214.028 140.797L213.846 142.408C216.441 142.917 218.824 144.193 220.688 146.07C220.841 146.185 220.962 146.337 221.042 146.51C221.122 146.684 221.157 146.875 221.145 147.066C221.106 147.338 220.96 147.583 220.741 147.748C220.522 147.913 220.246 147.984 219.974 147.947C219.84 147.937 219.709 147.9 219.591 147.837C219.472 147.774 219.368 147.687 219.285 147.581C217.737 145.938 215.742 144.783 213.547 144.26L212.218 155.545C218.188 157.554 220.522 160.153 220.04 164.106C219.534 168.382 215.589 170.982 210.532 170.55L210.167 173.689C210.152 173.816 210.113 173.939 210.05 174.05C209.988 174.162 209.905 174.26 209.804 174.34C209.704 174.419 209.589 174.478 209.466 174.513C209.343 174.548 209.214 174.559 209.087 174.544C208.96 174.529 208.837 174.49 208.726 174.427C208.614 174.365 208.516 174.281 208.436 174.181C208.357 174.081 208.298 173.966 208.263 173.843C208.228 173.72 208.217 173.591 208.232 173.464L208.606 170.284C205.259 169.633 202.227 167.879 199.995 165.302C199.869 165.191 199.772 165.052 199.713 164.896C199.653 164.739 199.633 164.571 199.654 164.405C199.695 164.143 199.833 163.906 200.041 163.741C200.249 163.577 200.511 163.496 200.775 163.516C201.047 163.542 201.297 163.673 201.473 163.882C203.347 166.219 205.968 167.84 208.896 168.474L210.25 156.989C204.363 154.947 202.12 152.439 202.594 148.403C203.067 144.368 206.987 141.652 211.919 142.109L212.102 140.573C212.133 140.313 212.266 140.076 212.471 139.914C212.677 139.752 212.938 139.679 213.198 139.709ZM210.507 154.922L211.803 143.919C207.883 143.545 205.027 145.58 204.686 148.478C204.379 151.218 205.459 153.062 210.507 154.922ZM211.994 157.596L210.682 168.715C214.726 169.113 217.616 167.054 217.981 164.015C218.305 161.233 217.092 159.381 211.994 157.596Z"
            fill="#DBDBDB" />
        <path
            d="M294.659 61.6693C265.936 70.5462 237.213 31.8252 208.531 40.702C213.027 31.9666 218.075 23.5266 223.644 15.4333C247.028 19.4026 270.403 43.8409 293.787 37.4054C294.069 45.5044 294.36 53.5924 294.659 61.6693Z"
            fill="#EBEBEB" />
        <path
            d="M266.002 46.274C265.089 50.5339 259.093 51.522 252.616 48.0842C246.139 44.6464 242.295 39.1161 244.047 35.3876C245.799 31.6592 251.786 31.0613 257.433 33.9344C263.079 36.8076 266.907 42.0639 266.002 46.274Z"
            fill="#DBDBDB" />
        <path
            d="M236.997 31.5927C236.532 32.4231 234.821 32.5809 233.185 31.983C231.549 31.3851 230.628 30.2143 231.151 29.3839C231.674 28.5535 233.376 28.238 234.962 28.8774C236.548 29.5167 237.47 30.7374 236.997 31.5927Z"
            fill="#DBDBDB" />
        <path
            d="M279.222 49.911C279.131 50.949 277.719 51.5718 276.075 51.14C274.431 50.7082 273.218 49.4792 273.368 48.4745C273.517 47.4697 274.921 47.0462 276.507 47.4282C278.093 47.8102 279.313 48.8648 279.222 49.911Z"
            fill="#DBDBDB" />
        <path
            d="M225.72 15.8485C220.382 23.616 215.499 31.6872 211.097 40.0211C210.267 40.2038 209.353 40.428 208.481 40.702C212.983 31.9681 218.033 23.5283 223.603 15.4333C224.308 15.5579 225.014 15.6991 225.72 15.8485Z"
            fill="#DBDBDB" />
        <path
            d="M294.659 61.6693C293.787 61.935 292.923 62.1592 292.051 62.3502C291.902 54.2014 291.758 46.0553 291.62 37.9119C292.325 37.7708 293.04 37.6047 293.745 37.4054C294.055 45.5044 294.36 53.5924 294.659 61.6693Z"
            fill="#DBDBDB" />
        <path
            d="M294.601 60.1081C294.601 60.6147 294.642 61.1295 294.659 61.636C265.936 70.5129 237.213 31.7836 208.481 40.6688L209.436 38.8502C237.827 31.1359 266.218 68.8521 294.601 60.1081Z"
            fill="#DBDBDB" />
        <path
            d="M293.745 37.4054C293.745 37.9119 293.787 38.4268 293.803 38.9333C270.088 45.51 246.372 20.2496 222.648 16.8201L223.603 15.4333C246.986 19.4192 270.362 43.8409 293.745 37.4054Z"
            fill="#DBDBDB" />
        <path
            d="M217.715 37.8289C215.806 37.8094 213.899 37.9678 212.019 38.3023C212.689 37.0511 213.367 35.8194 214.053 34.607C217.117 34.3081 218.761 36.027 217.715 37.8289Z"
            fill="#DBDBDB" />
        <path
            d="M291.968 57.4094C291.968 58.5471 291.968 59.6764 292.027 60.814C290.147 61.2071 288.234 61.4212 286.313 61.4534C286.363 59.5601 288.896 58.0571 291.968 57.4094Z"
            fill="#DBDBDB" />
        <path
            d="M286.878 39.9963C288.479 39.9409 290.073 39.7577 291.645 39.4482C291.645 40.5776 291.686 41.7069 291.711 42.8445C288.987 43.3843 286.828 41.8398 286.878 39.9963Z"
            fill="#DBDBDB" />
        <path
            d="M222.772 20.2497C223.445 19.2117 224.126 18.1986 224.807 17.1938C226.393 17.5094 227.979 17.9163 229.565 18.3979C228.518 19.9507 225.488 20.6317 222.772 20.2497Z"
            fill="#DBDBDB" />
        <path
            d="M256.959 35.7363C257.233 35.8692 257.416 36.1266 257.366 36.2844C257.316 36.4422 257.258 36.6083 257.2 36.7743C258.506 37.4929 259.689 38.4151 260.704 39.5063C260.87 39.689 260.953 39.8135 260.92 39.9381C260.887 40.0627 260.571 40.1291 260.272 39.9879C260.135 39.9233 260.013 39.8299 259.915 39.7139C259.064 38.7651 258.069 37.9554 256.968 37.3141C256.594 38.46 256.212 39.6059 255.83 40.7436C259.044 42.8445 260.256 44.2312 259.915 45.4685C259.575 46.7058 257.242 46.7556 254.36 45.319L254.036 46.274C253.986 46.4317 253.688 46.4317 253.389 46.274C253.09 46.1162 252.874 45.8505 252.932 45.6927C253.04 45.3688 253.148 45.0533 253.264 44.7294C251.481 43.7514 249.892 42.457 248.572 40.9097C248.439 40.7602 248.381 40.6356 248.423 40.536C248.464 40.4363 248.813 40.3782 249.104 40.536C249.248 40.6049 249.375 40.7041 249.477 40.8266C250.591 42.2001 251.954 43.3498 253.497 44.2146L254.692 40.7519C251.537 38.651 250.432 37.2809 250.914 36.1017C251.396 34.9226 253.613 34.9558 256.195 36.2346C256.253 36.0851 256.303 35.9273 256.353 35.7696C256.403 35.6118 256.694 35.5952 256.959 35.7363ZM254.908 40.1291L256.054 36.8075C253.986 35.7779 252.359 35.7613 252.027 36.6249C251.695 37.4885 252.218 38.3022 254.908 40.1291ZM255.622 41.3747L254.493 44.746C256.785 45.9003 258.479 45.9086 258.753 44.9619C259.027 44.0153 258.354 43.1932 255.622 41.3747Z"
            fill="#EBEBEB" />
        <path
            d="M64.1777 188.236C35.4546 197.113 6.73151 158.392 -21.9501 167.269C-17.4543 158.533 -12.4064 150.093 -6.83701 142C16.5467 145.969 39.9221 170.408 63.3058 163.972C63.5881 172.071 63.8788 180.159 64.1777 188.236Z"
            fill="#EBEBEB" />
        <path
            d="M35.5209 172.841C34.6075 177.101 28.6121 178.089 22.1351 174.651C15.6581 171.213 11.8134 165.683 13.5655 161.954C15.3176 158.226 21.3047 157.628 26.9514 160.501C32.598 163.374 36.4261 168.631 35.5209 172.841Z"
            fill="#DBDBDB" />
        <path
            d="M6.51549 158.159C6.05047 158.99 4.33987 159.148 2.70401 158.55C1.06815 157.952 0.146407 156.781 0.669551 155.951C1.19269 155.12 2.89499 154.805 4.48103 155.444C6.06707 156.083 6.98881 157.304 6.51549 158.159Z"
            fill="#DBDBDB" />
        <path
            d="M64.1776 188.236C63.3057 188.502 62.4421 188.726 61.5702 188.917C61.4208 180.768 61.2768 172.622 61.1384 164.479C61.8443 164.337 62.5584 164.171 63.2642 163.972C63.5742 172.071 63.8787 180.159 64.1776 188.236Z"
            fill="#DBDBDB" />
        <path
            d="M64.1195 186.675C64.1195 187.181 64.161 187.696 64.1776 188.203C35.4545 197.08 6.73141 158.35 -22 167.235L-21.0451 165.417C7.34589 157.703 35.7368 195.419 64.1195 186.675Z"
            fill="#DBDBDB" />
        <path
            d="M63.2641 163.972C63.2641 164.479 63.3057 164.993 63.3223 165.5C39.6064 172.077 15.8905 146.816 -7.83362 143.387L-6.87868 142C16.505 145.986 39.8804 170.408 63.2641 163.972Z"
            fill="#DBDBDB" />
        <path
            d="M56.397 166.563C57.9978 166.508 59.5917 166.324 61.1634 166.015C61.1634 167.144 61.2049 168.274 61.2298 169.411C58.5062 169.951 56.3471 168.406 56.397 166.563Z"
            fill="#DBDBDB" />
        <path
            d="M26.4781 162.303C26.7521 162.436 26.9348 162.693 26.8849 162.851C26.8351 163.009 26.777 163.175 26.7189 163.341C28.0248 164.06 29.2077 164.982 30.2231 166.073C30.3892 166.256 30.4722 166.38 30.439 166.505C30.4058 166.629 30.0902 166.696 29.7913 166.555C29.6539 166.49 29.5322 166.397 29.4342 166.281C28.5828 165.332 27.5881 164.522 26.4863 163.881C26.1127 165.027 25.7307 166.173 25.3487 167.31C28.5623 169.411 29.7747 170.798 29.4342 172.035C29.0938 173.272 26.7604 173.322 23.8789 171.886L23.5551 172.841C23.5053 172.998 23.2063 172.998 22.9074 172.841C22.6084 172.683 22.3925 172.417 22.4507 172.259C22.5586 171.935 22.6666 171.62 22.7828 171.296C21.0001 170.318 19.4103 169.024 18.0911 167.476C17.9583 167.327 17.9002 167.202 17.9417 167.103C17.9832 167.003 18.3319 166.945 18.6226 167.103C18.7665 167.172 18.894 167.271 18.9963 167.393C20.1094 168.767 21.4733 169.916 23.0153 170.781L24.2111 167.319C21.0556 165.218 19.9512 163.848 20.4328 162.668C20.9145 161.489 23.1316 161.522 25.7141 162.801C25.7722 162.652 25.822 162.494 25.8719 162.336C25.9217 162.178 26.2123 162.162 26.4781 162.303ZM24.427 166.696L25.5729 163.374C23.5053 162.345 21.8777 162.328 21.5456 163.192C21.2134 164.055 21.7365 164.869 24.427 166.696ZM25.1411 167.941L24.0118 171.313C26.3037 172.467 27.9977 172.475 28.2717 171.529C28.5457 170.582 27.8731 169.76 25.1411 167.941Z"
            fill="#EBEBEB" />
        <path
            d="M248.963 72.4976C226.135 62.234 203.291 91.0485 180.489 80.8015C182.266 75.3874 184.04 69.7518 185.812 63.8948C204.387 67.6731 222.963 49.5956 241.531 51.7878C244.005 58.2897 246.48 65.1653 248.963 72.4976Z"
            fill="#EBEBEB" />
        <path
            d="M222.922 64.3432C223.453 67.6648 219.708 71.8167 214.551 73.9342C209.395 76.0517 205.342 74.665 205.484 71.1109C205.625 67.5568 209.361 63.4298 213.846 61.578C218.33 59.7263 222.39 61.0134 222.922 64.3432Z"
            fill="#DBDBDB" />
        <path
            d="M199.737 72.4063C199.654 73.2367 198.533 74.1585 197.246 74.3993C195.959 74.6401 194.987 74.092 195.112 73.2782C195.237 72.4645 196.358 71.6673 197.603 71.4265C198.849 71.1857 199.82 71.5842 199.737 72.4063Z"
            fill="#DBDBDB" />
        <path
            d="M233.277 61.1462C233.493 61.9185 232.612 62.6907 231.3 62.9565C229.988 63.2222 228.809 62.89 228.626 62.1261C228.444 61.3621 229.332 60.4653 230.603 60.1913C231.873 59.9172 233.061 60.3739 233.277 61.1462Z"
            fill="#DBDBDB" />
        <path
            d="M187.497 64.1605C185.837 70.1476 184.176 75.9769 182.565 81.5987C181.876 81.3578 181.178 81.0838 180.489 80.7683C182.266 75.3541 184.04 69.7186 185.812 63.8616C186.376 63.9944 186.941 64.0858 187.497 64.1605Z"
            fill="#DBDBDB" />
        <path
            d="M248.963 72.4976C248.265 72.1904 247.576 71.9164 246.887 71.6673C244.537 64.6256 242.187 57.9659 239.845 51.6217C240.401 51.6217 240.966 51.6964 241.506 51.7629C244.005 58.2897 246.48 65.1653 248.963 72.4976Z"
            fill="#DBDBDB" />
        <path
            d="M248.489 71.1192C248.647 71.5759 248.805 72.0409 248.954 72.4976C226.135 62.234 203.283 91.0485 180.489 80.8015C180.605 80.4527 180.713 80.1122 180.821 79.7718C203.383 89.5205 225.969 61.5033 248.489 71.1192Z"
            fill="#DBDBDB" />
        <path
            d="M241.531 51.8044C241.688 52.2113 241.838 52.6348 241.996 53.0417C223.162 50.4675 204.321 69.1097 185.479 65.0075C185.587 64.6422 185.704 64.2768 185.812 63.9114C204.379 67.6565 222.955 49.5872 241.531 51.8044Z"
            fill="#DBDBDB" />
        <path
            d="M187.406 81.607C185.866 81.3912 184.348 81.0354 182.872 80.5441C183.105 79.7137 183.329 78.9664 183.561 78.1692C186.003 78.8999 187.722 80.1953 187.406 81.607Z"
            fill="#DBDBDB" />
        <path
            d="M245.467 67.4489L246.438 70.3469C244.964 69.8662 243.449 69.5216 241.913 69.3172C241.431 67.8392 243.025 66.7513 245.467 67.4489Z"
            fill="#DBDBDB" />
        <path
            d="M236.49 52.8175C237.754 52.7386 239.021 52.7386 240.285 52.8175C240.609 53.706 240.941 54.6028 241.265 55.4996C239.106 55.2671 236.972 54.2208 236.49 52.8175Z"
            fill="#DBDBDB" />
        <path
            d="M186.501 67.7728C186.733 66.9424 186.958 66.112 187.19 65.2816C188.442 65.462 189.704 65.5564 190.968 65.5639C190.661 67.0005 188.66 68.1548 186.501 67.7728Z"
            fill="#DBDBDB" />
        <path
            d="M214.028 63.0561C214.244 62.9648 214.427 63.0063 214.443 63.1475V63.5709C215.417 63.198 216.459 63.0366 217.499 63.0976C217.657 63.0976 217.748 63.1391 217.757 63.2471C217.765 63.355 217.582 63.5876 217.341 63.6789C217.246 63.7253 217.139 63.7426 217.034 63.7287C216.156 63.6616 215.273 63.7805 214.443 64.0775C214.502 65.0656 214.568 66.0621 214.626 67.0503C217.308 66.3112 218.496 66.4607 218.604 67.4904C218.712 68.5201 217.192 69.9815 214.917 70.9946L214.967 71.825C214.967 71.9662 214.784 72.1655 214.543 72.2651C214.302 72.3648 214.095 72.3232 214.086 72.1904L214.037 71.36C212.737 71.884 211.329 72.0862 209.934 71.9496C209.81 71.9496 209.735 71.8914 209.735 71.7918C209.735 71.6921 209.943 71.443 210.175 71.3517C210.276 71.304 210.388 71.284 210.499 71.2936C211.701 71.4586 212.926 71.3098 214.053 70.8617C213.995 69.8487 213.937 68.8356 213.887 67.8225C211.246 68.5367 210.159 68.354 210.15 67.2745C210.142 66.195 211.595 64.7833 213.638 63.9031V63.4962C213.63 63.3301 213.812 63.1391 214.028 63.0561ZM213.879 67.2579L213.721 64.3432C212.06 65.0324 211.022 66.0787 211.047 66.8344C211.072 67.59 211.628 67.8308 213.879 67.2579ZM214.709 67.59C214.776 68.5699 214.834 69.5497 214.9 70.5296C216.71 69.7656 217.831 68.6861 217.748 67.889C217.665 67.0918 216.993 66.9672 214.684 67.5817L214.709 67.59Z"
            fill="#EBEBEB" />
        <path
            d="M65.2394 201.274C49.3541 183.404 20.7555 191.7 4.87024 173.871C9.10521 170.384 13.4731 166.614 17.9405 162.628C32.7962 173.215 54.3281 170.051 68.835 181.336C67.7112 187.791 66.5127 194.437 65.2394 201.274Z"
            fill="#EBEBEB" />
        <path
            d="M19.3107 163.491C14.893 167.643 10.5584 171.629 6.34832 175.366C5.84179 174.868 5.35186 174.353 4.87024 173.813C9.09691 170.326 13.4648 166.556 17.9405 162.57C18.3889 162.907 18.8457 163.215 19.3107 163.491Z"
            fill="#DBDBDB" />
        <path
            d="M68.8349 181.278C68.7602 181.685 68.6938 182.109 68.619 182.507C53.9959 170.882 32.082 174.286 17.135 163.317L17.9654 162.57C32.7961 173.157 54.3281 169.993 68.8349 181.278Z"
            fill="#DBDBDB" />
        <path
            d="M16.6451 165.991L18.4803 164.28C19.5033 164.95 20.5592 165.568 21.6441 166.132C20.6642 167.17 18.3723 167.228 16.6451 165.991Z"
            fill="#DBDBDB" />
    </g>
    <defs>
        <clipPath id="clip0_101_6933">
            <rect width="375" height="168" fill="white" transform="translate(0 -1)" />
        </clipPath>
    </defs>
</svg>
