<svg width="272" height="373" viewBox="0 0 272 373" fill="none" xmlns="http://www.w3.org/2000/svg">
    <g opacity="0.54" clip-path="url(#clip0_474_7327)">
        <path
            d="M249.427 374H20.4687C15.0419 373.994 9.8392 371.835 6.0019 367.998C2.1646 364.16 0.00612564 358.957 0 353.53V21.4699C0.00612564 16.0428 2.1646 10.8398 6.0019 7.00226C9.8392 3.16474 15.0419 1.00613 20.4687 1H249.427C254.854 1.00612 260.057 3.16473 263.894 7.00224C267.732 10.8398 269.89 16.0428 269.896 21.4699V353.53C269.89 358.957 267.732 364.16 263.894 367.998C260.057 371.835 254.854 373.994 249.427 374Z"
            fill="#E6E6E6" />
        <path
            d="M249.83 360.94H20.0655C18.3927 360.938 16.7889 360.272 15.606 359.09C14.4232 357.907 13.7578 356.303 13.7559 354.63V20.3703C13.7578 18.6974 14.4232 17.0935 15.606 15.9106C16.7889 14.7276 18.3927 14.0622 20.0655 14.0603H249.83C251.503 14.0622 253.107 14.7276 254.29 15.9106C255.473 17.0935 256.138 18.6974 256.14 20.3703V354.63C256.138 356.303 255.473 357.907 254.29 359.09C253.107 360.272 251.503 360.938 249.83 360.94Z"
            fill="#E2FEEE" />
        <path
            d="M134.077 8.01032C135.039 8.01032 135.818 7.23068 135.818 6.26895C135.818 5.30722 135.039 4.52759 134.077 4.52759C133.116 4.52759 132.336 5.30722 132.336 6.26895C132.336 7.23068 133.116 8.01032 134.077 8.01032Z"
            fill="#E2FEEE" />
        <path d="M230.448 177.976L135.164 110.989L38.9072 177.352L133.728 217.395L230.448 177.976Z"
            fill="#E2FEEE" />
        <path
            d="M39.2745 177.291H39.3432L78.696 194.096L132.539 217.088C132.749 217.177 132.975 217.223 133.203 217.224C133.431 217.225 133.658 217.181 133.869 217.095L189.419 194.048L229.738 177.318L229.8 177.291H229.869C230.505 177.291 231.115 177.545 231.565 177.994C232.014 178.444 232.267 179.054 232.268 179.69V283.906C232.267 284.542 232.014 285.152 231.565 285.602C231.115 286.052 230.505 286.305 229.869 286.306H39.2745C38.6384 286.305 38.0284 286.052 37.5786 285.602C37.1287 285.152 36.8757 284.542 36.875 283.906V179.69C36.8757 179.054 37.1287 178.444 37.5786 177.994C38.0284 177.545 38.6384 177.291 39.2745 177.291V177.291Z"
            fill="#E2FEEE" />
        <path
            d="M39.1027 177.976C39.1727 177.976 39.241 177.955 39.2984 177.915L134.101 111.888C134.39 111.688 134.733 111.581 135.084 111.581C135.435 111.582 135.777 111.69 136.065 111.891L230.185 177.914C230.26 177.966 230.352 177.986 230.441 177.971C230.53 177.955 230.61 177.904 230.662 177.83C230.714 177.756 230.735 177.664 230.719 177.574C230.704 177.485 230.653 177.405 230.579 177.353L136.459 111.33C136.056 111.048 135.576 110.897 135.085 110.896C134.593 110.895 134.113 111.045 133.71 111.325L38.9066 177.352C38.8467 177.394 38.8017 177.454 38.7781 177.523C38.7546 177.592 38.7536 177.667 38.7755 177.736C38.7974 177.806 38.841 177.867 38.8998 177.91C38.9587 177.953 39.0298 177.976 39.1028 177.976L39.1027 177.976Z"
            fill="#3F3D56" />
        <path
            d="M224.807 180.317L134.99 113.748L44.4932 185.053L130.363 235.961L176.983 225.334L224.807 180.317Z"
            fill="#E6E6E6" />
        <path
            d="M173.048 267.405H217.42C217.969 267.405 218.496 267.187 218.885 266.799C219.274 266.411 219.493 265.884 219.494 265.335C219.494 264.786 219.277 264.258 218.889 263.869C218.502 263.48 217.975 263.26 217.426 263.259H173.048C172.499 263.259 171.972 263.476 171.583 263.865C171.194 264.253 170.975 264.779 170.975 265.329C170.974 265.878 171.191 266.406 171.579 266.795C171.966 267.184 172.493 267.404 173.042 267.405H173.048Z"
            fill="#059B46" />
        <path
            d="M201.5 258.492H217.42C217.969 258.492 218.496 258.274 218.885 257.886C219.274 257.498 219.493 256.971 219.494 256.422C219.495 255.872 219.277 255.345 218.89 254.956C218.502 254.566 217.975 254.347 217.426 254.345H201.5C200.951 254.345 200.424 254.563 200.035 254.951C199.646 255.339 199.428 255.866 199.427 256.416C199.426 256.965 199.643 257.492 200.031 257.882C200.419 258.271 200.945 258.49 201.494 258.492H201.5Z"
            fill="#059B46" />
        <path
            d="M133.728 217.395C134.065 217.395 134.399 217.33 134.711 217.202L190.104 194.217V122.269C190.103 121.633 189.85 121.023 189.4 120.573C188.95 120.123 188.34 119.87 187.704 119.869H81.4377C80.8015 119.87 80.1916 120.123 79.7417 120.573C79.2919 121.023 79.0388 121.633 79.0381 122.269V194.267L79.1422 194.312L132.714 217.191C133.035 217.326 133.38 217.395 133.728 217.395V217.395Z"
            fill="#E2FEEE" />
        <path
            d="M132.647 217.348L78.8672 194.38V122.269C78.868 121.587 79.1391 120.934 79.6211 120.452C80.103 119.97 80.7565 119.699 81.4381 119.698H187.705C188.386 119.699 189.04 119.97 189.522 120.452C190.004 120.934 190.275 121.587 190.276 122.269V194.331L134.777 217.361C134.093 217.638 133.328 217.634 132.648 217.348H132.647ZM189.59 122.269C189.589 121.769 189.391 121.29 189.037 120.936C188.684 120.583 188.204 120.384 187.705 120.383H81.4381C80.9383 120.384 80.4591 120.583 80.1056 120.936C79.7522 121.29 79.5533 121.769 79.5528 122.269V193.927L132.915 216.717C133.426 216.932 134.002 216.935 134.515 216.727L189.59 193.873L189.59 122.269Z"
            fill="#3F3D56" />
        <path
            d="M37.3887 179.69V283.906C37.3894 284.542 37.6424 285.152 38.0923 285.602C38.5421 286.052 39.1521 286.305 39.7882 286.306H230.382C231.018 286.305 231.628 286.052 232.078 285.602C232.528 285.152 232.781 284.542 232.782 283.906V179.69C232.781 179.054 232.528 178.444 232.078 177.994C231.628 177.545 231.018 177.291 230.382 177.291H230.314L230.252 177.318L189.932 194.048L134.383 217.095C134.171 217.181 133.945 217.225 133.717 217.224C133.489 217.223 133.263 217.177 133.052 217.088L79.2097 194.095L39.8569 177.291H39.7882C39.1521 177.291 38.5421 177.545 38.0923 177.994C37.6424 178.444 37.3894 179.054 37.3887 179.69V179.69ZM38.0743 179.69C38.0753 179.248 38.2469 178.823 38.5533 178.504C38.8598 178.184 39.2775 177.995 39.7196 177.976L79.2097 194.839L132.782 217.719C133.377 217.969 134.048 217.973 134.646 217.729L189.932 194.788L230.447 177.976C230.89 177.994 231.309 178.182 231.616 178.502C231.924 178.821 232.096 179.247 232.096 179.69V283.906C232.096 284.36 231.915 284.796 231.594 285.118C231.273 285.439 230.837 285.62 230.382 285.62H39.7882C39.3337 285.62 38.8979 285.439 38.5765 285.118C38.2551 284.796 38.0745 284.36 38.0743 283.906V179.69Z"
            fill="#3F3D56" />
        <path
            d="M90.7404 146.764H128.448C129.175 146.764 129.873 146.475 130.387 145.96C130.901 145.446 131.19 144.748 131.19 144.021C131.19 143.294 130.901 142.596 130.387 142.082C129.873 141.568 129.175 141.279 128.448 141.279H90.7404C90.0131 141.279 89.3156 141.568 88.8013 142.082C88.287 142.596 87.998 143.294 87.998 144.021C87.998 144.748 88.287 145.446 88.8013 145.96C89.3156 146.475 90.0131 146.764 90.7404 146.764V146.764Z"
            fill="#059B46" />
        <path
            d="M90.7638 135.108H108.932C109.659 135.108 110.357 134.819 110.871 134.305C111.385 133.79 111.674 133.093 111.674 132.365C111.674 131.638 111.385 130.94 110.871 130.426C110.357 129.912 109.659 129.623 108.932 129.623H90.7638C90.0365 129.623 89.339 129.912 88.8247 130.426C88.3104 130.94 88.0215 131.638 88.0215 132.365C88.0215 133.093 88.3104 133.79 88.8247 134.305C89.339 134.819 90.0365 135.108 90.7638 135.108V135.108Z"
            fill="#059B46" />
        <path
            d="M106.369 174.189H163.959C164.686 174.189 165.384 173.9 165.898 173.385C166.412 172.871 166.701 172.173 166.701 171.446C166.701 170.719 166.412 170.021 165.898 169.507C165.384 168.993 164.686 168.704 163.959 168.704H106.369C105.642 168.704 104.944 168.993 104.43 169.507C103.916 170.021 103.627 170.719 103.627 171.446C103.627 172.173 103.916 172.871 104.43 173.385C104.944 173.9 105.642 174.189 106.369 174.189V174.189Z"
            fill="#D0D5DD" />
        <path
            d="M106.369 186.873H163.959C164.686 186.873 165.384 186.584 165.898 186.069C166.412 185.555 166.701 184.858 166.701 184.13C166.701 183.403 166.412 182.705 165.898 182.191C165.384 181.677 164.686 181.388 163.959 181.388H106.369C105.642 181.388 104.944 181.677 104.43 182.191C103.916 182.705 103.627 183.403 103.627 184.13C103.627 184.858 103.916 185.555 104.43 186.069C104.944 186.584 105.642 186.873 106.369 186.873V186.873Z"
            fill="#D0D5DD" />
        <path opacity="0.15"
            d="M173.881 140.183C173.924 140.178 178.277 139.635 180.134 136.448C181.386 134.301 181.26 131.409 179.76 127.854L180.921 127.365C182.585 131.309 182.685 134.582 181.218 137.091C179.036 140.824 174.228 141.411 174.024 141.435L173.881 140.183Z"
            fill="black" />
    </g>
    <defs>
        <clipPath id="clip0_474_7327">
            <rect width="272" height="373" fill="white" />
        </clipPath>
    </defs>
</svg>
