<svg width="340" height="340" viewBox="0 0 340 340" fill="none" xmlns="http://www.w3.org/2000/svg">
    <path
        d="M38.8348 297.956C45.5948 297.384 52.3288 299.32 57.7524 303.396C48.8648 306.558 38.8348 297.956 38.8348 297.956Z"
        fill="#E0E0E0" />
    <path
        d="M71.1416 301.172C70.3732 307.965 65.28 312.12 65.28 312.12C64.464 306.51 71.1416 301.172 71.1416 301.172Z"
        fill="#E0E0E0" />
    <path
        d="M64.1376 315.017C55.9776 315.697 49.8576 310.679 49.8576 310.679C56.2972 308.428 64.1376 315.017 64.1376 315.017Z"
        fill="#E0E0E0" />
    <path
        d="M55.5152 296.072C55.6512 296.004 58.5956 301.158 62.1044 307.632C65.6132 314.106 68.34 319.348 68.2244 319.423C68.1088 319.498 65.144 314.337 61.6352 307.897C58.1264 301.458 55.3792 296.147 55.5152 296.072Z"
        fill="#E0E0E0" />
    <path
        d="M45.0704 281.799C45.0704 281.799 56.5012 287.354 56.746 298.71C53.616 296.997 50.9301 294.575 48.9029 291.639C46.8756 288.703 45.5632 285.333 45.0704 281.799Z"
        fill="#E0E0E0" />
    <path
        d="M62.8524 285.138C62.8524 285.138 68.7208 296.419 62.1724 305.68C60.6764 302.44 59.9588 298.895 60.0768 295.328C60.1949 291.762 61.1454 288.272 62.8524 285.138Z"
        fill="#E0E0E0" />
    <path
        d="M291.332 297.956C284.573 297.385 277.839 299.321 272.415 303.396C281.309 306.558 291.332 297.956 291.332 297.956Z"
        fill="#E0E0E0" />
    <path
        d="M259.026 301.172C259.794 307.972 264.894 312.147 264.894 312.147C265.703 306.51 259.026 301.172 259.026 301.172Z"
        fill="#E0E0E0" />
    <path
        d="M266.036 315.017C274.196 315.697 280.316 310.679 280.316 310.679C273.87 308.428 266.036 315.017 266.036 315.017Z"
        fill="#E0E0E0" />
    <path
        d="M274.659 296.072C274.523 296.004 271.572 301.158 268.07 307.632C264.568 314.106 261.834 319.348 261.95 319.423C262.065 319.498 265.03 314.337 268.532 307.897C272.034 301.458 274.788 296.147 274.659 296.072Z"
        fill="#E0E0E0" />
    <path
        d="M285.104 281.799C285.104 281.799 273.673 287.354 273.428 298.71C276.558 296.997 279.244 294.575 281.271 291.639C283.298 288.703 284.611 285.333 285.104 281.799Z"
        fill="#E0E0E0" />
    <path
        d="M267.322 285.138C267.322 285.138 261.453 296.419 268.002 305.68C269.496 302.44 270.213 298.895 270.095 295.329C269.977 291.762 269.027 288.272 267.322 285.138Z"
        fill="#E0E0E0" />
    <path
        d="M114.097 203.062C114.036 203.062 113.832 202.273 113.254 201.076C112.435 199.533 111.527 198.039 110.534 196.602C109.534 195.143 108.768 193.537 108.263 191.842C108.12 191.324 108.031 190.793 107.998 190.257C107.965 190.064 107.965 189.866 107.998 189.672C108.059 189.672 108.072 190.509 108.474 191.774C109.044 193.411 109.829 194.965 110.806 196.398C111.798 197.845 112.671 199.371 113.417 200.96C113.632 201.449 113.807 201.953 113.941 202.47C114.026 202.657 114.079 202.857 114.097 203.062Z"
        fill="white" />
    <path
        d="M125.487 194.405C125.26 194.433 125.03 194.419 124.807 194.364C124.169 194.23 123.564 193.972 123.026 193.603C122.235 193.063 121.513 192.428 120.877 191.712C118.617 189.334 116.718 186.638 115.24 183.709C114.872 182.981 114.607 182.349 114.437 181.968C114.335 181.752 114.259 181.523 114.213 181.288C114.267 181.288 114.682 182.179 115.457 183.586C116.467 185.423 117.615 187.18 118.891 188.843C119.639 189.815 120.394 190.706 121.115 191.488C121.724 192.195 122.408 192.833 123.155 193.392C123.853 193.889 124.647 194.235 125.487 194.405Z"
        fill="white" />
    <path
        d="M142.664 184.878C142.309 184.88 141.954 184.855 141.603 184.804C141.188 184.771 140.775 184.716 140.366 184.64C139.883 184.552 139.332 184.477 138.74 184.328C137.335 184.01 135.953 183.594 134.606 183.083C131.301 181.826 128.236 180.014 125.542 177.725C124.445 176.792 123.415 175.784 122.461 174.706C122.04 174.257 121.706 173.808 121.4 173.434C121.094 173.06 120.85 172.713 120.659 172.428C120.439 172.147 120.246 171.846 120.081 171.53C120.331 171.782 120.559 172.055 120.761 172.346C120.965 172.618 121.224 172.944 121.55 173.305C121.876 173.665 122.23 174.1 122.638 174.536C123.61 175.58 124.648 176.561 125.746 177.473C128.435 179.709 131.466 181.5 134.722 182.777C136.052 183.3 137.415 183.736 138.802 184.083C139.386 184.246 139.93 184.341 140.406 184.443C140.882 184.545 141.29 184.62 141.63 184.668C141.981 184.703 142.327 184.774 142.664 184.878Z"
        fill="white" />
    <path
        d="M270.47 126.738C270.356 125.894 269.98 125.107 269.396 124.488C268.855 123.854 268.126 123.408 267.315 123.216C266.623 123.069 265.903 123.152 265.263 123.453C264.623 123.754 264.1 124.256 263.772 124.882C263.427 124.293 262.904 123.829 262.278 123.557C261.653 123.284 260.956 123.217 260.29 123.366C259.493 123.576 258.781 124.027 258.25 124.658C257.674 125.284 257.303 126.072 257.19 126.915C257.066 127.993 257.29 129.082 257.829 130.023C258.459 130.975 259.307 131.763 260.304 132.321C261.916 133.287 264.044 134.49 264.044 134.49C264.044 134.49 265.832 133.13 267.444 132.172C268.434 131.603 269.275 130.809 269.899 129.853C270.42 128.904 270.621 127.811 270.47 126.738Z"
        fill="#EBEBEB" />
    <path
        d="M112.676 30.6C112.502 29.9302 112.13 29.3283 111.608 28.8728C111.108 28.4098 110.476 28.1149 109.8 28.0296C109.442 27.9957 109.081 28.0343 108.739 28.1429C108.397 28.2516 108.08 28.4281 107.807 28.662C107.485 28.9439 107.237 29.3014 107.086 29.7024C106.755 29.2551 106.29 28.9246 105.758 28.7584C105.226 28.5922 104.656 28.5989 104.128 28.7776C103.49 29.0154 102.941 29.4455 102.558 30.0084C102.139 30.5651 101.902 31.2368 101.878 31.9328C101.877 32.8135 102.158 33.6713 102.68 34.3808C103.281 35.1038 104.045 35.6726 104.91 36.04C106.304 36.6724 108.134 37.4612 108.134 37.4612C108.134 37.4612 109.46 36.21 110.677 35.2784C111.428 34.7285 112.039 34.0085 112.458 33.1772C112.805 32.3636 112.881 31.4602 112.676 30.6Z"
        fill="#EBEBEB" />
    <path
        d="M42.772 157.468C42.3148 156.942 41.7072 156.569 41.0312 156.4C40.3766 156.211 39.679 156.235 39.0388 156.468C38.5036 156.679 38.0518 157.058 37.7523 157.549C37.4528 158.04 37.3219 158.616 37.3796 159.188C36.8815 158.94 36.3174 158.858 35.7695 158.954C35.2215 159.049 34.7183 159.317 34.3332 159.718C33.8711 160.218 33.5784 160.851 33.4968 161.527C33.3809 162.221 33.483 162.934 33.7892 163.567C34.1905 164.355 34.834 164.994 35.6252 165.39C36.4817 165.759 37.415 165.916 38.3452 165.845C39.8752 165.777 41.8608 165.641 41.8608 165.641C41.8608 165.641 42.4728 163.928 43.1256 162.54C43.5494 161.711 43.7663 160.792 43.758 159.861C43.6955 158.978 43.3497 158.139 42.772 157.468Z"
        fill="#F5F5F5" />
    <path
        d="M39.5352 279.745C39.3761 279.068 39.013 278.455 38.4948 277.991C38.0086 277.521 37.3883 277.215 36.72 277.114C36.1478 277.044 35.5684 277.163 35.0709 277.454C34.5733 277.746 34.1852 278.192 33.966 278.725C33.6434 278.272 33.185 277.932 32.657 277.756C32.1289 277.58 31.5586 277.577 31.0284 277.746C30.3852 277.967 29.8284 278.386 29.4372 278.943C29.0214 279.496 28.7842 280.162 28.7572 280.854C28.7296 281.737 28.9897 282.606 29.4984 283.329C30.0801 284.055 30.8259 284.633 31.6744 285.015C33.0344 285.695 34.8704 286.511 34.8704 286.511C34.8704 286.511 36.2304 285.287 37.4544 284.376C38.2153 283.85 38.84 283.151 39.2768 282.336C39.6402 281.523 39.7308 280.614 39.5352 279.745Z"
        fill="#F5F5F5" />
    <path
        d="M53.1896 73.6781C53.2641 72.9877 53.1215 72.2912 52.7816 71.6857C52.473 71.0784 51.9836 70.5818 51.3808 70.2645C51.057 70.1095 50.7053 70.0213 50.3467 70.0049C49.9881 69.9886 49.6298 70.0445 49.2932 70.1693C48.9029 70.3254 48.5555 70.5725 48.28 70.8901C48.1241 70.356 47.8021 69.8855 47.3607 69.5468C46.9193 69.2081 46.3814 69.0189 45.8252 69.0065C45.1443 69.0067 44.4807 69.2208 43.928 69.6185C43.3511 70.0018 42.9051 70.5523 42.6496 71.1961C42.3389 72.0238 42.3008 72.9292 42.5408 73.7801C42.8506 74.6574 43.3658 75.4479 44.0436 76.0853C45.1316 77.1665 46.5732 78.5401 46.5732 78.5401C46.5732 78.5401 48.2528 77.8601 49.7148 77.3705C50.6121 77.1153 51.4352 76.649 52.1152 76.0105C52.7122 75.367 53.0886 74.55 53.1896 73.6781Z"
        fill="#F5F5F5" />
    <path
        d="M249.846 23.7116C249.473 22.4533 248.726 21.3384 247.704 20.5156C246.731 19.6756 245.522 19.1598 244.242 19.04C243.563 19.0033 242.883 19.1049 242.243 19.3387C241.604 19.5725 241.019 19.9335 240.523 20.4C239.929 20.9627 239.482 21.6635 239.224 22.44C238.567 21.6181 237.664 21.0269 236.649 20.7518C235.633 20.4767 234.556 20.5321 233.573 20.91C232.387 21.4006 231.384 22.2493 230.704 23.3376C229.967 24.4214 229.582 25.7061 229.602 27.0164C229.65 28.6856 230.234 30.2949 231.268 31.6064C232.441 32.9165 233.91 33.9281 235.552 34.5576C238.224 35.6592 241.733 37.0192 241.733 37.0192C241.733 37.0192 244.154 34.5712 246.384 32.7216C247.767 31.6383 248.87 30.2392 249.601 28.6416C250.216 27.0687 250.302 25.3379 249.846 23.7116Z"
        fill="#EBEBEB" />
    <path
        d="M306.374 183.484C306.078 182.492 305.487 181.612 304.681 180.962C303.915 180.304 302.965 179.898 301.961 179.799C301.425 179.767 300.889 179.844 300.384 180.025C299.879 180.206 299.416 180.488 299.023 180.853C298.556 181.288 298.203 181.833 297.996 182.437C297.476 181.789 296.762 181.322 295.96 181.105C295.157 180.887 294.306 180.93 293.529 181.227C292.589 181.612 291.795 182.283 291.258 183.144C290.675 184.002 290.369 185.018 290.38 186.055C290.415 187.39 290.886 188.677 291.72 189.72C292.65 190.759 293.816 191.559 295.12 192.052C297.235 192.93 300.009 194.004 300.009 194.004C300.009 194.004 301.92 192.066 303.681 190.604C304.774 189.747 305.648 188.642 306.231 187.381C306.696 186.131 306.747 184.765 306.374 183.484Z"
        fill="#F5F5F5" />
    <path
        d="M306.374 60.52C306.079 59.5264 305.489 58.6463 304.681 57.9972C303.919 57.3337 302.967 56.9269 301.961 56.8344C301.425 56.8026 300.889 56.8796 300.384 57.0607C299.879 57.2419 299.416 57.5234 299.023 57.8884C298.556 58.3238 298.203 58.8681 297.996 59.4728C297.476 58.8243 296.762 58.3577 295.96 58.1402C295.157 57.9227 294.306 57.9655 293.529 58.2624C292.589 58.6476 291.795 59.3184 291.258 60.18C290.672 61.0299 290.359 62.0379 290.36 63.07C290.408 64.3958 290.885 65.6702 291.72 66.7012C292.652 67.7375 293.818 68.5371 295.12 69.0336C297.235 69.904 300.009 70.9852 300.009 70.9852C300.009 70.9852 301.92 69.0472 303.681 67.5852C304.775 66.7254 305.649 65.6184 306.231 64.3552C306.685 63.1243 306.735 61.7812 306.374 60.52Z"
        fill="#F5F5F5" />
    <path
        d="M84.0888 117.477C83.7926 116.484 83.2022 115.604 82.3956 114.954C81.6293 114.297 80.6799 113.891 79.6756 113.791C78.816 113.735 77.9618 113.963 77.2443 114.44C76.5268 114.916 75.9857 115.615 75.7044 116.43C75.186 115.78 74.4741 115.312 73.672 115.095C72.8699 114.877 72.0193 114.921 71.2436 115.219C70.3042 115.604 69.5097 116.275 68.9724 117.137C68.3902 117.995 68.0841 119.01 68.0952 120.047C68.143 121.373 68.6203 122.647 69.4552 123.678C70.3841 124.718 71.5506 125.519 72.8552 126.011C74.97 126.888 77.7444 127.962 77.7444 127.962C77.7444 127.962 79.6552 126.024 81.4164 124.562C82.5097 123.705 83.3836 122.6 83.9664 121.339C84.4175 120.098 84.4604 118.744 84.0888 117.477Z"
        fill="#F5F5F5" />
    <path
        d="M263.561 206.441C263.635 204.983 263.257 203.537 262.48 202.3C261.759 201.061 260.667 200.079 259.359 199.492C258.657 199.205 257.904 199.063 257.146 199.074C256.388 199.084 255.639 199.247 254.946 199.553C254.124 199.926 253.406 200.493 252.851 201.205C252.572 200.437 252.126 199.741 251.546 199.165C251.008 198.637 250.37 198.222 249.669 197.945C248.969 197.668 248.219 197.535 247.466 197.554C246.033 197.64 244.663 198.173 243.549 199.077C242.382 199.959 241.511 201.176 241.053 202.565C240.505 204.343 240.54 206.249 241.155 208.005C241.919 209.813 243.103 211.412 244.61 212.67C247.037 214.805 250.247 217.512 250.247 217.512C250.247 217.512 253.688 215.798 256.707 214.656C258.562 214.011 260.236 212.931 261.589 211.507C262.771 210.073 263.463 208.297 263.561 206.441Z"
        fill="#EBEBEB" />
    <path
        d="M74.5892 199.716C73.8617 198.445 72.7631 197.428 71.4408 196.799C70.1653 196.145 68.7171 195.907 67.2996 196.119C66.0999 196.318 64.9996 196.909 64.1696 197.798C63.3397 198.687 62.8264 199.825 62.7096 201.035C62.0644 200.527 61.3178 200.163 60.52 199.968C59.7793 199.808 59.0139 199.799 58.2697 199.941C57.5255 200.084 56.8176 200.375 56.1884 200.797C55.0208 201.641 54.1479 202.83 53.6928 204.197C53.1708 205.563 53.0806 207.056 53.4344 208.474C53.9201 210.275 54.9713 211.872 56.4332 213.03C58.0508 214.159 59.9171 214.88 61.8732 215.132C65.0624 215.648 69.224 216.226 69.224 216.226C69.224 216.226 71.2164 212.935 73.168 210.358C74.3908 208.823 75.23 207.019 75.616 205.095C75.8608 203.238 75.5008 201.352 74.5892 199.716Z"
        fill="#EBEBEB" />
    <path
        d="M304.076 108.691L304.416 109.256C304.795 109.885 305.347 110.393 306.007 110.718L306.592 111.01L306.034 111.35C305.401 111.727 304.891 112.28 304.565 112.941L304.28 113.526L303.94 112.962C303.558 112.333 303.006 111.827 302.348 111.5L301.764 111.207L302.321 110.874C302.953 110.495 303.462 109.943 303.79 109.283L304.076 108.691Z"
        fill="#E0E0E0" />
    <path
        d="M264.812 165.573L265.152 166.138C265.529 166.767 266.079 167.274 266.737 167.6L267.328 167.892L266.764 168.225C266.134 168.605 265.627 169.157 265.302 169.816L265.01 170.408L264.67 169.844C264.295 169.213 263.744 168.705 263.085 168.382L262.494 168.089L263.058 167.749C263.688 167.37 264.195 166.817 264.52 166.158L264.812 165.573Z"
        fill="#E0E0E0" />
    <path
        d="M78.71 166.43L79.0432 166.994C79.4246 167.623 79.9764 168.129 80.6344 168.456L81.226 168.749L80.6616 169.082C80.0319 169.461 79.5244 170.014 79.1996 170.673L78.9072 171.265L78.5672 170.7C78.1922 170.07 77.6417 169.562 76.9828 169.238L76.3912 168.946L76.9556 168.606C77.5852 168.226 78.0926 167.674 78.4176 167.015L78.71 166.43Z"
        fill="#E0E0E0" />
    <path
        d="M166.784 77.6356L167.124 78.2C167.503 78.8298 168.055 79.3373 168.715 79.662L169.3 79.9544L168.742 80.2944C168.109 80.6718 167.599 81.2245 167.273 81.8856L166.988 82.4704L166.648 81.906C166.266 81.2779 165.714 80.771 165.056 80.444L164.472 80.1516L165.029 79.8184C165.661 79.4392 166.17 78.887 166.498 78.2272L166.784 77.6356Z"
        fill="#E0E0E0" />
    <path
        d="M310.413 319.246C310.413 319.348 248.084 319.423 171.217 319.423C94.35 319.423 32.0008 319.348 32.0008 319.246C32.0008 319.144 94.3228 319.07 171.217 319.07C248.112 319.07 310.413 319.151 310.413 319.246Z"
        fill="#263238" />
    <path
        d="M228.12 69.6048C227.849 68.177 227.141 66.8685 226.095 65.86C225.049 64.8514 223.715 64.1926 222.278 63.9744C221.044 62.2285 219.26 60.9456 217.213 60.3295C215.165 59.7135 212.97 59.7997 210.977 60.5744C209.999 59.4696 208.751 58.6377 207.355 58.16C205.959 57.6824 204.463 57.5754 203.013 57.8496C201.564 58.1238 200.21 58.7697 199.085 59.7241C197.96 60.6786 197.102 61.9088 196.595 63.2944C195.265 62.6343 193.763 62.4056 192.298 62.6404C190.832 62.8751 189.477 63.5616 188.42 64.6039C187.364 65.6462 186.659 66.9924 186.404 68.4546C186.15 69.9167 186.358 71.4219 187 72.76C185.26 72.6966 183.561 73.2984 182.249 74.443C180.937 75.5877 180.11 77.1892 179.937 78.9217C179.764 80.6543 180.257 82.3877 181.316 83.7695C182.376 85.1513 183.922 86.0776 185.64 86.36L224.441 76.84C225.729 76.1645 226.775 75.1053 227.434 73.8089C228.093 72.5126 228.333 71.0434 228.12 69.6048Z"
        fill="#263238" />
    <path
        d="M171.863 121.04C174.087 113.839 179.024 99.96 184.409 86.9312C187.199 80.1827 192.427 74.7322 199.054 71.6651C205.681 68.5979 213.22 68.1392 220.17 70.3801L221.605 70.8356C236.756 76.7176 240.23 92.8676 233.934 107.855L213.71 159.025C196.71 171.537 177.487 163.581 177.827 151.592L177.548 150.613L180.526 143.589C180.526 143.589 167.28 135.959 171.863 121.04Z"
        fill="#FFBE9D" />
    <path
        d="M180.411 143.548C180.411 143.548 189.706 147.166 201.695 144.119C201.695 144.119 193.535 153.122 179.16 147.009L180.411 143.548Z"
        fill="#EB996E" />
    <path
        d="M192.358 102.354C192.243 101.973 190.176 102.306 188.047 101.204C185.919 100.103 184.912 98.226 184.545 98.3688C184.368 98.4232 184.382 99.0488 184.804 99.8648C185.395 100.98 186.316 101.885 187.442 102.456C188.548 103.03 189.807 103.24 191.039 103.054C191.957 102.884 192.44 102.537 192.358 102.354Z"
        fill="#263238" />
    <path
        d="M212.602 109.113C212.432 108.752 210.433 109.412 208.162 108.657C205.89 107.902 204.592 106.223 204.252 106.42C204.088 106.502 204.19 107.1 204.748 107.855C205.51 108.861 206.565 109.607 207.767 109.99C208.951 110.378 210.228 110.378 211.412 109.99C212.289 109.698 212.69 109.276 212.602 109.113Z"
        fill="#263238" />
    <path
        d="M193.8 117.137C193.854 117.014 192.515 116.307 190.312 115.274C189.747 115.029 189.237 114.736 189.264 114.308C189.409 113.689 189.739 113.129 190.21 112.703L193.358 108.827C197.785 103.278 201.192 98.6272 200.967 98.4708C200.743 98.3144 196.969 102.646 192.549 108.188L189.455 112.118C189.026 112.71 188.401 113.336 188.421 114.308C188.439 114.541 188.51 114.766 188.628 114.967C188.745 115.169 188.907 115.341 189.101 115.471C189.398 115.657 189.715 115.81 190.046 115.926C192.331 116.79 193.8 117.266 193.8 117.137Z"
        fill="#263238" />
    <path
        d="M200.022 120.877C199.655 120.741 198.852 123.209 196.166 124.277C193.48 125.344 190.937 124.236 190.801 124.576C190.72 124.719 191.236 125.256 192.345 125.63C193.786 126.122 195.355 126.086 196.772 125.528C198.136 124.995 199.239 123.951 199.845 122.618C200.274 121.618 200.192 120.918 200.022 120.877Z"
        fill="#263238" />
    <path
        d="M207.475 95.2408C207.475 95.9208 209.875 96.3764 212.446 97.5596C215.016 98.7428 216.947 100.171 217.484 99.7288C217.729 99.5112 217.539 98.8108 216.859 97.9268C215.93 96.8183 214.761 95.936 213.44 95.3469C212.119 94.7578 210.681 94.4773 209.236 94.5268C208.128 94.588 207.475 94.9144 207.475 95.2408Z"
        fill="#263238" />
    <path
        d="M187.442 88.502C187.755 89.182 189.781 89.2364 192.018 89.93C194.256 90.6236 196.024 91.6028 196.636 91.2016C196.908 90.9976 196.778 90.3856 196.112 89.6308C195.163 88.6711 193.985 87.9681 192.69 87.5875C191.395 87.2069 190.024 87.1612 188.707 87.4548C187.748 87.72 187.32 88.1824 187.442 88.502Z"
        fill="#263238" />
    <path
        d="M188.027 80.6005C188.027 80.6005 194.936 72.5697 200.117 71.8421C206.394 70.9649 206.808 77.6765 212.446 77.8941C218.083 78.1117 224.074 77.2617 228.086 82.9601C232.458 89.2025 228.766 91.3989 226.998 98.0969C219.844 125.297 222.285 134.388 227.725 122.257C228.324 120.931 232.485 121.067 234.94 115.457C238.109 108.14 241.352 99.0693 241.393 93.1669C241.393 88.1961 239.856 84.2453 236.348 79.3221C230.806 71.5429 220.837 68.2041 213.819 66.6945C206.802 65.1849 191.155 68.7617 188.027 80.6005Z"
        fill="#263238" />
    <path
        d="M226.896 121.55C227.089 121.011 227.391 120.517 227.781 120.097C228.171 119.678 228.642 119.342 229.166 119.11C229.69 118.878 230.255 118.755 230.828 118.748C231.401 118.74 231.969 118.849 232.499 119.068C235.178 120.224 237.755 122.788 235.729 128.452C232.138 138.496 222.809 132.818 222.877 132.532C222.938 132.321 225.359 125.739 226.896 121.55Z"
        fill="#FFBE9D" />
    <path
        d="M226.44 129.526C226.494 129.526 226.569 129.71 226.814 129.948C227.167 130.274 227.632 130.452 228.113 130.444C229.316 130.444 230.833 129.084 231.513 127.276C231.847 126.424 231.987 125.509 231.921 124.596C231.938 124.249 231.871 123.902 231.725 123.586C231.579 123.27 231.36 122.994 231.084 122.781C230.902 122.656 230.682 122.6 230.462 122.621C230.242 122.642 230.036 122.74 229.881 122.896C229.643 123.128 229.636 123.352 229.575 123.345C229.514 123.338 229.425 123.1 229.65 122.72C229.795 122.489 230.016 122.316 230.275 122.23C230.625 122.121 231.003 122.153 231.329 122.318C231.712 122.548 232.03 122.871 232.252 123.258C232.475 123.645 232.595 124.082 232.601 124.528C232.717 125.552 232.582 126.588 232.206 127.548C231.418 129.547 229.704 131.07 228.126 130.948C227.828 130.93 227.538 130.845 227.277 130.701C227.015 130.556 226.79 130.355 226.617 130.111C226.352 129.771 226.379 129.533 226.44 129.526Z"
        fill="#EB996E" />
    <path
        d="M233.029 101.823C231.424 102.299 229.731 102.782 228.092 102.428C226.454 102.075 224.93 100.572 225.175 98.9129C225.277 98.1717 225.719 97.4033 225.427 96.7097C225.08 95.8801 223.992 95.7577 223.115 95.5741C221.595 95.2138 220.245 94.341 219.293 93.1027C218.34 91.8643 217.843 90.3357 217.886 88.7741C216.77 89.6581 215.03 89.0461 214.132 87.9445C213.234 86.8429 212.881 85.4081 212.316 84.0957C211.752 82.7833 210.8 81.4709 209.399 81.2329C208.61 81.0969 207.767 81.3213 207.033 81.0085C205.741 80.4577 205.591 78.6897 205.816 77.3025C206.04 75.9153 206.38 74.3241 205.482 73.2225C204.585 72.1209 203.17 72.1685 201.885 71.9577C200.6 71.7469 199.111 70.9445 199.165 69.6389C199.215 69.3003 199.334 68.9754 199.514 68.6843C199.694 68.3932 199.932 68.1418 200.212 67.9457C201.43 66.9827 202.937 66.4587 204.49 66.4587C206.042 66.4587 207.549 66.9827 208.767 67.9457C209.81 66.4163 211.283 65.2308 213.001 64.5392C214.718 63.8475 216.602 63.6808 218.414 64.0601C220.226 64.4393 221.884 65.3476 223.18 66.6699C224.475 67.9922 225.35 69.6691 225.692 71.4885C227.085 70.8633 228.609 70.5825 230.133 70.6698C231.658 70.7571 233.139 71.2099 234.452 71.9901C235.765 72.7702 236.871 73.8547 237.677 75.1522C238.482 76.4496 238.964 77.9218 239.081 79.4445C240.437 79.5062 241.744 79.9676 242.839 80.7705C243.933 81.5734 244.766 82.682 245.232 83.9569C245.698 85.2317 245.776 86.6159 245.457 87.9352C245.138 89.2546 244.437 90.4502 243.44 91.3717C244.929 92.9969 245.908 95.3157 245.269 97.4237C244.63 99.5317 241.91 100.973 240.06 99.7697C240.225 100.737 240.009 101.731 239.459 102.544C238.909 103.356 238.066 103.925 237.106 104.131C236.146 104.337 235.144 104.165 234.309 103.65C233.473 103.135 232.869 102.317 232.621 101.368"
        fill="#263238" />
    <path
        d="M240.795 99.96C240.836 99.96 240.706 100.871 239.53 101.708C238.821 102.188 237.957 102.387 237.109 102.265C236.568 102.182 236.051 101.98 235.597 101.673C235.143 101.366 234.763 100.962 234.484 100.49L234.933 100.565C234.091 101.338 233.132 101.971 232.091 102.442C231.395 102.768 230.642 102.955 229.874 102.993C229.145 103.027 228.42 102.868 227.773 102.53C227.207 102.294 226.7 101.937 226.288 101.483C225.875 101.03 225.568 100.491 225.386 99.9056C225.183 99.1293 225.134 98.3206 225.243 97.5256C225.247 97.235 225.309 96.9482 225.427 96.6824C225.488 96.9636 225.506 97.2525 225.481 97.5392C225.466 98.2945 225.572 99.0475 225.794 99.7696C226.29 101.538 229.194 103.292 231.846 101.878C232.836 101.436 233.753 100.847 234.566 100.13L234.838 99.8852L235.015 100.205C235.247 100.608 235.564 100.956 235.943 101.226C236.322 101.496 236.754 101.681 237.211 101.769C237.949 101.908 238.712 101.775 239.36 101.395C239.927 101.014 240.414 100.527 240.795 99.96Z"
        fill="#455A64" />
    <path
        d="M202.463 57.9632C202.463 57.8476 201.192 58.2216 199.879 59.6836C199.101 60.5201 198.487 61.496 198.07 62.56C197.535 63.9175 197.513 65.4239 198.009 66.7964C198.545 68.118 199.4 69.2861 200.498 70.1964C201.356 70.9395 202.264 71.6212 203.218 72.2364C204.816 73.2632 205.816 73.8616 205.877 73.7868C205.938 73.712 205.04 72.93 203.531 71.7944C202.651 71.1436 201.805 70.4491 200.994 69.7136C200.012 68.8567 199.241 67.7837 198.744 66.5788C198.308 65.3702 198.308 64.0474 198.744 62.8388C199.106 61.829 199.635 60.8868 200.308 60.0508C200.941 59.2716 201.664 58.5708 202.463 57.9632Z"
        fill="#E0E0E0" />
    <path
        d="M194.861 68.5304C195.59 69.7419 196.633 70.7335 197.88 71.4C198.846 71.8828 199.512 71.9508 199.539 71.8692C199.566 71.7876 198.982 71.502 198.179 70.9376C197.108 70.2044 196.205 69.2527 195.529 68.1451C194.853 67.0374 194.419 65.7991 194.256 64.5116C194.126 63.5188 194.181 62.8796 194.058 62.8592C193.936 62.8388 193.725 63.4712 193.718 64.5456"
        fill="#E0E0E0" />
    <path
        d="M206.434 114.342C207.803 114.217 209.183 114.327 210.514 114.668C211.232 114.853 211.896 115.206 212.45 115.698C213.005 116.19 213.435 116.807 213.704 117.497C214.384 119.537 212.928 121.87 210.922 122.72C209.907 123.088 208.822 123.221 207.747 123.109C206.673 122.997 205.638 122.643 204.721 122.074C203.812 121.614 203.071 120.879 202.606 119.972C202.351 119.286 202.288 118.543 202.425 117.824C202.561 117.105 202.892 116.437 203.381 115.892C204.354 114.784 205 114.6 206.434 114.342Z"
        fill="#FFAE8E" />
    <path
        d="M115.199 207.788C111.598 208.904 108.32 210.875 105.645 213.532C102.97 216.189 100.978 219.454 99.8378 223.047C98.6976 226.641 98.4434 230.457 99.097 234.17C99.7505 237.883 101.292 241.383 103.591 244.372L125.977 231.812C122.386 223.802 118.794 215.793 115.199 207.788Z"
        fill="#92E3A9" />
    <path d="M130.234 238.945L130.472 239.476C130.37 239.306 130.302 239.129 130.234 238.945Z"
        fill="#92E3A9" />
    <path
        d="M230.275 186.32C228.494 181.472 218.164 153.585 218.164 153.585L218.409 147.186L177.711 149.464L173.985 161.248C173.985 161.248 171.19 163.22 166.151 169.796C157.957 180.486 158.787 181.356 153.422 188.618C145.941 198.718 140.358 210.094 136.945 222.19L110.425 319.083H205.163C205.843 313.738 203.062 303.722 203.062 303.722C204.951 302.984 206.684 301.895 208.168 300.512C211.018 298.017 223.808 228.33 226.998 220.85C230.187 213.37 232.057 191.134 230.275 186.32Z"
        fill="#92E3A9" />
    <g opacity="0.3">
        <path
            d="M148.24 257.849C140.379 256.829 135.204 256.816 127.337 255.809L125.623 262.915C131.614 268.784 142.093 271.266 150.43 272.136C150.708 267.24 147.907 262.745 148.24 257.849Z"
            fill="black" />
    </g>
    <g opacity="0.3">
        <path
            d="M155.924 218.96C153.578 215.737 152.973 211.48 153.435 207.536C153.898 203.592 155.346 199.798 156.774 196.071L162.411 181.356L159.011 182.934C154.58 190.132 150.656 197.63 147.268 205.374C146.186 207.842 145.132 210.467 145.384 213.153C145.819 217.858 149.974 221.231 153.796 224.033C154.673 224.679 155.747 225.352 156.76 224.978C157.876 224.57 158.216 223.088 157.848 221.966C157.481 220.844 156.618 219.898 155.924 218.96Z"
            fill="black" />
    </g>
    <g opacity="0.3">
        <path
            d="M193.514 295.195C192.974 294.883 192.399 294.634 191.801 294.454C191.657 294.565 191.496 294.652 191.325 294.712L193.514 295.195Z"
            fill="black" />
    </g>
    <g opacity="0.3">
        <path
            d="M185.953 258.672C193.422 250.915 200.05 242.39 205.727 233.24C209.263 227.521 212.473 221.428 213.506 214.792C205.809 218.974 200.07 225.971 195.051 233.152C190.033 240.332 185.49 247.928 179.302 254.13C177.133 256.306 174.699 258.4 173.563 261.256C172.516 263.894 172.72 266.832 172.944 269.661L174.08 284.655C174.25 286.858 174.474 289.197 175.821 290.945C177.725 293.413 181.227 293.91 184.341 293.903C186.83 293.903 189.448 293.733 191.774 294.454C192.173 294.099 192.448 293.625 192.558 293.103C192.668 292.58 192.608 292.036 192.386 291.55C191.777 290.448 190.82 289.577 189.666 289.075C188.504 288.586 187.438 287.896 186.517 287.035C185.676 285.932 185.114 284.642 184.878 283.274C183.777 278.931 182.829 274.55 182.036 270.13C181.71 268.314 181.41 266.431 181.859 264.636C182.458 262.269 184.28 260.44 185.953 258.672Z"
            fill="black" />
    </g>
    <path
        d="M219.456 184.464C219.338 184.369 219.229 184.265 219.13 184.151C218.919 183.94 218.634 183.614 218.232 183.219C217.111 182.106 215.907 181.081 214.628 180.152C212.746 178.771 210.688 177.646 208.508 176.807C203.13 174.685 197.157 174.629 191.74 176.65C189.542 177.453 187.459 178.541 185.545 179.887C184.25 180.793 183.031 181.803 181.9 182.906C181.492 183.287 181.22 183.586 180.989 183.818C180.888 183.93 180.776 184.033 180.656 184.124C180.735 183.996 180.829 183.877 180.934 183.77C181.132 183.552 181.404 183.206 181.798 182.804C182.906 181.661 184.112 180.616 185.402 179.683C187.315 178.29 189.411 177.166 191.631 176.344C197.116 174.259 203.185 174.315 208.631 176.501C210.834 177.363 212.909 178.523 214.798 179.948C216.074 180.899 217.262 181.962 218.348 183.124C218.742 183.532 219.028 183.879 219.198 184.103C219.295 184.215 219.382 184.336 219.456 184.464Z"
        fill="#263238" />
    <path
        d="M219.456 155.094C219.301 155.145 219.142 155.182 218.98 155.203L217.62 155.428C216.417 155.604 214.669 155.829 212.507 156.053C208.182 156.522 202.184 156.93 195.609 157.753C191.428 158.219 187.294 159.043 183.253 160.215L183.138 160.256L183.076 160.147L179.126 152.891L178.044 150.851L177.766 150.307C177.73 150.248 177.702 150.184 177.684 150.117C177.684 150.117 177.738 150.171 177.806 150.287C177.874 150.402 177.997 150.6 178.119 150.804L179.275 152.803L183.355 159.997L183.178 159.922C187.228 158.706 191.379 157.859 195.582 157.393C202.171 156.57 208.168 156.203 212.5 155.795C214.662 155.604 216.41 155.421 217.62 155.285L218.98 155.122C219.138 155.101 219.297 155.092 219.456 155.094Z"
        fill="#263238" />
    <path
        d="M219.64 203.442C219.586 203.442 219.844 202.667 220.13 201.402C220.491 199.777 220.673 198.117 220.674 196.452C220.659 194.785 220.459 193.124 220.075 191.502C219.783 190.257 219.518 189.509 219.572 189.462C219.682 189.615 219.767 189.785 219.824 189.965C220.018 190.437 220.184 190.921 220.32 191.413C220.769 193.044 220.998 194.727 221 196.418C221.001 198.114 220.773 199.802 220.32 201.436C220.19 201.931 220.029 202.417 219.837 202.892C219.735 203.272 219.64 203.456 219.64 203.442Z"
        fill="#263238" />
    <path
        d="M216.24 164.56C216.328 164.608 214.812 167.443 212.84 170.891C210.868 174.338 209.236 177.099 209.154 177.052C210.178 174.882 211.313 172.767 212.554 170.714C214.479 167.28 216.131 164.512 216.24 164.56Z"
        fill="#263238" />
    <g opacity="0.3">
        <path
            d="M212.316 163.35C212.081 163.246 211.826 163.197 211.57 163.205C211.313 163.214 211.062 163.279 210.834 163.397L195.942 168.518C191.182 170.143 186.347 171.795 181.329 171.754C177.562 171.754 173.849 170.748 170.231 169.769L146.146 163.316L144.384 164.274C144.568 168.613 147.533 172.434 151.184 174.828C154.836 177.222 159.106 178.35 163.309 179.466C171.306 181.594 179.683 183.722 187.789 181.948C197.309 179.867 204.789 172.761 211.772 165.947C212.169 165.617 212.485 165.201 212.697 164.73C212.796 164.49 212.812 164.225 212.743 163.975C212.674 163.725 212.524 163.505 212.316 163.35Z"
            fill="black" />
    </g>
    <path
        d="M182.24 100.368C181.845 98.1146 180.988 95.9671 179.724 94.0602C178.46 92.1532 176.815 90.528 174.894 89.2863C172.972 88.0446 170.815 87.2132 168.557 86.8442C166.299 86.4752 163.989 86.5766 161.772 87.1421C156.74 85.3265 150.443 86.0541 146.812 87.6589C137.578 91.7389 133.212 103.034 123.447 105.556C122.597 105.676 121.788 105.998 121.088 106.495C119.626 107.794 120.564 110.446 122.312 111.316C123.719 111.996 125.344 111.928 126.929 111.676C124.449 115.15 121.686 118.411 118.667 121.428C116.974 123.053 114.981 125.127 115.668 127.371C116.348 129.513 118.959 130.193 121.169 130.533L117.885 134.205C119.008 135.294 120.392 136.075 121.905 136.473C123.418 136.871 125.007 136.872 126.521 136.476C125.494 137.156 125.555 138.774 126.371 139.679C127.268 140.519 128.441 141.003 129.669 141.039C133.831 141.494 138.047 140.318 141.732 138.319C145.418 136.32 148.614 133.559 151.633 130.669C159.627 122.994 166.536 114.264 172.169 104.72L170.768 98.0629L182.24 100.368Z"
        fill="#263238" />
    <path
        d="M180.717 96.6212C178.536 93.7303 175.652 91.4455 172.339 89.9844C167.048 87.4721 161.096 86.7008 155.339 87.7812C151.831 88.4795 148.509 89.9051 145.586 91.9662C142.663 94.0273 140.205 96.6781 138.369 99.7477C136.533 102.817 135.362 106.237 134.929 109.788C134.496 113.338 134.812 116.939 135.857 120.36L183.24 106.828C183.517 105.044 183.438 103.223 183.004 101.471C182.571 99.7186 181.794 98.07 180.717 96.6212Z"
        fill="#92E3A9" />
    <path
        d="M162.071 158.556L164.757 149.185C173.053 150.253 178.432 146.316 181.397 137.19C183.044 132.182 184.252 127.04 185.008 121.822C186.85 109.793 185.871 105.944 185.871 105.944C184.588 102.586 182.448 99.6235 179.663 97.3506C176.878 95.0778 173.547 93.5743 170 92.99C161.554 91.4192 152.884 94.9348 147.866 99.2528C145.382 101.39 143.772 104.368 143.344 107.617C142.365 115.056 140.508 129.173 140.066 132.988C139.461 138.244 138.876 140.026 138.876 140.026L137.244 148.308C136.175 151.99 136.596 155.944 138.417 159.317C140.237 162.691 143.311 165.214 146.975 166.342C154.36 168.64 159.868 164.56 162.071 158.556Z"
        fill="#FFBE9D" />
    <path
        d="M162.425 112.499C162.017 112.907 160.609 112.152 158.828 111.744C157.046 111.336 155.462 111.323 155.285 110.772C155.21 110.514 155.57 110.133 156.312 109.861C157.283 109.564 158.316 109.533 159.303 109.773C160.29 110.012 161.194 110.512 161.922 111.221C162.459 111.792 162.608 112.295 162.425 112.499Z"
        fill="#263238" />
    <path
        d="M182.158 118.599C181.75 119.007 180.35 118.252 178.568 117.851C176.786 117.45 175.168 117.422 175.025 116.878C174.95 116.613 175.311 116.232 176.045 115.967C177.016 115.655 178.055 115.622 179.044 115.872C180.036 116.096 180.945 116.599 181.662 117.32C182.199 117.898 182.342 118.402 182.158 118.599Z"
        fill="#263238" />
    <path
        d="M162.744 136.401C162.744 136.524 162.418 136.666 161.86 136.598C161.128 136.484 160.467 136.095 160.011 135.51C159.554 134.933 159.335 134.204 159.399 133.47C159.467 132.92 159.684 132.634 159.807 132.661C160.065 132.716 159.97 133.919 160.772 134.932C161.575 135.946 162.751 136.136 162.744 136.401Z"
        fill="#263238" />
    <path
        d="M164.764 149.287C164.764 149.287 154.414 146.744 152.442 144.323C152.442 144.323 152.952 149.709 164.002 152.048L164.764 149.287Z"
        fill="#EB996E" />
    <path
        d="M168.001 126.936C168.13 126.936 168.252 127.446 168.341 128.296C168.388 128.704 168.422 129.186 168.45 129.73C168.45 130.009 168.45 130.288 168.484 130.58C168.51 130.923 168.494 131.268 168.436 131.607C168.397 131.817 168.317 132.017 168.2 132.195C168.083 132.374 167.932 132.528 167.756 132.648C167.422 132.839 167.036 132.918 166.654 132.872C166.331 132.841 166.021 132.731 165.75 132.552C165.537 132.406 165.347 132.23 165.186 132.029C164.648 131.294 164.56 130.784 164.648 130.716C164.737 130.648 165.111 131.063 165.675 131.553C165.961 131.814 166.329 131.968 166.716 131.988C166.905 131.995 167.092 131.945 167.253 131.845C167.324 131.792 167.385 131.724 167.43 131.647C167.476 131.57 167.505 131.485 167.518 131.396C167.564 131.134 167.579 130.867 167.566 130.601C167.566 130.306 167.566 130.021 167.566 129.744C167.566 129.2 167.627 128.71 167.668 128.296C167.742 127.446 167.865 126.942 168.001 126.936Z"
        fill="#263238" />
    <path
        d="M174.848 130.621C175.818 130.533 176.795 130.612 177.738 130.852C178.245 130.982 178.713 131.23 179.105 131.577C179.496 131.923 179.799 132.358 179.989 132.845C180.445 134.273 179.438 135.932 178.024 136.53C177.31 136.791 176.545 136.886 175.789 136.807C175.032 136.728 174.304 136.477 173.658 136.075C173.015 135.754 172.493 135.234 172.169 134.592C171.987 134.11 171.942 133.587 172.038 133.081C172.134 132.575 172.367 132.105 172.713 131.723C172.97 131.397 173.293 131.131 173.662 130.941C174.03 130.751 174.434 130.642 174.848 130.621Z"
        fill="#FFAE8E" />
    <path
        d="M153.857 125.12C154.861 125.558 155.782 126.168 156.577 126.922C157.814 128.194 158.426 130.24 156.842 131.798C156.322 132.305 155.656 132.636 154.938 132.743C152.81 133.069 150.919 131.696 149.852 129.948C149.076 128.676 148.634 127.078 150.246 125.644C150.567 125.366 150.936 125.15 151.334 125.004C151.739 124.847 152.173 124.776 152.608 124.796C153.042 124.816 153.468 124.926 153.857 125.12Z"
        fill="#FFAE8E" />
    <path
        d="M174.665 92.9696C167.742 90.168 161.942 88.6924 154.095 91.4056C151.255 92.6295 148.592 94.2306 146.18 96.1656C139.638 102.102 137.802 107.814 138.183 114.084C138.026 115.314 137.931 116.552 137.884 117.79L138.672 117.994V118.028L139.189 118.123L142.283 118.912C142.283 124.243 148.6 125.032 151.123 118.966C152.034 116.797 153.496 114.519 155.57 113.635C156.801 113.111 158.141 113.397 159.433 113.519C163.771 113.831 168.057 112.419 171.36 109.589C171.02 110.086 170.64 110.554 170.224 110.99C169.775 111.415 169.295 111.808 168.79 112.166C168.341 112.501 167.863 112.794 167.362 113.043C166.478 113.419 165.538 113.649 164.58 113.723C162.792 113.907 161.514 114.016 161.452 114.464C161.391 114.913 162.432 115.532 164.472 115.94C165.756 116.181 167.08 116.104 168.327 115.716C169.065 115.464 169.769 115.122 170.422 114.696C171.12 114.26 171.769 113.752 172.36 113.179C173.43 112.034 174.288 110.707 174.896 109.262C175.382 108.167 175.765 107.029 176.038 105.862C176.154 105.362 176.24 104.856 176.297 104.346C176.876 106.487 177.95 108.462 179.432 110.112C182.152 113.118 186.123 113.648 185.953 115.308C187.476 102.979 184.695 97.0224 174.665 92.9696Z"
        fill="#263238" />
    <path
        d="M186.034 113.601C186.052 113.725 186.052 113.851 186.034 113.975C186.034 114.226 186.034 114.587 185.966 115.056C185.898 115.994 185.769 117.354 185.552 119.02C184.981 123.371 184.157 127.685 183.083 131.94C182.535 134.297 181.824 136.612 180.955 138.87C180.242 140.721 179.276 142.465 178.085 144.051C177.275 145.118 176.31 146.058 175.222 146.839C174.93 147.053 174.625 147.25 174.311 147.431C174.204 147.497 174.093 147.556 173.978 147.608C173.978 147.574 174.4 147.302 175.141 146.73C176.169 145.913 177.084 144.961 177.861 143.902C179.006 142.314 179.935 140.58 180.622 138.747C181.47 136.497 182.17 134.194 182.716 131.852C183.96 126.881 184.797 122.332 185.28 118.993C185.524 117.334 185.694 115.988 185.803 115.049C185.858 114.614 185.905 114.26 185.939 113.975C185.953 113.846 185.985 113.72 186.034 113.601Z"
        fill="#EB996E" />
    <path
        d="M163.506 122.72C163.622 122.862 163.343 123.366 162.568 123.848C162.047 124.156 161.469 124.355 160.87 124.432C160.27 124.509 159.661 124.464 159.079 124.297C157.928 123.971 156.928 123.248 156.257 122.257C155.774 121.523 155.686 120.965 155.842 120.897C155.999 120.829 156.407 121.142 157.005 121.618C157.726 122.229 158.56 122.691 159.46 122.978C160.351 123.216 161.289 123.216 162.18 122.978C162.894 122.754 163.377 122.556 163.506 122.72Z"
        fill="#263238" />
    <path
        d="M179.819 126.385C179.921 126.534 179.642 126.963 178.949 127.344C178.007 127.827 176.924 127.955 175.896 127.704C174.873 127.463 173.964 126.88 173.318 126.052C172.856 125.412 172.768 124.916 172.924 124.814C173.257 124.583 174.406 125.902 176.222 126.324C178.038 126.745 179.602 126.045 179.819 126.385Z"
        fill="#263238" />
    <path
        d="M142.841 118.007C142.65 117.885 134.905 114.158 133.797 122.502C132.688 130.846 141.277 130.24 141.345 129.982C141.413 129.724 142.841 118.007 142.841 118.007Z"
        fill="#FFBE9D" />
    <path
        d="M139.21 126.48C139.21 126.48 139.053 126.568 138.795 126.643C138.614 126.696 138.425 126.712 138.239 126.691C138.052 126.67 137.871 126.612 137.707 126.521C136.864 126.086 136.306 124.583 136.469 123.073C136.539 122.351 136.771 121.653 137.149 121.033C137.262 120.783 137.435 120.563 137.652 120.394C137.868 120.224 138.123 120.11 138.394 120.061C138.567 120.039 138.742 120.078 138.889 120.173C139.036 120.267 139.145 120.411 139.196 120.578C139.278 120.822 139.196 120.986 139.244 121.006C139.291 121.026 139.441 120.89 139.42 120.537C139.401 120.323 139.31 120.121 139.162 119.966C139.06 119.864 138.939 119.783 138.806 119.729C138.673 119.674 138.531 119.646 138.387 119.646C138.035 119.667 137.695 119.779 137.399 119.971C137.104 120.163 136.863 120.428 136.7 120.741C136.247 121.415 135.967 122.19 135.884 122.998C135.714 124.685 136.367 126.398 137.523 126.888C137.739 126.983 137.973 127.027 138.209 127.019C138.444 127.011 138.675 126.95 138.883 126.84C139.169 126.704 139.237 126.521 139.21 126.48Z"
        fill="#EB996E" />
    <path d="M171.333 254.007L176.27 288.633L159.46 294.991L147.988 259.155L171.333 254.007Z"
        fill="#FFBE9D" />
    <path
        d="M146.601 216.505L155.604 222.027C160.269 224.883 168.45 230.071 169.47 235.443C173.4 256.108 178.894 283.723 178.894 283.723L153.129 291.203L144.398 250.58C144.398 250.58 95.0028 233.58 97.1992 209.27C97.8498 203.179 99.9864 197.342 103.421 192.27C103.421 192.27 102.83 196.928 106.461 203.728C110.276 210.875 113.873 211.99 121.326 213.064C126.997 213.887 138.122 212.112 141.923 214.023C145.724 215.934 146.601 216.505 146.601 216.505Z"
        fill="#263238" />
    <path
        d="M176.195 287.422L176.501 288.633C176.501 288.633 185.565 289.768 191.842 291.679C192.386 291.85 192.862 292.19 193.2 292.65C193.538 293.109 193.72 293.665 193.72 294.236C193.72 294.807 193.538 295.362 193.2 295.822C192.862 296.282 192.386 296.622 191.842 296.793L164.601 305.354C164.254 305.461 163.889 305.496 163.529 305.457C163.168 305.417 162.82 305.303 162.505 305.122C162.191 304.942 161.917 304.698 161.7 304.407C161.484 304.116 161.33 303.783 161.248 303.43L158.787 292.835C164.846 293.495 170.354 291.19 176.195 287.422Z"
        fill="#455A64" />
    <path
        d="M176.65 288.708C176.691 288.912 175.841 289.272 175.134 290.183C174.427 291.094 174.175 292.08 173.998 292.053C173.822 292.026 173.801 290.788 174.678 289.7C175.556 288.612 176.644 288.51 176.65 288.708Z"
        fill="#263238" />
    <path
        d="M180.826 289.306C180.914 289.483 180.241 290.061 179.846 291.094C179.452 292.128 179.5 293.073 179.323 293.134C179.146 293.196 178.765 292.087 179.275 290.816C179.785 289.544 180.778 289.116 180.826 289.306Z"
        fill="#263238" />
    <path
        d="M184.192 293.76C184.042 293.855 183.559 292.93 183.743 291.72C183.926 290.51 184.64 289.796 184.756 289.938C184.872 290.081 184.504 290.822 184.368 291.836C184.232 292.849 184.355 293.692 184.192 293.76Z"
        fill="#263238" />
    <path
        d="M193.718 294.08C193.618 294.135 193.51 294.176 193.399 294.202L192.46 294.488L188.992 295.48L177.548 298.772L166.138 302.172L162.676 303.198L161.731 303.464C161.623 303.501 161.511 303.526 161.398 303.538C161.398 303.538 161.5 303.477 161.711 303.396L162.636 303.069C163.445 302.79 164.614 302.389 166.036 301.934C168.932 300.995 172.958 299.744 177.419 298.438C181.88 297.133 185.946 296.018 188.897 295.249C190.373 294.862 191.563 294.569 192.392 294.358L193.351 294.141C193.47 294.101 193.594 294.08 193.718 294.08Z"
        fill="white" />
    <path
        d="M185.98 296.222C185.661 295.265 185.605 294.241 185.817 293.256C186.028 292.27 186.5 291.359 187.184 290.618C186.764 291.493 186.423 292.403 186.164 293.338C186.02 294.292 185.958 295.257 185.98 296.222Z"
        fill="white" />
    <path
        d="M168.422 301.43C168.375 301.464 168.096 301.009 167.511 300.397C166.762 299.593 165.844 298.966 164.824 298.56C163.803 298.155 162.705 297.981 161.609 298.051C160.766 298.098 160.249 298.241 160.249 298.187C160.666 297.953 161.131 297.821 161.609 297.799C162.761 297.655 163.93 297.805 165.009 298.234C166.065 298.665 166.999 299.35 167.729 300.227C168.043 300.574 168.28 300.984 168.422 301.43Z"
        fill="white" />
    <path
        d="M168.096 160.949L165.519 154.285C165.519 154.285 143.337 143.48 137.414 144.194C137.414 144.194 132.43 149.28 124.828 157.794C120.394 162.778 114.396 173.284 109.188 182.485L101.211 191.27C100.487 191.952 99.9351 192.796 99.5996 193.732C99.1304 195.486 100.212 197.227 100.994 198.873C102.245 201.525 102.762 204.462 103.836 207.196C104.91 209.93 106.774 212.595 109.568 213.493C111.874 214.227 114.424 213.629 116.79 214.173C119.272 214.744 121.353 216.526 123.842 217.083C128.098 218.049 132.62 215.274 136.802 216.505C138.958 217.144 140.944 218.81 143.154 218.43C145.466 218.028 146.771 215.594 147.669 213.418C149.38 209.273 150.875 205.042 152.15 200.743L165.825 174.08L168.096 160.949Z"
        fill="#455A64" />
    <path
        d="M142.8 176.8C142.774 176.939 142.73 177.073 142.671 177.201C142.548 177.494 142.406 177.881 142.222 178.33L140.515 182.41L134.762 195.935C132.491 201.205 130.478 205.999 128.806 209.372C127.969 211.065 127.242 212.398 126.711 213.309C126.446 213.765 126.235 214.118 126.079 214.35C126.012 214.473 125.932 214.589 125.841 214.696C125.882 214.562 125.941 214.434 126.018 214.316C126.167 214.037 126.358 213.683 126.589 213.241C127.078 212.316 127.779 210.963 128.574 209.263C130.193 205.863 132.165 201.062 134.443 195.792L140.284 182.315C141.032 180.628 141.644 179.248 142.093 178.235C142.304 177.786 142.467 177.419 142.603 177.133C142.663 177.019 142.729 176.908 142.8 176.8Z"
        fill="#263238" />
    <path
        d="M136.775 197.982C136.687 197.941 138.734 193.222 141.352 187.442C143.97 181.662 146.159 177.004 146.254 177.045C146.35 177.086 144.289 181.805 141.671 187.592C139.053 193.378 136.864 198.023 136.775 197.982Z"
        fill="#263238" />
    <path
        d="M125.004 189.604C124.928 189.841 124.827 190.068 124.705 190.284C124.397 190.915 124.054 191.528 123.678 192.12C121.197 196.08 117.666 199.274 113.478 201.348C112.854 201.665 112.212 201.944 111.554 202.184C111.318 202.294 111.069 202.371 110.813 202.416C110.813 202.354 111.812 201.96 113.363 201.124C117.421 198.951 120.882 195.812 123.44 191.984C124.44 190.55 124.943 189.57 125.004 189.604Z"
        fill="#263238" />
    <path
        d="M127.52 210.718C127.293 210.737 127.063 210.72 126.84 210.671C126.23 210.59 125.625 210.467 125.032 210.304C121.056 209.242 117.542 206.897 115.036 203.633C114.657 203.146 114.312 202.635 114.002 202.103C113.877 201.915 113.776 201.711 113.703 201.498C113.757 201.464 114.254 202.286 115.233 203.483C117.808 206.603 121.248 208.893 125.12 210.066C126.582 210.514 127.534 210.657 127.52 210.718Z"
        fill="white" />
    <path
        d="M132.926 208.794C132.838 208.842 132.484 208.114 131.621 207.828C131.094 207.686 130.543 207.654 130.002 207.733C130.002 207.699 130.132 207.55 130.451 207.448C130.876 207.333 131.325 207.351 131.739 207.501C132.153 207.651 132.51 207.924 132.763 208.284C132.94 208.57 132.967 208.76 132.926 208.794Z"
        fill="white" />
    <path
        d="M147.288 214.302C147.142 214.399 146.978 214.464 146.805 214.492C146.342 214.615 145.863 214.666 145.384 214.642C143.812 214.505 142.301 213.972 140.991 213.092C139.448 212.119 138.149 211.14 137.108 210.589C136.068 210.038 135.381 209.807 135.395 209.746C136.038 209.836 136.659 210.046 137.224 210.365C138.583 211.107 139.904 211.917 141.182 212.792C142.45 213.638 143.894 214.185 145.404 214.39C146.034 214.421 146.664 214.391 147.288 214.302Z"
        fill="white" />
    <path
        d="M133.545 196.357C132.267 195.067 130.802 193.975 129.2 193.12C127.548 192.368 125.792 191.87 123.991 191.644C124.527 191.553 125.074 191.553 125.61 191.644C128.232 191.989 130.665 193.197 132.525 195.078C132.936 195.443 133.282 195.875 133.545 196.357Z"
        fill="white" />
    <path
        d="M137.632 195.609C137.53 195.609 137.319 195.058 136.748 194.609C136.177 194.16 135.578 194.079 135.578 193.977C135.578 193.875 136.299 193.8 136.938 194.337C137.578 194.874 137.727 195.609 137.632 195.609Z"
        fill="white" />
    <path
        d="M151.422 201.396C150.729 201.206 150.059 200.941 149.423 200.607C147.852 199.876 146.334 199.035 144.881 198.091C143.434 197.146 142.056 196.099 140.76 194.956C140.195 194.511 139.682 194.005 139.23 193.446C139.818 193.852 140.382 194.292 140.916 194.766C141.95 195.588 143.405 196.69 145.098 197.792C146.792 198.893 148.383 199.777 149.552 200.382C150.194 200.684 150.819 201.023 151.422 201.396Z"
        fill="white" />
    <path
        d="M142.902 183.158C142.648 183.183 142.392 183.155 142.149 183.078C141.906 183.001 141.681 182.876 141.488 182.709C140.808 182.24 140.468 181.601 140.549 181.56C140.631 181.519 141.046 181.995 141.685 182.417C142.324 182.838 142.922 183.056 142.902 183.158Z"
        fill="white" />
    <path
        d="M158.44 186.884C157.715 186.87 156.992 186.784 156.284 186.626C154.559 186.316 152.858 185.889 151.191 185.348C149.524 184.805 147.897 184.146 146.322 183.376C145.654 183.087 145.018 182.729 144.425 182.308C145.123 182.545 145.804 182.827 146.465 183.151C147.689 183.682 149.396 184.375 151.334 185.008C153.272 185.64 155.06 186.089 156.366 186.368C157.068 186.496 157.76 186.668 158.44 186.884Z"
        fill="white" />
    <path
        d="M162.425 178.84C162.278 178.822 162.133 178.795 161.99 178.758L160.766 178.473C160.228 178.35 159.582 178.194 158.834 177.97C158.086 177.745 157.23 177.528 156.305 177.208C154.442 176.623 152.225 175.807 149.865 174.801C144.691 172.598 139.778 169.824 135.218 166.532C133.124 165.009 131.301 163.554 129.832 162.255C129.078 161.629 128.472 161.01 127.874 160.487C127.276 159.963 126.827 159.487 126.446 159.127L125.562 158.229C125.456 158.128 125.36 158.016 125.276 157.896C125.399 157.976 125.513 158.07 125.616 158.175L126.541 159.032C126.936 159.406 127.418 159.868 128.01 160.392C128.602 160.915 129.234 161.507 129.996 162.119C131.478 163.39 133.314 164.839 135.436 166.321C137.557 167.804 139.924 169.347 142.514 170.823C145.105 172.298 147.662 173.543 149.994 174.556C152.327 175.569 154.537 176.406 156.386 177.024C157.304 177.358 158.154 177.596 158.889 177.834C159.623 178.072 160.249 178.255 160.8 178.398L162.01 178.745C162.151 178.764 162.29 178.795 162.425 178.84Z"
        fill="white" />
    <path
        d="M142.902 153.775C141.229 153.094 139.602 152.304 138.033 151.409C136.405 150.617 134.831 149.72 133.321 148.723C134.997 149.403 136.626 150.196 138.196 151.096C139.822 151.884 141.394 152.779 142.902 153.775Z"
        fill="white" />
    <path
        d="M139.312 183.076C139.219 183.077 139.127 183.06 139.04 183.029C138.782 182.968 138.529 182.886 138.285 182.784C137.385 182.407 136.546 181.898 135.796 181.274C133.838 179.758 131.804 176.997 128.704 174.93C126.074 173.172 123.28 171.673 120.36 170.456L117.708 169.306C117.375 169.181 117.055 169.026 116.749 168.844C117.096 168.925 117.435 169.037 117.762 169.177C118.402 169.415 119.326 169.762 120.482 170.224C123.459 171.386 126.3 172.868 128.955 174.644C132.104 176.739 134.13 179.554 136.007 181.077C136.985 181.929 138.103 182.605 139.312 183.076Z"
        fill="white" />
    <path
        d="M122.271 193.304C122.064 193.217 121.872 193.1 121.7 192.957C121.339 192.719 120.829 192.352 120.217 191.882C118.619 190.657 117.091 189.343 115.641 187.945C114.201 186.545 112.839 185.068 111.561 183.518C111.071 182.92 110.684 182.424 110.432 182.077C110.29 181.902 110.167 181.713 110.065 181.512C110.662 182.093 111.225 182.709 111.751 183.355C112.778 184.504 114.22 186.075 115.913 187.687C117.606 189.298 119.204 190.706 120.394 191.685C121.048 192.191 121.675 192.731 122.271 193.304Z"
        fill="white" />
    <path
        d="M109.65 201.409C109.65 201.409 109.473 201.334 109.181 201.144C108.772 200.873 108.382 200.575 108.011 200.253C106.772 199.2 105.685 197.98 104.781 196.629C103.879 195.279 103.166 193.813 102.66 192.27C102.505 191.802 102.38 191.325 102.286 190.842C102.218 190.502 102.19 190.312 102.218 190.305C102.245 190.298 102.462 191.032 102.898 192.182C104.018 195.186 105.825 197.887 108.174 200.07C109.072 200.906 109.691 201.362 109.65 201.409Z"
        fill="white" />
    <path
        d="M213.459 164.2L200.206 173.72C200.206 173.72 190.76 180.88 184.232 180.2C175.29 179.289 155.604 173.781 155.604 173.781C155.604 173.781 148.92 172.224 144.84 168.3C141.066 164.696 139.828 152.408 147.689 150.804C155.55 149.199 162.527 154.163 168.803 156.176C173.305 157.617 186.429 162.846 186.429 162.846L204.87 156.386"
        fill="#FFBE9D" />
    <path
        d="M204.85 156.4C204.85 156.4 206.89 149.967 206.972 149.376C207.053 148.784 208.094 147.023 209.012 147.172C209.93 147.322 211.575 147.111 211.793 149.389L217.688 149.845C217.688 149.845 218.878 151.436 218.742 152.844C219.371 153.811 219.805 154.892 220.021 156.026C220.215 157.258 220.518 158.471 220.925 159.65C221.292 159.968 221.53 160.408 221.597 160.888C221.663 161.369 221.552 161.857 221.286 162.262C220.32 163.724 217.886 164.22 217.886 164.22L212.493 164.716L198.676 175.012"
        fill="#FFBE9D" />
    <path
        d="M198.648 174.998C198.72 174.917 198.802 174.846 198.893 174.787L199.628 174.209L202.429 172.06L212.371 164.58H212.405H212.452L217.845 164.077C218.919 163.854 219.918 163.36 220.748 162.642C221.144 162.275 221.386 161.773 221.428 161.235C221.419 160.962 221.354 160.694 221.237 160.447C221.121 160.2 220.954 159.98 220.748 159.8H220.708V159.759C220.646 159.562 220.572 159.344 220.504 159.127C220.158 158.066 219.912 156.976 219.769 155.87C219.538 154.845 219.123 153.87 218.545 152.993V152.939V152.878C218.532 151.834 218.176 150.823 217.532 150.001L217.654 150.062L211.759 149.593H211.63V149.464C211.606 148.958 211.428 148.472 211.12 148.07C210.783 147.727 210.334 147.517 209.855 147.478C209.617 147.438 209.372 147.424 209.127 147.39C209.019 147.374 208.909 147.374 208.801 147.39C208.7 147.406 208.603 147.44 208.515 147.492C208.147 147.727 207.838 148.044 207.611 148.417C207.37 148.754 207.192 149.131 207.087 149.532C206.985 149.947 206.863 150.321 206.754 150.688L206.128 152.728L205.224 155.53C205.115 155.829 205.034 156.074 204.966 156.264C204.898 156.454 204.877 156.509 204.864 156.509C204.875 156.421 204.895 156.334 204.925 156.25C204.979 156.053 205.047 155.808 205.136 155.502C205.333 154.822 205.612 153.87 205.965 152.674L206.55 150.634C206.652 150.273 206.768 149.879 206.863 149.491C206.968 149.061 207.15 148.653 207.4 148.288C207.646 147.877 207.984 147.528 208.386 147.268C208.504 147.2 208.633 147.154 208.767 147.132C208.898 147.114 209.03 147.114 209.161 147.132C209.392 147.132 209.644 147.172 209.896 147.213C210.443 147.258 210.955 147.499 211.337 147.893C211.69 148.339 211.896 148.883 211.929 149.45L211.786 149.314L217.688 149.75H217.77L217.811 149.811C218.129 150.257 218.394 150.738 218.6 151.246C218.826 151.775 218.929 152.35 218.899 152.925V152.816C219.503 153.733 219.937 154.751 220.177 155.822C220.317 156.913 220.56 157.987 220.905 159.032L221.102 159.657L221.054 159.582C221.295 159.799 221.488 160.063 221.622 160.358C221.755 160.653 221.826 160.972 221.83 161.296C221.776 161.928 221.484 162.516 221.014 162.942C220.135 163.705 219.074 164.227 217.933 164.458L212.541 164.941L212.622 164.907L202.606 172.298C201.396 173.169 200.437 173.869 199.75 174.372L198.982 174.91C198.874 174.951 198.762 174.981 198.648 174.998Z"
        fill="#EB996E" />
    <path
        d="M190.053 173.767C189.25 174.802 188.069 175.477 186.769 175.644C185.469 175.811 184.156 175.456 183.117 174.658"
        fill="#FFBE9D" />
    <path
        d="M183.117 174.658C183.117 174.61 183.505 174.869 184.137 175.12C184.961 175.461 185.859 175.581 186.742 175.467C187.626 175.354 188.465 175.012 189.176 174.474C189.734 174.073 190.006 173.733 190.053 173.794C190.101 173.856 189.876 174.216 189.332 174.699C188.619 175.329 187.732 175.73 186.788 175.852C185.844 175.973 184.885 175.808 184.035 175.379C183.669 175.227 183.352 174.978 183.117 174.658Z"
        fill="#EB996E" />
    <path
        d="M120.136 221.034C119.862 220.755 119.51 220.566 119.126 220.491C118.743 220.415 118.346 220.458 117.987 220.612C116.627 221.102 112.996 220.17 111.969 221.102C110.758 222.19 110.507 223.863 110.609 226.222C110.711 228.582 106.869 230.724 106.869 230.724L114.226 243.794L118.395 243.277L146.275 232.92C146.275 232.92 149.913 228.276 145.01 228.704C143.333 228.979 141.673 229.351 140.039 229.82C140.039 229.82 146.037 225.454 146.316 223.57C146.669 221.252 144.67 220.633 141.644 221.802C139.053 222.802 137.782 223.217 137.782 223.217C137.782 223.217 140.549 219.96 139.57 218.899C138.591 217.838 138.026 216.702 134.198 218.899C130.37 221.095 122.244 225.332 121.346 226.379C120.071 227.59 118.707 228.703 117.266 229.711L117.055 227.256C117.055 227.256 120.115 226.522 120.591 224.679C121.305 221.911 120.136 221.034 120.136 221.034Z"
        fill="#FFBE9D" />
    <path
        d="M172.815 255.211C172.815 255.211 170.02 262.786 138.482 261.528C131.118 261.229 106.604 260.658 106.604 260.658C104.339 258.355 103.036 255.277 102.959 252.049C102.959 248.941 102.775 243.1 102.626 238.898C102.571 237.356 102.872 235.822 103.506 234.416C104.139 233.009 105.087 231.767 106.277 230.785L106.876 230.296L114.165 242.923L118.34 242.406C118.34 242.406 153.306 230.69 159.045 228.344L168.858 206.638L172.815 255.211Z"
        fill="#FFBE9D" />
    <path
        d="M172.815 255.211C172.815 255.211 172.815 254.912 172.727 254.334C172.638 253.756 172.598 252.885 172.496 251.77C172.298 249.512 172.02 246.208 171.659 241.992C170.979 233.532 169.946 221.401 168.715 206.632L168.994 206.679C166.022 213.255 162.71 220.585 159.195 228.392V228.453H159.134C152.939 230.826 146.35 233.029 139.543 235.382L118.422 242.529H118.388L116.593 242.753L114.22 243.046H114.097L114.043 242.944L106.719 230.384L106.984 230.432C105.838 231.278 104.872 232.343 104.142 233.566C103.433 234.776 102.993 236.123 102.85 237.517C102.788 238.209 102.776 238.904 102.816 239.598L102.864 241.692C102.904 243.08 102.941 244.458 102.972 245.827C102.972 247.187 103.034 248.547 103.068 249.907C103.068 250.587 103.102 251.267 103.122 251.913V252.899C103.122 253.225 103.204 253.545 103.238 253.864C103.685 256.392 104.887 258.724 106.685 260.556L106.576 260.515L134.076 261.29L140.046 261.46C141.97 261.46 143.834 261.596 145.615 261.555C147.397 261.514 149.124 261.555 150.763 261.446L153.163 261.338L155.448 261.147C158.092 260.926 160.72 260.54 163.316 259.991C165.239 259.567 167.117 258.961 168.926 258.182C170.048 257.692 171.086 257.026 171.999 256.21C172.318 255.935 172.583 255.603 172.781 255.231C172.783 255.256 172.783 255.281 172.781 255.306L172.666 255.517C172.491 255.783 172.288 256.029 172.06 256.251C171.156 257.09 170.123 257.779 169 258.291C167.189 259.087 165.306 259.708 163.377 260.148C160.778 260.718 158.146 261.12 155.496 261.351L153.204 261.555L150.797 261.671C149.158 261.78 147.438 261.773 145.649 261.8C143.861 261.827 141.998 261.752 140.066 261.725L134.089 261.576L106.597 260.848H106.529L106.488 260.807C104.638 258.926 103.401 256.53 102.938 253.932C102.898 253.599 102.843 253.252 102.823 252.933L102.782 251.926C102.782 251.246 102.782 250.566 102.728 249.927C102.691 248.567 102.657 247.207 102.626 245.847C102.592 244.487 102.551 243.127 102.517 241.713C102.517 241.033 102.483 240.353 102.462 239.625C102.426 238.916 102.438 238.205 102.496 237.497C102.655 236.056 103.118 234.665 103.856 233.417C104.607 232.159 105.598 231.061 106.774 230.187L106.937 230.064L107.039 230.234C109.419 234.36 111.851 238.569 114.335 242.862L114.158 242.78L116.538 242.481L118.334 242.257H118.32L139.4 235.096C146.2 232.744 152.81 230.54 158.984 228.194L158.896 228.276C162.432 220.483 165.75 213.153 168.728 206.577L168.96 206.074L169 206.625C170.177 221.388 171.149 233.539 171.822 241.985C172.149 246.201 172.407 249.506 172.577 251.756C172.659 252.878 172.727 253.728 172.768 254.32C172.808 254.912 172.815 255.211 172.815 255.211Z"
        fill="#EB996E" />
    <path
        d="M177.657 190.169L156.121 223.802C156.121 223.802 153.551 222.897 151.524 226.08C150.545 227.61 151.191 230.03 151.191 230.03L171.455 258.114C172.394 259.449 173.775 260.408 175.353 260.822C176.932 261.235 178.605 261.076 180.078 260.372C180.976 259.916 181.754 259.256 182.351 258.445C182.947 257.634 183.345 256.694 183.512 255.7L212.84 214.941"
        fill="#92E3A9" />
    <path
        d="M212.84 214.941L212.711 215.145L212.303 215.73L210.712 217.994C209.297 219.973 207.257 222.85 204.687 226.46L183.675 255.802V255.741C183.474 256.713 183.086 257.637 182.532 258.461C181.952 259.297 181.174 259.977 180.268 260.44C179.334 260.923 178.301 261.185 177.249 261.206C176.198 261.227 175.156 261.007 174.202 260.562C173.226 260.111 172.361 259.452 171.666 258.631C170.986 257.788 170.408 256.918 169.776 256.054L165.974 250.798L151.055 230.098C150.847 229.277 150.789 228.424 150.885 227.582C150.931 227.162 151.044 226.751 151.218 226.365C151.409 225.998 151.637 225.652 151.898 225.332C152.405 224.689 153.061 224.18 153.809 223.849C154.562 223.531 155.4 223.474 156.189 223.686L156.006 223.747L171.646 199.43C173.55 196.5 175.046 194.188 176.072 192.596L177.256 190.801L177.562 190.346C177.593 190.292 177.629 190.242 177.67 190.196C177.65 190.255 177.62 190.31 177.582 190.359L177.296 190.828L176.12 192.624L171.768 199.505L156.237 223.89L156.176 223.985L156.053 223.951C155.336 223.77 154.579 223.827 153.898 224.114C153.199 224.427 152.588 224.906 152.116 225.508C150.994 226.658 150.974 228.426 151.334 229.983V229.928L166.294 250.614L170.088 255.877C170.714 256.734 171.319 257.632 171.958 258.434C172.625 259.214 173.45 259.842 174.379 260.277C175.283 260.698 176.271 260.908 177.268 260.889C178.265 260.87 179.245 260.623 180.132 260.168C180.991 259.722 181.729 259.073 182.281 258.278C182.813 257.487 183.185 256.6 183.376 255.666V255.632L204.456 226.392L210.576 217.988L212.208 215.75L212.636 215.179C212.699 215.095 212.767 215.016 212.84 214.941Z"
        fill="#263238" />
    <path
        d="M181.628 252.076C181.533 251.992 181.446 251.899 181.37 251.797L180.69 250.954L178.16 247.833C176.011 245.208 172.992 241.618 169.517 237.776C166.042 233.934 162.717 230.581 160.344 228.181L157.488 225.345L156.72 224.57C156.626 224.484 156.542 224.388 156.468 224.284C156.468 224.284 156.577 224.352 156.767 224.516L157.583 225.25C158.263 225.882 159.297 226.828 160.521 228.004C162.976 230.357 166.287 233.689 169.776 237.524C173.264 241.359 176.256 245.004 178.357 247.663C179.411 249.023 180.248 250.09 180.812 250.859L181.458 251.743C181.529 251.846 181.586 251.958 181.628 252.076Z"
        fill="#263238" />
    <path
        d="M180.288 248.608C180.104 248.402 179.946 248.174 179.819 247.928L178.65 245.983C177.65 244.338 176.236 242.1 174.57 239.7C172.904 237.3 171.265 235.205 170.061 233.709L168.626 231.941C168.439 231.732 168.272 231.504 168.13 231.261C168.353 231.433 168.556 231.629 168.735 231.846C169.102 232.234 169.626 232.812 170.252 233.539C171.51 235.001 173.169 237.082 174.862 239.489C176.555 241.896 177.936 244.168 178.874 245.847C179.35 246.684 179.717 247.37 179.955 247.887C180.091 248.115 180.203 248.357 180.288 248.608Z"
        fill="#263238" />
    <path
        d="M119 226.528C118.288 226.972 117.469 227.213 116.63 227.227C115.792 227.24 114.965 227.024 114.24 226.603C115.026 226.732 115.818 226.82 116.613 226.868C117.912 226.855 118.925 226.44 119 226.528Z"
        fill="#EB996E" />
    <path
        d="M137.897 222.754C137.503 223.239 137.058 223.681 136.571 224.074C135.714 224.849 134.49 225.882 133.083 226.936C131.675 227.99 130.363 228.881 129.35 229.486C128.835 229.841 128.283 230.14 127.704 230.377C128.179 229.972 128.683 229.604 129.214 229.276C130.159 228.596 131.464 227.705 132.865 226.651C134.266 225.597 135.517 224.611 136.408 223.883C136.871 223.465 137.369 223.087 137.897 222.754Z"
        fill="#EB996E" />
    <path
        d="M140.638 229.337C140.485 229.497 140.311 229.637 140.121 229.752C139.781 230.003 139.271 230.35 138.638 230.772C137.374 231.615 135.599 232.737 133.6 233.913C131.6 235.09 129.758 236.096 128.404 236.796C127.724 237.143 127.18 237.422 126.8 237.599C126.606 237.711 126.398 237.796 126.181 237.85C126.854 237.38 127.559 236.955 128.289 236.579L133.416 233.607L138.502 230.561C139.186 230.105 139.899 229.696 140.638 229.337Z"
        fill="#EB996E" />
</svg>
