<svg width="340" height="227" viewBox="0 0 340 227" fill="none" xmlns="http://www.w3.org/2000/svg">
    <path
        d="M309.341 137.913L303.393 138.04L300.374 138.09C299.363 138.113 298.348 138.09 297.337 138.117H297.137V137.913L297.11 132.827V132.6H297.337L303.339 132.627C305.343 132.627 307.342 132.677 309.341 132.7H309.468V132.827C309.468 133.688 309.432 134.545 309.409 135.393L309.341 137.913ZM309.341 137.913L309.278 135.352C309.255 134.509 309.228 133.674 309.219 132.84L309.341 132.967C307.342 132.99 305.343 133.04 303.339 133.04L297.337 133.067L297.563 132.84V137.913L297.359 137.714C298.348 137.714 299.336 137.714 300.329 137.736L303.28 137.813L309.341 137.913Z"
        fill="#EBEBEB" />
    <path
        d="M302.645 144.31L296.698 144.437L293.674 144.486C292.668 144.486 291.652 144.486 290.641 144.514H290.442V144.31V139.237V139.01H290.668L296.67 139.042C298.67 139.042 300.673 139.092 302.673 139.114H302.8V139.237C302.8 140.098 302.763 140.955 302.741 141.803L302.645 144.31ZM302.645 144.31L302.582 141.748C302.559 140.905 302.532 140.071 302.523 139.237L302.645 139.364C300.646 139.386 298.642 139.436 296.643 139.436L290.641 139.463L290.868 139.237V144.31L290.664 144.11C291.652 144.11 292.64 144.11 293.633 144.133L296.612 144.187L302.645 144.31Z"
        fill="#EBEBEB" />
    <path
        d="M316.037 144.31L310.089 144.437L307.07 144.486C306.059 144.486 305.044 144.486 304.033 144.514H303.833V144.31L303.806 139.237V139.01H304.033L310.035 139.042C312.038 139.042 314.038 139.092 316.037 139.114H316.164V139.237C316.164 140.098 316.123 140.955 316.105 141.803L316.037 144.31ZM316.037 144.31L315.973 141.748C315.973 140.905 315.924 140.071 315.914 139.237L316.037 139.364C314.038 139.386 312.038 139.436 310.035 139.436L304.033 139.463L304.259 139.237V144.31L304.055 144.11C305.048 144.11 306.032 144.11 307.025 144.133L310.008 144.187L316.037 144.31Z"
        fill="#EBEBEB" />
    <path
        d="M158.608 52.623L152.66 52.7499L149.641 52.7998C148.63 52.7998 147.614 52.7998 146.603 52.827H146.427V52.623L146.399 47.5502V47.3235H146.626L152.628 47.3552C154.632 47.3552 156.631 47.4051 158.63 47.4278H158.757V47.5502C158.757 48.4115 158.716 49.2683 158.698 50.116L158.608 52.623ZM158.608 52.623L158.544 50.0616C158.544 49.2184 158.494 48.3798 158.485 47.5502L158.608 47.6771C156.608 47.6771 154.609 47.7451 152.606 47.7496L146.603 47.7768L146.83 47.5502L146.807 52.623L146.603 52.4235C147.592 52.4235 148.58 52.4235 149.573 52.4235L152.556 52.4734L158.608 52.623Z"
        fill="#EBEBEB" />
    <path
        d="M151.912 59.0194L145.964 59.1464L142.945 59.1962C141.934 59.1962 140.919 59.1962 139.908 59.2234H139.708V59.0194L139.681 53.9466V53.72H139.908L145.91 53.7517C147.914 53.7517 149.913 53.8016 151.912 53.8242H152.039V53.9466C152.039 54.808 152.003 55.6648 151.98 56.5125L151.912 59.0194ZM151.912 59.0194L151.848 56.4581C151.848 55.6149 151.799 54.7762 151.79 53.9466L151.912 54.0736C149.913 54.0736 147.914 54.1416 145.91 54.1461L139.908 54.1733L140.134 53.9466L140.112 59.0194L139.908 58.82C140.896 58.82 141.884 58.82 142.877 58.8426L145.86 58.8925L151.912 59.0194Z"
        fill="#EBEBEB" />
    <path
        d="M165.308 59.0194L159.356 59.1464L156.336 59.1962C155.326 59.1962 154.315 59.1962 153.299 59.2234H153.1V59.0194L153.077 53.9466V53.72H153.304L159.31 53.7517C161.31 53.7517 163.309 53.8016 165.312 53.8242H165.435V53.9466C165.435 54.808 165.394 55.6648 165.376 56.5125L165.308 59.0194ZM165.308 59.0194L165.24 56.4581C165.24 55.6149 165.19 54.7762 165.181 53.9466L165.308 54.0736C163.304 54.0736 161.305 54.1416 159.306 54.1461L153.299 54.1733L153.526 53.9466L153.503 59.0194L153.299 58.82C154.292 58.82 155.276 58.82 156.268 58.8426L159.251 58.8925L165.308 59.0194Z"
        fill="#EBEBEB" />
    <path
        d="M71.6266 105.114L65.6743 105.241L62.6551 105.291C61.6487 105.314 60.6333 105.291 59.6223 105.314H59.4229V105.11V100.037V99.8104H59.6495L65.6517 99.8376C67.6509 99.8376 69.6546 99.8875 71.6538 99.9147H71.7762V100.037C71.7762 100.898 71.7399 101.755 71.7172 102.598L71.6266 105.114ZM71.6266 105.114L71.5631 102.549C71.5631 101.705 71.5132 100.871 71.5042 100.042L71.6266 100.164C69.6274 100.187 67.6236 100.237 65.6244 100.241L59.6223 100.268L59.849 100.042L59.8399 105.114L59.6404 104.91C60.6287 104.91 61.617 104.91 62.6053 104.938L65.5882 104.987L71.6266 105.114Z"
        fill="#EBEBEB" />
    <path
        d="M309.214 28.279L303.28 28.4059L300.261 28.4558C299.254 28.4558 298.239 28.4558 297.228 28.483H297.024V28.279V23.2062V22.9795H297.251L303.253 23.0067C305.252 23.0067 307.251 23.0611 309.255 23.0838H309.377V23.2062C309.377 24.0675 309.336 24.9243 309.318 25.7675L309.214 28.279ZM309.214 28.279L309.173 25.7176C309.151 24.8699 309.119 24.0358 309.11 23.2062L309.237 23.3286C307.233 23.3286 305.234 23.4011 303.235 23.4056L297.232 23.4328L297.459 23.2062L297.432 28.279L297.232 28.075C298.221 28.075 299.209 28.075 300.197 28.1022L303.18 28.152L309.214 28.279Z"
        fill="#EBEBEB" />
    <path
        d="M315.91 34.6755L309.958 34.8024L306.938 34.8523C305.932 34.8749 304.916 34.8523 303.906 34.8749H303.706V34.6709V29.5981V29.3715H303.933L309.935 29.3987C311.934 29.3987 313.938 29.4531 315.937 29.4757H316.064V29.5981C316.064 30.4595 316.028 31.3163 316.005 32.1595L315.91 34.6755ZM315.91 34.6755L315.846 32.1141C315.824 31.2664 315.796 30.4323 315.787 29.6027L315.91 29.7251C313.911 29.7477 311.907 29.7976 309.908 29.8021L303.906 29.8293L304.132 29.6027L304.105 34.6755L303.906 34.4715C304.894 34.4715 305.882 34.4715 306.87 34.4987L309.853 34.5485L315.91 34.6755Z"
        fill="#EBEBEB" />
    <path
        d="M35.9674 161.677L30.0152 161.804L26.996 161.858C25.9896 161.858 24.9741 161.858 23.9632 161.858H23.7592V161.654V156.586V156.4H23.9904H29.9653C31.9645 156.4 33.9637 156.45 35.9674 156.473H36.0898V156.595C36.0898 157.452 36.049 158.309 36.0309 159.156L35.9674 161.677ZM35.9674 161.677L35.8994 159.12C35.8994 158.277 35.8496 157.443 35.8405 156.613L35.9674 156.735C33.9637 156.735 31.9645 156.808 29.9653 156.808L23.9632 156.853L24.1898 156.631L24.1626 161.699L23.9632 161.5C24.9514 161.5 25.9352 161.5 26.928 161.523L29.9109 161.577L35.9674 161.677Z"
        fill="#EBEBEB" />
    <path
        d="M42.6632 168.073L36.72 168.187L33.7007 168.241C32.6943 168.241 31.6789 168.241 30.668 168.264H30.4639V168.06L30.4413 162.987V162.76H30.668L36.6701 162.787C38.6693 162.787 40.673 162.837 42.6722 162.86H42.7946V162.978C42.7946 163.839 42.7583 164.696 42.7357 165.544L42.6632 168.073ZM42.6632 168.073L42.6133 165.512C42.6133 164.669 42.5589 163.835 42.5544 163.001L42.6768 163.127C40.6776 163.15 38.6738 163.2 36.6746 163.2L30.6725 163.227L30.8992 163.001L30.8719 168.073L30.6725 167.874C31.6608 167.874 32.649 167.874 33.6373 167.897L36.6202 167.951L42.6632 168.073Z"
        fill="#EBEBEB" />
    <path
        d="M35.9674 28.2835L30.0152 28.4104L26.996 28.4603C25.9896 28.4603 24.9741 28.4603 23.9632 28.4875H23.7592V28.2835V23.2107V22.984H23.9904L29.9925 23.0157C31.9917 23.0157 33.9909 23.0656 35.9946 23.0883H36.117V23.2107C36.117 24.072 36.0762 24.9288 36.0581 25.7765L35.9674 28.2835ZM35.9674 28.2835L35.8994 25.7221C35.8994 24.8744 35.8496 24.0403 35.8405 23.2107L35.9674 23.3331C33.9637 23.3603 31.9645 23.4056 29.9653 23.4101L23.9632 23.4373L24.1898 23.2107L24.1626 28.2835L23.9632 28.1067C24.9514 28.1067 25.9352 28.1067 26.928 28.1067L29.9109 28.1565L35.9674 28.2835Z"
        fill="#EBEBEB" />
    <path
        d="M30.9172 117.867C31.1298 117.738 31.3736 117.67 31.6222 117.67C31.8707 117.67 32.1145 117.738 32.3271 117.867C32.445 117.939 32.5628 118.007 32.6852 118.071C32.8076 118.134 32.9346 118.202 33.0615 118.261C33.2859 118.366 33.4775 118.529 33.6157 118.735C33.7539 118.94 33.8334 119.179 33.8458 119.426L33.9002 121.158L39.5487 120.986L39.4943 119.249C39.4908 119.001 39.5552 118.757 39.6807 118.543C39.8062 118.328 39.9878 118.153 40.206 118.034C40.4508 117.898 40.6911 117.749 40.9223 117.581C41.1255 117.44 41.3633 117.357 41.6101 117.341C41.8569 117.325 42.1034 117.377 42.3231 117.49L43.8463 118.32L46.5164 113.333L44.9932 112.513C44.7767 112.393 44.5969 112.217 44.4731 112.003C44.3493 111.789 44.2862 111.545 44.2906 111.298C44.2996 111.017 44.2905 110.735 44.2634 110.455C44.2453 110.211 44.293 109.968 44.4014 109.749C44.5099 109.531 44.6752 109.345 44.8799 109.213L46.3532 108.306L43.3839 103.496L41.9015 104.403C41.6895 104.531 41.4465 104.598 41.1988 104.598C40.9512 104.598 40.7082 104.531 40.4962 104.403L40.138 104.194L39.7663 104.008C39.5428 103.903 39.3521 103.739 39.2147 103.534C39.0774 103.329 38.9985 103.09 38.9866 102.843L38.9231 101.093L33.2791 101.27L33.3335 102.997C33.3421 103.247 33.282 103.494 33.1597 103.711C33.0373 103.929 32.8575 104.108 32.6399 104.23C32.392 104.369 32.1515 104.52 31.9191 104.684C31.7159 104.825 31.4781 104.908 31.2313 104.924C30.9845 104.94 30.738 104.888 30.5183 104.774L28.9906 103.958L26.3204 108.945L27.8436 109.761C28.0608 109.881 28.2411 110.058 28.365 110.273C28.4888 110.488 28.5515 110.733 28.5463 110.981C28.5463 111.262 28.5554 111.543 28.5735 111.824C28.5949 112.072 28.5479 112.321 28.4376 112.544C28.3273 112.767 28.1579 112.955 27.9479 113.089L26.4791 113.995L29.4666 118.773L30.9172 117.867ZM32.3316 108.945C32.7644 108.139 33.4264 107.479 34.2342 107.048C35.042 106.618 35.9592 106.437 36.8698 106.528C37.7805 106.619 38.6438 106.978 39.3506 107.559C40.0574 108.141 40.5759 108.918 40.8407 109.794C41.1055 110.671 41.1046 111.605 40.8382 112.481C40.5717 113.357 40.0517 114.133 39.3439 114.714C38.636 115.294 37.772 115.651 36.8612 115.74C35.9504 115.829 35.0335 115.646 34.2266 115.215C33.1475 114.633 32.3425 113.649 31.9874 112.475C31.6323 111.302 31.7561 110.036 32.3316 108.954V108.945Z"
        fill="#EBEBEB" />
    <path
        d="M250.349 45.4331C250.498 45.5221 250.62 45.6513 250.7 45.8059C250.78 45.9605 250.816 46.1344 250.802 46.308C250.802 46.4032 250.802 46.4984 250.802 46.5981C250.802 46.6979 250.802 46.7931 250.802 46.8928C250.814 47.0656 250.778 47.2383 250.698 47.392C250.618 47.5456 250.497 47.6741 250.349 47.7632L249.297 48.3707L251.274 51.7979L252.325 51.1904C252.477 51.1048 252.65 51.063 252.825 51.0694C252.999 51.0758 253.168 51.1302 253.314 51.2267C253.478 51.3336 253.647 51.4319 253.821 51.5213C253.977 51.5989 254.107 51.7178 254.199 51.865C254.291 52.0122 254.341 52.1819 254.343 52.3555V53.5704H258.3V52.3555C258.302 52.1819 258.352 52.0122 258.444 51.865C258.536 51.7178 258.666 51.5989 258.822 51.5213C258.997 51.4319 259.168 51.3336 259.334 51.2267C259.478 51.1301 259.647 51.0756 259.821 51.0692C259.994 51.0628 260.166 51.1047 260.318 51.1904L261.369 51.7979L263.35 48.3707L262.294 47.7587C262.146 47.6695 262.025 47.5411 261.945 47.3874C261.865 47.2338 261.829 47.061 261.841 46.8883C261.841 46.7931 261.841 46.6933 261.841 46.5981C261.841 46.5029 261.841 46.4032 261.841 46.308C261.828 46.1345 261.864 45.961 261.944 45.8066C262.024 45.6522 262.145 45.5229 262.294 45.4331L263.35 44.8256L261.369 41.3984L260.322 42.0059C260.17 42.0914 259.997 42.1333 259.823 42.1269C259.649 42.1205 259.479 42.0661 259.334 41.9696C259.171 41.8653 258.998 41.7656 258.822 41.6749C258.666 41.597 258.534 41.4773 258.442 41.3293C258.35 41.1812 258.301 41.0106 258.3 40.8363V39.6259H254.343V40.8363C254.342 41.0106 254.293 41.1812 254.201 41.3293C254.109 41.4773 253.977 41.597 253.821 41.6749C253.645 41.7656 253.472 41.8653 253.309 41.9696C253.164 42.0661 252.994 42.1205 252.82 42.1269C252.646 42.1333 252.473 42.0914 252.321 42.0059L251.274 41.3984L249.297 44.8256L250.349 45.4331ZM256.324 43.3523C256.966 43.3514 257.594 43.541 258.128 43.8971C258.663 44.2532 259.079 44.7598 259.326 45.3528C259.572 45.9459 259.637 46.5986 259.512 47.2286C259.388 47.8585 259.079 48.4373 258.625 48.8917C258.171 49.3461 257.593 49.6557 256.963 49.7813C256.333 49.9069 255.681 49.8429 255.087 49.5973C254.494 49.3518 253.987 48.9358 253.63 48.4019C253.273 47.868 253.082 47.2403 253.082 46.5981C253.084 45.7384 253.425 44.9142 254.033 44.3059C254.64 43.6975 255.464 43.3546 256.324 43.3523Z"
        fill="#EBEBEB" />
    <path
        d="M279.194 44.7213C279.194 47.7698 280.098 50.7498 281.792 53.2845C283.486 55.8192 285.893 57.7948 288.709 58.9614C291.526 60.128 294.625 60.4332 297.615 59.8385C300.605 59.2438 303.351 57.7758 305.507 55.6202C307.662 53.4646 309.13 50.7182 309.725 47.7283C310.32 44.7384 310.014 41.6393 308.848 38.8229C307.681 36.0065 305.706 33.5992 303.171 31.9056C300.636 30.212 297.656 29.308 294.608 29.308C290.52 29.308 286.599 30.9319 283.709 33.8224C280.818 36.713 279.194 40.6334 279.194 44.7213ZM287.409 44.7213C287.408 43.2962 287.83 41.9029 288.621 40.7176C289.412 39.5323 290.537 38.6083 291.853 38.0625C293.17 37.5167 294.619 37.3737 296.016 37.6515C297.414 37.9293 298.698 38.6155 299.706 39.6232C300.714 40.6309 301.4 41.9148 301.677 43.3126C301.955 44.7103 301.812 46.1591 301.266 47.4755C300.721 48.792 299.797 49.917 298.611 50.7081C297.426 51.4993 296.033 51.9211 294.608 51.9202C292.7 51.9178 290.87 51.1585 289.522 49.8088C288.173 48.4591 287.414 46.6294 287.413 44.7213H287.409Z"
        fill="#EBEBEB" />
    <path d="M291.647 29.9427H297.573L297.246 25.7494H291.974L291.647 29.9427Z" fill="#EBEBEB" />
    <path d="M302.931 31.9419L307.12 36.1352L309.858 32.9347L306.127 29.2037L302.931 31.9419Z"
        fill="#EBEBEB" />
    <path d="M309.495 41.335V47.26L313.693 46.9336V41.6614L309.495 41.335Z" fill="#EBEBEB" />
    <path d="M307.5 52.6184L303.307 56.8072L306.508 59.5453L310.234 55.8144L307.5 52.6184Z"
        fill="#EBEBEB" />
    <path d="M298.107 59.1827H292.178L292.509 63.3806H297.781L298.107 59.1827Z" fill="#EBEBEB" />
    <path d="M286.824 57.1881L282.631 52.9948L279.897 56.1953L283.623 59.9217L286.824 57.1881Z"
        fill="#EBEBEB" />
    <path d="M280.255 47.795V41.8654L276.062 42.1963V47.4686L280.255 47.795Z" fill="#EBEBEB" />
    <path d="M282.254 36.5115L286.448 32.3182L283.247 29.5846L279.521 33.311L282.254 36.5115Z"
        fill="#EBEBEB" />
    <path
        d="M297.708 195.038H297.255V137.999L297.296 137.936L309.373 121.457V90.5533H309.826V121.607L309.781 121.666L297.708 138.144V195.038Z"
        fill="#EBEBEB" />
    <path
        d="M309.599 90.7982C309.341 90.7991 309.088 90.7232 308.872 90.5801C308.657 90.4369 308.489 90.2331 308.39 89.9943C308.29 89.7556 308.264 89.4927 308.314 89.239C308.364 88.9853 308.489 88.7523 308.672 88.5694C308.855 88.3866 309.088 88.2621 309.341 88.2119C309.595 88.1616 309.858 88.1879 310.097 88.2873C310.335 88.3866 310.539 88.5547 310.682 88.7701C310.825 88.9855 310.901 89.2385 310.9 89.4971C310.899 89.8418 310.762 90.1721 310.518 90.4158C310.274 90.6596 309.944 90.797 309.599 90.7982ZM309.599 88.6449C309.431 88.644 309.265 88.6932 309.125 88.7863C308.984 88.8794 308.874 89.0122 308.809 89.1678C308.744 89.3235 308.726 89.495 308.758 89.6606C308.791 89.8262 308.872 89.9785 308.991 90.0982C309.11 90.2178 309.261 90.2994 309.427 90.3327C309.592 90.3659 309.764 90.3493 309.92 90.285C310.076 90.2206 310.209 90.1113 310.303 89.9711C310.397 89.8308 310.447 89.6659 310.447 89.4971C310.447 89.2719 310.358 89.0558 310.199 88.8961C310.04 88.7364 309.825 88.6461 309.599 88.6449Z"
        fill="#EBEBEB" />
    <path
        d="M300.827 195.038H300.374V139.994L300.419 139.935L312.492 123.456V101.887H312.945V123.606L312.904 123.665L300.827 140.144V195.038Z"
        fill="#EBEBEB" />
    <path
        d="M312.718 102.131C312.46 102.131 312.207 102.055 311.993 101.911C311.778 101.767 311.61 101.563 311.512 101.324C311.413 101.086 311.388 100.823 311.438 100.569C311.489 100.316 311.614 100.083 311.797 99.9011C311.98 99.7187 312.213 99.5947 312.467 99.5448C312.72 99.4949 312.983 99.5214 313.221 99.621C313.46 99.7205 313.663 99.8885 313.806 100.104C313.949 100.319 314.025 100.572 314.024 100.83C314.023 101.176 313.885 101.507 313.64 101.751C313.395 101.995 313.064 102.131 312.718 102.131ZM312.718 99.9781C312.55 99.9781 312.385 100.028 312.245 100.122C312.105 100.215 311.996 100.349 311.931 100.504C311.867 100.66 311.85 100.831 311.883 100.997C311.915 101.162 311.997 101.314 312.116 101.433C312.235 101.552 312.387 101.633 312.552 101.666C312.717 101.699 312.889 101.682 313.045 101.618C313.2 101.553 313.333 101.444 313.427 101.304C313.521 101.164 313.571 100.999 313.571 100.83C313.571 100.604 313.481 100.388 313.321 100.228C313.161 100.068 312.944 99.9781 312.718 99.9781Z"
        fill="#EBEBEB" />
    <path d="M294.698 119.598H294.245V195.038H294.698V119.598Z" fill="#EBEBEB" />
    <path
        d="M294.472 119.825C294.213 119.825 293.961 119.748 293.746 119.605C293.531 119.461 293.364 119.257 293.265 119.018C293.166 118.779 293.141 118.516 293.191 118.263C293.242 118.01 293.367 117.777 293.55 117.595C293.733 117.412 293.966 117.288 294.22 117.238C294.473 117.189 294.736 117.215 294.974 117.315C295.213 117.414 295.416 117.582 295.559 117.797C295.702 118.013 295.778 118.266 295.777 118.524C295.776 118.869 295.638 119.2 295.393 119.444C295.149 119.688 294.817 119.825 294.472 119.825ZM294.472 117.672C294.303 117.672 294.138 117.722 293.998 117.815C293.858 117.909 293.749 118.042 293.684 118.198C293.62 118.354 293.603 118.525 293.636 118.69C293.669 118.856 293.75 119.007 293.869 119.127C293.988 119.246 294.14 119.327 294.305 119.36C294.471 119.393 294.642 119.376 294.798 119.311C294.953 119.247 295.087 119.138 295.18 118.997C295.274 118.857 295.324 118.693 295.324 118.524C295.324 118.298 295.234 118.081 295.074 117.921C294.914 117.762 294.698 117.672 294.472 117.672Z"
        fill="#EBEBEB" />
    <path
        d="M291.806 195.038H291.353V156.754L283.125 141.236V113.361H283.578V141.123L291.806 156.64V195.038Z"
        fill="#EBEBEB" />
    <path
        d="M283.333 113.587C283.075 113.587 282.822 113.511 282.608 113.367C282.393 113.223 282.225 113.019 282.127 112.78C282.028 112.541 282.003 112.279 282.053 112.025C282.104 111.772 282.229 111.539 282.412 111.357C282.595 111.174 282.828 111.05 283.082 111.001C283.335 110.951 283.598 110.977 283.836 111.077C284.075 111.176 284.278 111.344 284.421 111.56C284.564 111.775 284.64 112.028 284.639 112.286C284.639 112.457 284.605 112.627 284.54 112.785C284.474 112.943 284.378 113.087 284.256 113.208C284.135 113.329 283.991 113.424 283.833 113.49C283.674 113.555 283.505 113.588 283.333 113.587ZM283.333 111.434C283.165 111.434 283 111.484 282.86 111.578C282.72 111.671 282.611 111.804 282.546 111.96C282.482 112.116 282.465 112.287 282.498 112.452C282.53 112.618 282.612 112.77 282.731 112.889C282.85 113.008 283.002 113.089 283.167 113.122C283.332 113.155 283.504 113.138 283.66 113.074C283.815 113.009 283.948 112.9 284.042 112.76C284.136 112.62 284.186 112.455 284.186 112.286C284.186 112.06 284.096 111.843 283.936 111.684C283.776 111.524 283.559 111.434 283.333 111.434Z"
        fill="#EBEBEB" />
    <path
        d="M288.927 195.038H288.474V158.417L278.773 141.263V122.881H279.226V141.141L288.927 158.295V195.038Z"
        fill="#EBEBEB" />
    <path
        d="M278.999 123.107C278.741 123.107 278.489 123.031 278.274 122.887C278.059 122.744 277.892 122.54 277.793 122.301C277.694 122.063 277.669 121.8 277.719 121.547C277.769 121.294 277.894 121.061 278.076 120.878C278.259 120.696 278.491 120.572 278.745 120.521C278.998 120.471 279.26 120.497 279.499 120.595C279.738 120.694 279.942 120.862 280.085 121.076C280.228 121.291 280.305 121.543 280.305 121.802C280.305 122.148 280.167 122.48 279.923 122.725C279.678 122.97 279.346 123.107 278.999 123.107ZM278.999 120.954C278.831 120.954 278.666 121.004 278.525 121.098C278.385 121.192 278.276 121.325 278.212 121.481C278.147 121.637 278.131 121.809 278.164 121.974C278.197 122.14 278.279 122.291 278.398 122.41C278.518 122.529 278.67 122.61 278.836 122.643C279.002 122.675 279.173 122.658 279.329 122.592C279.484 122.527 279.617 122.417 279.71 122.276C279.803 122.136 279.853 121.97 279.852 121.802C279.852 121.69 279.83 121.579 279.787 121.476C279.744 121.373 279.681 121.279 279.602 121.201C279.523 121.122 279.429 121.06 279.325 121.017C279.222 120.975 279.111 120.953 278.999 120.954Z"
        fill="#EBEBEB" />
    <path
        d="M42.7448 195.038H42.2914V165.344L30.1738 148.807V131.353H30.6272V148.657L42.7448 165.199V195.038Z"
        fill="#EBEBEB" />
    <path
        d="M30.4004 131.598C30.142 131.598 29.8894 131.521 29.6746 131.378C29.4598 131.234 29.2925 131.03 29.1938 130.791C29.0951 130.552 29.0695 130.29 29.1203 130.036C29.171 129.783 29.2958 129.55 29.4789 129.368C29.6619 129.185 29.895 129.061 30.1485 129.011C30.4021 128.962 30.6647 128.988 30.9032 129.088C31.1417 129.187 31.3453 129.355 31.4882 129.57C31.6311 129.786 31.7069 130.039 31.706 130.297C31.7048 130.643 31.5668 130.973 31.322 131.217C31.0773 131.461 30.7459 131.598 30.4004 131.598ZM30.4004 129.445C30.2319 129.445 30.0671 129.495 29.9269 129.588C29.7868 129.682 29.6776 129.815 29.613 129.971C29.5485 130.127 29.5317 130.298 29.5646 130.463C29.5974 130.629 29.6786 130.781 29.7978 130.9C29.917 131.019 30.0688 131.1 30.2342 131.133C30.3995 131.166 30.5709 131.149 30.7266 131.084C30.8823 131.02 31.0154 130.911 31.1091 130.771C31.2027 130.63 31.2527 130.466 31.2527 130.297C31.2527 130.071 31.1629 129.854 31.0031 129.694C30.8433 129.535 30.6265 129.445 30.4004 129.445Z"
        fill="#EBEBEB" />
    <path
        d="M39.6259 195.038H39.1725V167.343L27.0549 150.806V142.687H27.5083V150.656L39.6259 167.194V195.038Z"
        fill="#EBEBEB" />
    <path
        d="M27.2816 142.932C27.023 142.932 26.7699 142.856 26.5545 142.713C26.3391 142.57 26.1711 142.366 26.0717 142.128C25.9723 141.889 25.9461 141.626 25.9963 141.372C26.0465 141.119 26.171 140.886 26.3538 140.703C26.5367 140.52 26.7698 140.395 27.0234 140.345C27.2771 140.295 27.54 140.321 27.7788 140.421C28.0175 140.52 28.2214 140.688 28.3645 140.903C28.5076 141.119 28.5835 141.372 28.5826 141.63C28.5814 141.975 28.444 142.305 28.2002 142.549C27.9565 142.793 27.6263 142.93 27.2816 142.932ZM27.2816 140.778C27.1128 140.777 26.9476 140.826 26.8068 140.92C26.6661 141.013 26.5561 141.145 26.4909 141.301C26.4257 141.457 26.4082 141.628 26.4406 141.794C26.473 141.96 26.5538 142.112 26.6728 142.231C26.7918 142.351 26.9436 142.433 27.1091 142.466C27.2745 142.499 27.4461 142.483 27.6021 142.418C27.7581 142.354 27.8915 142.245 27.9853 142.104C28.0792 141.964 28.1293 141.799 28.1293 141.63C28.1293 141.405 28.0401 141.189 27.8813 141.029C27.7224 140.87 27.5068 140.779 27.2816 140.778Z"
        fill="#EBEBEB" />
    <path d="M45.7548 146.798H45.3015V195.038H45.7548V146.798Z" fill="#EBEBEB" />
    <path
        d="M45.5283 147.025C45.2697 147.026 45.0166 146.95 44.8012 146.807C44.5858 146.664 44.4178 146.46 44.3184 146.221C44.219 145.983 44.1928 145.72 44.243 145.466C44.2932 145.212 44.4177 144.979 44.6005 144.796C44.7834 144.613 45.0165 144.489 45.2701 144.439C45.5238 144.389 45.7867 144.415 46.0255 144.514C46.2642 144.614 46.4681 144.782 46.6112 144.997C46.7543 145.212 46.8302 145.465 46.8293 145.724C46.8281 146.069 46.6907 146.399 46.4469 146.643C46.2032 146.886 45.873 147.024 45.5283 147.025ZM45.5283 144.872C45.3595 144.871 45.1943 144.92 45.0535 145.013C44.9128 145.106 44.8028 145.239 44.7376 145.395C44.6724 145.55 44.6549 145.722 44.6873 145.888C44.7197 146.053 44.8005 146.205 44.9195 146.325C45.0385 146.445 45.1903 146.526 45.3558 146.56C45.5212 146.593 45.6928 146.576 45.8488 146.512C46.0048 146.448 46.1382 146.338 46.232 146.198C46.3259 146.058 46.376 145.893 46.376 145.724C46.376 145.499 46.2868 145.283 46.128 145.123C45.9691 144.963 45.7535 144.873 45.5283 144.872Z"
        fill="#EBEBEB" />
    <path
        d="M48.6472 195.038H48.1938V170.24L48.2211 170.19L56.4218 154.723V126.961H56.8752V154.836L56.848 154.886L48.6472 170.354V195.038Z"
        fill="#EBEBEB" />
    <path
        d="M56.6666 127.187C56.408 127.188 56.1549 127.112 55.9395 126.969C55.7241 126.826 55.5561 126.622 55.4567 126.383C55.3573 126.145 55.3311 125.882 55.3813 125.628C55.4315 125.374 55.556 125.141 55.7388 124.958C55.9217 124.776 56.1548 124.651 56.4084 124.601C56.6621 124.551 56.925 124.577 57.1638 124.676C57.4025 124.776 57.6064 124.944 57.7495 125.159C57.8926 125.375 57.9685 125.628 57.9676 125.886C57.9664 126.231 57.829 126.561 57.5852 126.805C57.3415 127.049 57.0113 127.186 56.6666 127.187ZM56.6666 125.034C56.4978 125.033 56.3326 125.082 56.1918 125.175C56.0511 125.268 55.9412 125.401 55.876 125.557C55.8108 125.713 55.7932 125.884 55.8256 126.05C55.858 126.215 55.9388 126.368 56.0578 126.487C56.1768 126.607 56.3286 126.688 56.4941 126.722C56.6595 126.755 56.8311 126.738 56.9871 126.674C57.1431 126.61 57.2765 126.5 57.3703 126.36C57.4642 126.22 57.5143 126.055 57.5143 125.886C57.5131 125.661 57.4236 125.446 57.265 125.286C57.1064 125.127 56.8915 125.036 56.6666 125.034Z"
        fill="#EBEBEB" />
    <path
        d="M51.5258 195.038H51.0725V171.895L51.0997 171.845L60.7738 154.741V136.481H61.2272V154.863L61.1954 154.913L51.5258 172.017V195.038Z"
        fill="#EBEBEB" />
    <path
        d="M61.0004 136.707C60.742 136.708 60.4892 136.632 60.2739 136.489C60.0586 136.347 59.8905 136.143 59.791 135.904C59.6915 135.666 59.665 135.403 59.7148 135.15C59.7647 134.896 59.8887 134.663 60.0711 134.48C60.2535 134.297 60.4861 134.172 60.7395 134.121C60.9929 134.071 61.2557 134.096 61.4945 134.195C61.7333 134.294 61.9375 134.461 62.0812 134.676C62.2248 134.891 62.3015 135.143 62.3015 135.402C62.3015 135.747 62.1646 136.079 61.9207 136.323C61.6768 136.568 61.3459 136.706 61.0004 136.707ZM61.0004 134.554C60.8315 134.553 60.6661 134.602 60.5252 134.696C60.3844 134.789 60.2745 134.922 60.2094 135.078C60.1443 135.234 60.1271 135.406 60.1598 135.571C60.1925 135.737 60.2738 135.889 60.3933 136.009C60.5127 136.128 60.665 136.21 60.8308 136.242C60.9965 136.275 61.1682 136.258 61.3242 136.193C61.4801 136.128 61.6131 136.018 61.7064 135.877C61.7997 135.736 61.8491 135.571 61.8482 135.402C61.847 135.177 61.7573 134.962 61.5986 134.804C61.4398 134.645 61.2249 134.555 61.0004 134.554Z"
        fill="#EBEBEB" />
    <path
        d="M22.993 194.811L59.7448 194.702L96.4965 194.661L170 194.589L243.503 194.661L280.255 194.702L317.007 194.811L280.255 194.924L243.503 194.965L170 195.038L96.4965 194.961L59.7448 194.924L22.993 194.811Z"
        fill="#263238" />
    <path d="M294.517 185.744H45.4784V194.815H294.517V185.744Z" fill="#C7C7C7" />
    <path d="M194.276 185.744H145.724V189.434H194.276V185.744Z" fill="#A6A6A6" />
    <path d="M268.786 53.5795H71.2141V185.74H268.786V53.5795Z" fill="#DBDBDB" />
    <path d="M267.353 55.1934H72.6512V184.13H267.353V55.1934Z" fill="#263238" />
    <path d="M258.726 63.4802H81.269V175.843H258.726V63.4802Z" fill="white" />
    <path d="M258.726 63.4802H81.269V67.805H258.726V63.4802Z" fill="#455A64" />
    <path
        d="M85.34 65.6427C85.34 65.8052 85.2918 65.964 85.2014 66.099C85.1111 66.234 84.9827 66.3392 84.8325 66.4012C84.6823 66.4632 84.517 66.4791 84.3578 66.4471C84.1985 66.4151 84.0523 66.3365 83.9377 66.2213C83.8231 66.1061 83.7453 65.9594 83.7142 65.8C83.683 65.6405 83.6999 65.4754 83.7627 65.3255C83.8255 65.1757 83.9314 65.0478 84.0669 64.9582C84.2025 64.8686 84.3616 64.8213 84.524 64.8222C84.6316 64.8222 84.7381 64.8434 84.8374 64.8847C84.9367 64.926 85.0268 64.9865 85.1026 65.0628C85.1785 65.139 85.2385 65.2295 85.2792 65.329C85.32 65.4285 85.3406 65.5351 85.34 65.6427Z"
        fill="#C7C7C7" />
    <path
        d="M88.6811 65.6427C88.6811 65.8052 88.6329 65.964 88.5425 66.099C88.4521 66.234 88.3237 66.3392 88.1735 66.4012C88.0233 66.4632 87.8581 66.4791 87.6988 66.4471C87.5395 66.4151 87.3933 66.3365 87.2788 66.2213C87.1642 66.1061 87.0864 65.9594 87.0553 65.8C87.0241 65.6405 87.041 65.4754 87.1038 65.3255C87.1666 65.1757 87.2725 65.0478 87.408 64.9582C87.5435 64.8686 87.7026 64.8213 87.8651 64.8222C87.9726 64.8222 88.0791 64.8434 88.1784 64.8847C88.2777 64.926 88.3679 64.9865 88.4437 65.0628C88.5195 65.139 88.5796 65.2295 88.6203 65.329C88.661 65.4285 88.6817 65.5351 88.6811 65.6427Z"
        fill="white" />
    <path
        d="M92.0267 65.6427C92.0267 65.8052 91.9784 65.964 91.8881 66.099C91.7977 66.234 91.6693 66.3392 91.5191 66.4012C91.3689 66.4632 91.2037 66.4791 91.0444 66.4471C90.8851 66.4151 90.7389 66.3365 90.6243 66.2213C90.5098 66.1061 90.432 65.9594 90.4008 65.8C90.3697 65.6405 90.3866 65.4754 90.4494 65.3255C90.5122 65.1757 90.6181 65.0478 90.7536 64.9582C90.8891 64.8686 91.0482 64.8213 91.2107 64.8222C91.3182 64.8222 91.4247 64.8434 91.524 64.8847C91.6233 64.926 91.7135 64.9865 91.7893 65.0628C91.8651 65.139 91.9251 65.2295 91.9659 65.329C92.0066 65.4285 92.0273 65.5351 92.0267 65.6427Z"
        fill="#92E3A9" />
    <path d="M255.934 67.8051H81.269V91.8725H255.934V67.8051Z" fill="#92E3A9" />
    <path d="M258.731 67.8051H255.938V163.54H258.731V67.8051Z" fill="#DBDBDB" />
    <path
        d="M257.33 100.994C257.139 100.994 256.956 100.918 256.82 100.782C256.685 100.647 256.609 100.464 256.609 100.273V69.0835C256.611 68.8927 256.687 68.71 256.822 68.5751C256.957 68.4402 257.139 68.3639 257.33 68.3627C257.521 68.3627 257.705 68.4386 257.84 68.5738C257.975 68.709 258.051 68.8923 258.051 69.0835V100.273C258.051 100.464 257.975 100.647 257.84 100.782C257.705 100.918 257.521 100.994 257.33 100.994Z"
        fill="#A6A6A6" />
    <path d="M248.236 72.4744H210.65V77.4928H248.236V72.4744Z" fill="white" />
    <path
        d="M248.286 77.5427H210.596V72.4246H248.286V77.5427ZM210.7 77.4384H248.182V72.5334H210.7V77.4384Z"
        fill="#C7C7C7" />
    <path d="M248.286 72.4246H243.164V77.5472H248.286V72.4246Z" fill="#455A64" />
    <path
        d="M247.316 76.3912L246.863 76.7403L246.001 75.6069L245.688 75.1944C245.753 75.1676 245.814 75.1325 245.87 75.0901C245.974 75.01 246.056 74.9037 246.106 74.7819L246.441 75.2352L247.316 76.3912Z"
        fill="white" />
    <path
        d="M246.405 73.721C246.258 73.5294 246.06 73.3836 245.833 73.301C245.607 73.2184 245.361 73.2023 245.126 73.2546C244.89 73.307 244.674 73.4256 244.504 73.5964C244.334 73.7673 244.216 73.9833 244.164 74.219C244.113 74.4547 244.13 74.7002 244.213 74.9265C244.297 75.1529 244.443 75.3507 244.635 75.4966C244.827 75.6425 245.057 75.7304 245.298 75.7499C245.538 75.7695 245.779 75.7198 245.992 75.6069C246.055 75.5761 246.115 75.538 246.169 75.4935C246.269 75.4156 246.357 75.324 246.432 75.2215C246.588 75.0013 246.67 74.7368 246.665 74.4668C246.66 74.1968 246.569 73.9355 246.405 73.721ZM245.861 75.081C245.805 75.1234 245.744 75.1585 245.679 75.1853C245.549 75.2371 245.406 75.2514 245.267 75.2265C245.129 75.2017 245 75.1387 244.895 75.0446C244.79 74.9505 244.714 74.8291 244.674 74.694C244.635 74.5589 244.634 74.4154 244.671 74.2797C244.709 74.144 244.783 74.0215 244.887 73.9258C244.99 73.8302 245.118 73.7652 245.256 73.7383C245.394 73.7113 245.537 73.7234 245.669 73.7732C245.8 73.823 245.916 73.9086 246.001 74.0202C246.081 74.1266 246.132 74.2519 246.149 74.3839C246.165 74.5158 246.147 74.6498 246.097 74.7728C246.048 74.8979 245.967 75.0075 245.861 75.0901V75.081Z"
        fill="white" />
    <path d="M211.965 73.4626H211.698V76.509H211.965V73.4626Z" fill="#C7C7C7" />
    <path d="M204.014 72.4744H101.773V77.4928H204.014V72.4744Z" fill="white" />
    <path
        d="M204.068 77.5427H101.724V72.4246H204.068V77.5427ZM101.828 77.4384H203.964V72.5334H101.828V77.4384Z"
        fill="#C7C7C7" />
    <path d="M103.093 73.4626H102.825V76.509H103.093V73.4626Z" fill="#C7C7C7" />
    <path
        d="M92.3078 76.6994L90.4808 75.0176L92.3032 73.2677L92.5888 73.5624L91.0792 75.013L92.5843 76.4002L92.3078 76.6994Z"
        fill="white" />
    <path
        d="M96.7142 73.2677L98.5456 74.9496L96.7187 76.6994L96.4376 76.4002L97.9472 74.9541L96.4376 73.5669L96.7142 73.2677Z"
        fill="white" />
    <path d="M150.566 154.804H170.812V133.276H150.566V154.804Z" fill="#EBEBEB" />
    <path
        d="M153.358 137.986C153.248 138.522 153.313 139.079 153.544 139.575C153.775 140.071 154.16 140.479 154.642 140.74C155.123 141 155.675 141.099 156.217 141.021C156.759 140.943 157.261 140.692 157.649 140.307C158.037 139.921 158.291 139.421 158.373 138.879C158.455 138.338 158.36 137.785 158.103 137.302C157.846 136.819 157.44 136.431 156.945 136.197C156.451 135.962 155.894 135.893 155.357 136C154.866 136.098 154.414 136.339 154.059 136.692C153.703 137.045 153.46 137.495 153.358 137.986Z"
        fill="white" />
    <path d="M170.811 150.167H150.566V154.804H170.811V150.167Z" fill="#DBDBDB" />
    <path d="M157.252 150.185L170.811 150.167L164.039 141.816L157.252 150.185Z" fill="#C7C7C7" />
    <path d="M150.566 150.185H162.606L156.586 144.736L150.566 150.185Z" fill="#DBDBDB" />
    <path d="M89.3202 129.005H129.132V98.4595H89.3202V129.005Z" fill="#EBEBEB" />
    <path
        d="M93.287 105.142C93.1329 105.905 93.2288 106.698 93.5604 107.403C93.892 108.107 94.4416 108.687 95.1281 109.055C95.8145 109.423 96.6012 109.56 97.3717 109.447C98.1423 109.333 98.8557 108.974 99.4064 108.423C99.9572 107.872 100.316 107.159 100.43 106.388C100.544 105.618 100.406 104.831 100.038 104.145C99.67 103.458 99.0907 102.909 98.3859 102.577C97.6811 102.246 96.8883 102.15 96.1248 102.304C95.425 102.445 94.7824 102.789 94.2776 103.294C93.7727 103.799 93.4281 104.442 93.287 105.142Z"
        fill="white" />
    <path d="M102.458 122.427H129.132L115.795 105.985L102.458 122.427Z" fill="#C7C7C7" />
    <path d="M89.3248 122.427H112.98L101.152 111.719L89.3248 122.427Z" fill="#DBDBDB" />
    <path d="M129.137 122.427H89.3248V129.01H129.137V122.427Z" fill="#DBDBDB" />
    <path d="M110.133 133.276H89.0527V135.048H110.133V133.276Z" fill="#A6A6A6" />
    <path d="M145.52 137.392H89.0527V139.164H145.52V137.392Z" fill="#EBEBEB" />
    <path d="M145.52 141.29H89.0527V143.063H145.52V141.29Z" fill="#EBEBEB" />
    <path d="M145.52 145.194H89.0527V146.966H145.52V145.194Z" fill="#EBEBEB" />
    <path d="M145.52 149.097H89.0527V150.869H145.52V149.097Z" fill="#EBEBEB" />
    <path d="M145.52 152.995H89.0527V154.768H145.52V152.995Z" fill="#EBEBEB" />
    <path d="M199.589 98.464H177.607V100.237H199.589V98.464Z" fill="#A6A6A6" />
    <path d="M209.617 102.576H177.607V104.348H209.617V102.576Z" fill="#EBEBEB" />
    <path d="M209.617 106.479H177.607V108.251H209.617V106.479Z" fill="#EBEBEB" />
    <path d="M209.617 110.382H177.607V112.155H209.617V110.382Z" fill="#EBEBEB" />
    <path d="M209.617 114.281H177.607V116.053H209.617V114.281Z" fill="#EBEBEB" />
    <path d="M209.617 122.087H177.607V123.86H209.617V122.087Z" fill="#EBEBEB" />
    <path d="M209.617 125.986H177.607V127.758H209.617V125.986Z" fill="#EBEBEB" />
    <path d="M209.617 129.889H177.607V131.662H209.617V129.889Z" fill="#EBEBEB" />
    <path d="M209.617 133.792H177.607V135.565H209.617V133.792Z" fill="#EBEBEB" />
    <path d="M209.617 141.594H177.607V143.367H209.617V141.594Z" fill="#EBEBEB" />
    <path d="M209.617 145.497H177.607V147.27H209.617V145.497Z" fill="#EBEBEB" />
    <path d="M209.617 149.396H177.607V151.169H209.617V149.396Z" fill="#EBEBEB" />
    <path d="M209.617 153.299H177.607V155.072H209.617V153.299Z" fill="#EBEBEB" />
    <path d="M248.286 102.576H216.276V104.348H248.286V102.576Z" fill="#EBEBEB" />
    <path d="M248.286 106.479H216.276V108.251H248.286V106.479Z" fill="#EBEBEB" />
    <path d="M248.286 98.6771H216.276V100.45H248.286V98.6771Z" fill="#EBEBEB" />
    <path d="M248.286 110.382H216.276V112.155H248.286V110.382Z" fill="#EBEBEB" />
    <path d="M248.286 114.281H216.276V116.053H248.286V114.281Z" fill="#EBEBEB" />
    <path d="M248.286 118.184H216.276V119.956H248.286V118.184Z" fill="#EBEBEB" />
    <path d="M248.286 122.087H216.276V123.86H248.286V122.087Z" fill="#EBEBEB" />
    <path d="M248.286 129.889H216.276V131.662H248.286V129.889Z" fill="#EBEBEB" />
    <path d="M248.286 133.792H216.276V135.565H248.286V133.792Z" fill="#EBEBEB" />
    <path d="M248.286 137.691H216.276V139.463H248.286V137.691Z" fill="#EBEBEB" />
    <path d="M248.286 141.594H216.276V143.367H248.286V141.594Z" fill="#EBEBEB" />
    <path d="M248.286 145.497H216.276V147.27H248.286V145.497Z" fill="#EBEBEB" />
    <path d="M156.404 98.464H135.324V103.21H156.404V98.464Z" fill="#A6A6A6" />
    <path d="M170.816 106.479H135.324V108.251H170.816V106.479Z" fill="#EBEBEB" />
    <path d="M170.816 110.382H135.324V112.155H170.816V110.382Z" fill="#EBEBEB" />
    <path d="M170.816 114.281H135.324V116.053H170.816V114.281Z" fill="#EBEBEB" />
    <path d="M170.816 118.184H135.324V119.956H170.816V118.184Z" fill="#EBEBEB" />
    <path d="M170.816 123.375H135.324V125.147H170.816V123.375Z" fill="#EBEBEB" />
    <path d="M170.816 127.273H135.324V129.046H170.816V127.273Z" fill="#EBEBEB" />
    <path opacity="0.7" d="M258.726 63.4802H81.269V175.843H258.726V63.4802Z" fill="white" />
    <path
        d="M179.035 109.253V116.892H176.279V109.253C176.279 105.545 173.463 102.53 170 102.53C166.537 102.53 163.721 105.545 163.721 109.253V116.892H160.965V109.253C160.965 103.94 165.018 99.6245 170 99.6245C174.982 99.6245 179.035 103.922 179.035 109.253Z"
        fill="#455A64" />
    <path d="M160.965 109.657L163.717 109.766V116.874H160.965V109.657Z" fill="#263238" />
    <path d="M179.035 110.391V116.874H176.283V110.278L179.035 110.391Z" fill="#263238" />
    <path d="M182.571 111.144H157.434V133.946H182.571V111.144Z" fill="#92E3A9" />
    <path opacity="0.1" d="M182.566 111.144H170V133.946H182.566V111.144Z" fill="black" />
    <path
        d="M171.061 123.379L172.117 128.366H167.652L168.703 123.379C168.291 123.123 167.973 122.739 167.797 122.286C167.622 121.833 167.6 121.335 167.733 120.868C167.866 120.4 168.148 119.989 168.536 119.697C168.924 119.404 169.396 119.245 169.882 119.245C170.368 119.245 170.841 119.404 171.229 119.697C171.616 119.989 171.898 120.4 172.031 120.868C172.165 121.335 172.142 121.833 171.967 122.286C171.792 122.739 171.474 123.123 171.061 123.379Z"
        fill="#263238" />
    <path
        d="M170.077 79.3651L171.038 81.6544L173.513 81.863L171.632 83.4859L172.199 85.9022L170.077 84.6147L167.951 85.9022L168.518 83.4859L166.641 81.863L169.111 81.6544L170.077 79.3651Z"
        fill="#92E3A9" />
    <path
        d="M151.051 84.4243L153.027 85.9248L155.271 84.8686L154.455 87.2123L156.155 89.0211L153.675 88.9712L152.479 91.1473L151.758 88.7673L149.323 88.3048L151.359 86.8859L151.051 84.4243Z"
        fill="#92E3A9" />
    <path
        d="M137.102 98.319L139.563 98.6273L140.978 96.5918L141.445 99.0262L143.82 99.747L141.648 100.944L141.698 103.424L139.89 101.724L137.546 102.54L138.598 100.296L137.102 98.319Z"
        fill="#92E3A9" />
    <path
        d="M131.965 117.323L134.255 116.362L134.463 113.886L136.086 115.768L138.502 115.201L137.215 117.323L138.502 119.449L136.086 118.882L134.463 120.759L134.255 118.288L131.965 117.323Z"
        fill="#92E3A9" />
    <path
        d="M137.025 136.349L138.525 134.373L137.469 132.129L139.813 132.94L141.621 131.245L141.571 133.724L143.743 134.921L141.372 135.642L140.905 138.076L139.486 136.041L137.025 136.349Z"
        fill="#92E3A9" />
    <path
        d="M150.919 150.298L151.227 147.837L149.192 146.422L151.626 145.955L152.347 143.58L153.544 145.751L156.024 145.701L154.328 147.51L155.14 149.854L152.896 148.802L150.919 150.298Z"
        fill="#92E3A9" />
    <path
        d="M169.923 155.434L168.962 153.145L166.487 152.937L168.368 151.314L167.801 148.897L169.923 150.185L172.049 148.897L171.482 151.314L173.359 152.937L170.889 153.145L169.923 155.434Z"
        fill="#92E3A9" />
    <path
        d="M188.949 150.375L186.973 148.875L184.729 149.931L185.545 147.587L183.845 145.778L186.324 145.828L187.521 143.652L188.242 146.032L190.676 146.495L188.641 147.914L188.949 150.375Z"
        fill="#92E3A9" />
    <path
        d="M202.898 136.481L200.437 136.172L199.022 138.208L198.555 135.773L196.18 135.053L198.351 133.856L198.302 131.376L200.11 133.076L202.454 132.26L201.402 134.504L202.898 136.481Z"
        fill="#92E3A9" />
    <path
        d="M208.035 117.477L205.745 118.438L205.537 120.909L203.914 119.032L201.498 119.598L202.785 117.477L201.498 115.351L203.914 115.917L205.537 114.041L205.745 116.511L208.035 117.477Z"
        fill="#92E3A9" />
    <path
        d="M202.975 98.4505L201.475 100.427L202.531 102.671L200.187 101.855L198.379 103.555L198.429 101.075L196.257 99.8785L198.628 99.1577L199.095 96.7233L200.514 98.7587L202.975 98.4505Z"
        fill="#92E3A9" />
    <path
        d="M189.081 84.5013L188.773 86.9629L190.808 88.3773L188.374 88.8443L187.653 91.2197L186.456 89.0483L183.976 89.0981L185.672 87.2893L184.86 84.9456L187.104 85.9973L189.081 84.5013Z"
        fill="#92E3A9" />
    <path
        d="M277.54 110.341C290.068 110.341 300.225 100.185 300.225 87.6566C300.225 75.1281 290.068 64.9718 277.54 64.9718C265.011 64.9718 254.855 75.1281 254.855 87.6566C254.855 100.185 265.011 110.341 277.54 110.341Z"
        fill="#A6A6A6" />
    <path
        d="M277.54 112.599C272.608 112.599 267.788 111.137 263.688 108.397C259.587 105.657 256.392 101.763 254.504 97.2072C252.617 92.6512 252.123 87.638 253.086 82.8014C254.048 77.9648 256.422 73.5221 259.909 70.0351C263.396 66.5481 267.839 64.1735 272.676 63.2114C277.512 62.2493 282.525 62.7431 287.081 64.6302C291.637 66.5174 295.531 69.7132 298.271 73.8134C301.011 77.9137 302.473 82.7343 302.473 87.6656C302.464 94.2754 299.834 100.612 295.16 105.286C290.486 109.959 284.15 112.589 277.54 112.599ZM277.54 63.1856C272.698 63.1856 267.965 64.6214 263.939 67.3113C259.914 70.0012 256.776 73.8244 254.923 78.2975C253.07 82.7707 252.586 87.6928 253.53 92.4415C254.475 97.1901 256.806 101.552 260.23 104.976C263.653 108.399 268.015 110.731 272.764 111.675C277.513 112.62 282.435 112.135 286.908 110.282C291.381 108.429 295.204 105.292 297.894 101.266C300.584 97.2403 302.02 92.5073 302.02 87.6656C302.015 81.1734 299.435 74.9482 294.845 70.3562C290.256 65.7641 284.032 63.1804 277.54 63.172V63.1856Z"
        fill="#A6A6A6" />
    <path
        d="M275.187 84.7733L285.804 74.1562H290.986V79.22H287.672V82.6517H284.353V86.088H280.917V89.4653L280.364 90.0184L275.187 84.7733Z"
        fill="#92E3A9" />
    <path opacity="0.3"
        d="M290.981 74.1609V79.2201H287.667V82.6564H284.353V86.0926H280.917V89.4654L280.382 90.0004L277.762 87.3801L290.981 74.1609Z"
        fill="white" />
    <path opacity="0.1"
        d="M280.219 83.6355L279.698 83.1096L285.324 77.4792L285.84 77.996L280.219 83.6355Z"
        fill="black" />
    <path
        d="M266.56 98.6952C267.736 99.8709 269.235 100.671 270.866 100.996C272.497 101.32 274.188 101.153 275.724 100.516C277.26 99.8797 278.573 98.8018 279.497 97.419C280.421 96.0362 280.914 94.4105 280.914 92.7475C280.914 91.0844 280.421 89.4587 279.497 88.0759C278.573 86.6931 277.26 85.6153 275.724 84.9786C274.188 84.342 272.497 84.1753 270.866 84.4994C269.235 84.8236 267.736 85.6241 266.56 86.7997C264.983 88.3775 264.097 90.5168 264.097 92.7475C264.097 94.9781 264.983 97.1174 266.56 98.6952ZM271.461 93.7947C271.768 94.1022 271.977 94.494 272.062 94.9204C272.147 95.3469 272.103 95.789 271.937 96.1907C271.77 96.5924 271.489 96.9357 271.127 97.1773C270.765 97.4189 270.34 97.5478 269.906 97.5478C269.471 97.5478 269.046 97.4189 268.684 97.1773C268.323 96.9357 268.041 96.5924 267.874 96.1907C267.708 95.789 267.664 95.3469 267.749 94.9204C267.834 94.494 268.043 94.1022 268.351 93.7947C268.555 93.5904 268.797 93.4284 269.064 93.3179C269.331 93.2073 269.617 93.1505 269.906 93.1505C270.194 93.1505 270.48 93.2073 270.747 93.3179C271.014 93.4284 271.256 93.5904 271.461 93.7947Z"
        fill="#92E3A9" />
    <path
        d="M106.103 177.303C118.631 177.303 128.787 167.147 128.787 154.618C128.787 142.09 118.631 131.934 106.103 131.934C93.5742 131.934 83.4178 142.09 83.4178 154.618C83.4178 167.147 93.5742 177.303 106.103 177.303Z"
        fill="#A6A6A6" />
    <path
        d="M106.103 179.556C101.171 179.556 96.3507 178.094 92.2504 175.354C88.1502 172.615 84.9544 168.72 83.0673 164.164C81.1801 159.609 80.6864 154.595 81.6484 149.759C82.6105 144.922 84.9851 140.479 88.4721 136.992C91.9591 133.505 96.4018 131.131 101.238 130.169C106.075 129.207 111.088 129.7 115.644 131.588C120.2 133.475 124.094 136.67 126.834 140.771C129.574 144.871 131.036 149.692 131.036 154.623C131.026 161.233 128.396 167.569 123.723 172.243C119.049 176.917 112.712 179.547 106.103 179.556ZM106.103 130.143C101.261 130.143 96.528 131.579 92.5023 134.269C88.4766 136.958 85.3389 140.782 83.4861 145.255C81.6333 149.728 81.1485 154.65 82.093 159.399C83.0376 164.147 85.3691 168.509 88.7927 171.933C92.2163 175.356 96.5782 177.688 101.327 178.633C106.075 179.577 110.998 179.092 115.471 177.239C119.944 175.387 123.767 172.249 126.457 168.223C129.147 164.198 130.583 159.465 130.583 154.623C130.577 148.131 127.996 141.907 123.407 137.316C118.817 132.725 112.594 130.142 106.103 130.134V130.143Z"
        fill="#A6A6A6" />
    <path
        d="M120.396 147.41C120.396 147.41 118.374 163.608 115.051 167.253C111.058 171.623 108.161 170.984 106.551 173.241C104.938 170.975 102.041 171.627 98.0469 167.253C94.7195 163.626 92.7021 147.41 92.7021 147.41C101.465 143.154 106.551 138.389 106.551 138.389C106.706 138.539 111.774 143.222 120.396 147.41Z"
        fill="#92E3A9" />
    <path opacity="0.1"
        d="M106.533 138.394V173.241C104.919 170.975 102.023 171.627 98.0288 167.253C94.7013 163.626 92.684 147.41 92.684 147.41C101.447 143.154 106.533 138.389 106.533 138.389V138.394Z"
        fill="black" />
    <path
        d="M94.8464 148.716C94.8464 148.716 96.5555 162.398 99.3798 165.489C102.753 169.189 105.201 168.663 106.565 170.553C107.925 168.649 110.373 169.193 113.75 165.489C116.557 162.411 118.261 148.716 118.261 148.716C110.863 145.121 106.565 141.091 106.565 141.091C106.565 141.091 102.249 145.121 94.8464 148.716Z"
        fill="#92E3A9" />
    <path opacity="0.3"
        d="M118.247 148.716C118.247 148.716 116.538 162.398 113.714 165.489C110.341 169.184 107.898 168.663 106.533 170.544V141.095C106.678 141.222 110.958 145.175 118.247 148.716Z"
        fill="white" />
    <path
        d="M109.095 153.027V155.153H108.347V153.027C108.359 152.79 108.322 152.553 108.24 152.331C108.158 152.108 108.031 151.905 107.867 151.733C107.704 151.561 107.507 151.424 107.289 151.33C107.071 151.237 106.836 151.188 106.599 151.188C106.362 151.188 106.127 151.237 105.909 151.33C105.691 151.424 105.494 151.561 105.331 151.733C105.167 151.905 105.04 152.108 104.958 152.331C104.876 152.553 104.839 152.79 104.851 153.027V155.153H104.085V153.027C104.06 152.682 104.106 152.334 104.221 152.007C104.336 151.68 104.517 151.38 104.752 151.127C104.988 150.873 105.274 150.67 105.592 150.532C105.91 150.393 106.252 150.322 106.599 150.322C106.946 150.322 107.288 150.393 107.606 150.532C107.924 150.67 108.21 150.873 108.446 151.127C108.681 151.38 108.862 151.68 108.977 152.007C109.092 152.334 109.138 152.682 109.113 153.027H109.095Z"
        fill="white" />
    <path
        d="M103.083 153.558V159.904H110.078V153.558H103.083ZM107.163 158.354H105.921L106.216 156.962C106.124 156.905 106.048 156.825 105.997 156.73C105.945 156.635 105.919 156.528 105.922 156.419C105.924 156.311 105.955 156.205 106.011 156.112C106.067 156.02 106.146 155.943 106.241 155.891C106.336 155.838 106.443 155.811 106.551 155.813C106.659 155.814 106.765 155.844 106.859 155.899C106.952 155.954 107.029 156.033 107.083 156.127C107.136 156.221 107.164 156.328 107.163 156.436C107.164 156.541 107.137 156.645 107.086 156.737C107.035 156.829 106.962 156.906 106.873 156.962L107.163 158.354Z"
        fill="white" />
    <path
        d="M93.2664 62.9174C96.2081 50.7392 88.7205 38.482 76.5423 35.5403C64.364 32.5986 52.1069 40.0863 49.1652 52.2645C46.2235 64.4427 53.7111 76.6998 65.8893 79.6415C78.0676 82.5832 90.3247 75.0956 93.2664 62.9174Z"
        fill="#A6A6A6" />
    <path
        d="M71.2141 82.5067C66.2828 82.5067 61.4622 81.0444 57.3619 78.3047C53.2616 75.565 50.0659 71.6709 48.1787 67.1149C46.2916 62.559 45.7978 57.5457 46.7599 52.7091C47.7219 47.8725 50.0966 43.4298 53.5836 39.9428C57.0706 36.4558 61.5133 34.0812 66.3499 33.1191C71.1864 32.1571 76.1997 32.6508 80.7557 34.538C85.3116 36.4251 89.2057 39.6209 91.9454 43.7211C94.6851 47.8214 96.1474 52.642 96.1474 57.5734C96.1402 64.1839 93.511 70.5216 88.8367 75.1959C84.1623 79.8703 77.8246 82.4995 71.2141 82.5067ZM71.2141 33.0934C66.3724 33.0934 61.6395 34.5291 57.6137 37.219C53.588 39.9089 50.4504 43.7321 48.5975 48.2053C46.7447 52.6784 46.2599 57.6005 47.2045 62.3492C48.149 67.0978 50.4805 71.4597 53.9041 74.8833C57.3277 78.3069 61.6896 80.6384 66.4383 81.583C71.187 82.5275 76.1091 82.0428 80.5822 80.1899C85.0553 78.3371 88.8786 75.1994 91.5685 71.1737C94.2584 67.148 95.6941 62.415 95.6941 57.5734C95.6857 51.0834 93.1039 44.8617 88.5148 40.2727C83.9257 35.6836 77.704 33.1018 71.2141 33.0934Z"
        fill="#A6A6A6" />
    <path d="M56.0999 68.5802H84.9138L84.7597 48.6608H55.9458L56.0999 68.5802Z" fill="#92E3A9" />
    <path d="M74.469 46.5981H84.6509L84.7597 48.6608H73.993L74.469 46.5981Z" fill="#92E3A9" />
    <g opacity="0.1">
        <path d="M56.0999 68.5802H84.9138L84.7597 48.6608H55.9458L56.0999 68.5802Z" fill="black" />
        <path d="M74.469 46.5981H84.6509L84.7597 48.6608H73.993L74.469 46.5981Z" fill="black" />
    </g>
    <path d="M56.1226 68.5803H84.9364L87.1578 49.8304H58.3439L56.1226 68.5803Z" fill="#92E3A9" />
    <path d="M77.2071 47.8901H87.389L87.1578 49.8304H76.3911L77.2071 47.8901Z" fill="#92E3A9" />
    <path
        d="M74.3466 56.0592V58.2624H73.5533V56.0592C73.5533 55.5782 73.3622 55.117 73.0222 54.7769C72.6821 54.4369 72.2209 54.2458 71.7399 54.2458C71.259 54.2458 70.7978 54.4369 70.4577 54.7769C70.1176 55.117 69.9266 55.5782 69.9266 56.0592V58.2624H69.1333V56.0592C69.1074 55.7013 69.1555 55.342 69.2747 55.0036C69.3939 54.6652 69.5815 54.355 69.8258 54.0923C70.0702 53.8296 70.3661 53.6201 70.695 53.4768C71.024 53.3336 71.3789 53.2596 71.7377 53.2596C72.0964 53.2596 72.4514 53.3336 72.7803 53.4768C73.1092 53.6201 73.4051 53.8296 73.6495 54.0923C73.8939 54.355 74.0815 54.6652 74.2006 55.0036C74.3198 55.342 74.3679 55.7013 74.3421 56.0592H74.3466Z"
        fill="white" />
    <path
        d="M68.1315 56.6078V63.1811H75.3848V56.6078H68.1315ZM72.3656 61.5945H71.0781L71.3819 60.1529C71.2631 60.079 71.1716 59.9684 71.1213 59.8379C71.0709 59.7073 71.0645 59.564 71.1029 59.4294C71.1413 59.2949 71.2225 59.1766 71.3342 59.0923C71.4459 59.0081 71.582 58.9625 71.7219 58.9625C71.8618 58.9625 71.9979 59.0081 72.1095 59.0923C72.2212 59.1766 72.3024 59.2949 72.3409 59.4294C72.3793 59.564 72.3728 59.7073 72.3225 59.8379C72.2722 59.9684 72.1807 60.079 72.0619 60.1529L72.3656 61.5945Z"
        fill="white" />
    <path
        d="M249.61 108.755C254.719 111.021 257.852 120.405 254.252 128.942C250.974 136.703 241.899 140.937 236.572 139.028C230.91 137.006 229.165 130.769 231.712 127.019C234.178 123.393 238.254 122.309 239.342 119.005C239.863 117.422 239.292 114.666 239.958 112.295C240.72 109.652 245.507 106.919 249.61 108.755Z"
        fill="#263238" />
    <path
        d="M242.28 139.563C245.1 138.979 247.725 137.687 249.909 135.81C252.091 133.917 253.808 131.549 254.928 128.887C256.101 126.239 256.541 123.323 256.201 120.446C255.816 117.589 254.663 114.889 252.865 112.635C254.541 114.945 255.601 117.644 255.943 120.478C256.094 121.884 256.055 123.303 255.825 124.698C255.587 126.094 255.179 127.455 254.61 128.751C254.055 130.052 253.365 131.292 252.552 132.45C250.91 134.772 248.749 136.678 246.242 138.017C244.994 138.704 243.662 139.223 242.28 139.563Z"
        fill="#263238" />
    <path
        d="M230.828 128.044C231.173 127.232 231.642 126.48 232.22 125.814C232.79 125.148 233.435 124.55 234.142 124.032C234.859 123.515 235.566 122.976 236.25 122.409C236.949 121.847 237.581 121.205 238.132 120.496C238.406 120.134 238.649 119.749 238.857 119.345C239.047 118.93 239.181 118.493 239.256 118.043C239.382 117.162 239.454 116.273 239.473 115.382C239.506 114.506 239.649 113.638 239.9 112.798C240.164 111.956 240.581 111.17 241.128 110.477C240.531 111.137 240.069 111.907 239.768 112.744C239.477 113.59 239.299 114.471 239.238 115.364C239.147 116.271 239.133 117.132 238.97 117.985C238.896 118.407 238.765 118.817 238.58 119.204C238.38 119.586 238.145 119.949 237.878 120.287C236.84 121.684 235.38 122.717 234.006 123.819C233.301 124.372 232.663 125.006 232.107 125.709C231.552 126.41 231.12 127.199 230.828 128.044Z"
        fill="#263238" />
    <path
        d="M286.434 190.568C286.171 189.543 270.005 164.9 268.822 164.365C268.686 164.297 260.372 169.411 260.372 169.411C260.018 169.823 245.154 165.621 245.154 165.621L243.794 183.804L271.302 185.069C271.302 185.069 274.87 187.499 278.143 189.507C279.533 190.414 280.976 191.239 282.463 191.978C283.787 192.422 286.706 191.588 286.434 190.568Z"
        fill="#F7A9A0" />
    <path
        d="M282.454 191.973C281.933 191.805 280.151 190.754 278.138 189.507C274.865 187.503 271.302 185.069 271.302 185.069L265.177 184.788L256.632 168.699C258.708 169.211 260.259 169.542 260.377 169.406C260.377 169.406 268.686 164.297 268.822 164.365C270.005 164.9 286.171 189.543 286.434 190.568C286.697 191.592 283.787 192.422 282.454 191.973Z"
        fill="white" />
    <path
        d="M286.597 190.613C286.316 189.561 270.069 164.923 268.854 164.374C268.401 164.166 264.352 166.301 260.372 169.411L270.867 185.277C270.867 185.277 281.112 191.624 282.504 192.077C283.896 192.531 286.874 191.66 286.597 190.613Z"
        fill="#92E3A9" />
    <path
        d="M285.378 190.908C282.554 186.828 271.542 170.19 269.058 165.974C269.058 165.925 269.058 165.938 269.058 165.974C271.95 169.941 282.826 186.683 285.423 190.908C285.5 190.953 285.437 190.994 285.378 190.908Z"
        fill="#263238" />
    <path
        d="M280.573 191.08C280.258 190.629 280.04 190.117 279.933 189.577C279.826 189.037 279.833 188.48 279.952 187.943C280.159 186.975 280.732 186.124 281.552 185.568C281.552 185.568 281.606 185.595 281.584 185.617C280.855 186.297 280.367 187.196 280.195 188.177C280.022 189.159 280.174 190.17 280.627 191.057C280.627 191.064 280.625 191.07 280.622 191.075C280.618 191.081 280.613 191.085 280.608 191.087C280.602 191.09 280.595 191.09 280.589 191.089C280.583 191.088 280.577 191.085 280.573 191.08Z"
        fill="#263238" />
    <path
        d="M272.136 186.32C271.025 184.683 270.345 182.381 271.016 180.463C271.044 180.39 271.148 180.427 271.157 180.49C271.353 182.436 271.755 184.355 272.358 186.216C272.372 186.245 272.374 186.279 272.363 186.31C272.352 186.34 272.329 186.365 272.299 186.379C272.27 186.393 272.236 186.394 272.206 186.383C272.175 186.372 272.15 186.349 272.136 186.32Z"
        fill="#263238" />
    <path
        d="M273.478 187.249C272.363 185.613 271.665 183.31 272.358 181.392C272.385 181.32 272.49 181.356 272.494 181.424C272.692 183.368 273.096 185.286 273.7 187.145C273.707 187.16 273.711 187.176 273.712 187.192C273.712 187.208 273.71 187.224 273.705 187.239C273.699 187.254 273.691 187.268 273.68 187.28C273.669 187.292 273.656 187.301 273.641 187.308C273.627 187.315 273.611 187.319 273.595 187.32C273.579 187.321 273.563 187.318 273.547 187.313C273.532 187.307 273.518 187.299 273.506 187.288C273.495 187.277 273.485 187.264 273.478 187.249Z"
        fill="#263238" />
    <path
        d="M274.815 188.197C273.705 186.56 273.002 184.257 273.696 182.34C273.723 182.267 273.827 182.303 273.836 182.371C274.03 184.316 274.433 186.234 275.038 188.093C275.051 188.122 275.053 188.156 275.042 188.186C275.031 188.217 275.008 188.242 274.979 188.256C274.949 188.27 274.915 188.271 274.885 188.26C274.854 188.249 274.829 188.226 274.815 188.197Z"
        fill="#263238" />
    <path
        d="M276.153 189.144C275.042 187.508 274.362 185.209 275.038 183.287C275.038 183.215 275.169 183.251 275.174 183.319C275.371 185.263 275.775 187.181 276.379 189.04C276.387 189.069 276.384 189.099 276.371 189.126C276.358 189.152 276.336 189.174 276.309 189.186C276.282 189.199 276.252 189.201 276.223 189.193C276.195 189.186 276.17 189.168 276.153 189.144Z"
        fill="#263238" />
    <path
        d="M265.826 169.597C264.611 167.742 267.494 165.843 268.713 167.706C269.933 169.569 267.05 171.46 265.826 169.597Z"
        fill="#263238" />
    <path
        d="M271.239 189.267C271.805 187.617 271.633 185.781 271.669 184.067C271.667 184.029 271.656 183.992 271.636 183.959C271.617 183.926 271.59 183.898 271.557 183.878C271.525 183.857 271.488 183.845 271.45 183.841C271.412 183.838 271.374 183.844 271.338 183.858C271.336 183.85 271.331 183.843 271.325 183.837C271.319 183.831 271.312 183.827 271.304 183.824C271.296 183.822 271.287 183.822 271.279 183.824C271.27 183.826 271.263 183.83 271.257 183.836C269.821 184.959 268.705 186.439 268.02 188.129C267.644 189.117 267.657 190.618 268.904 190.998C270.151 191.379 270.912 190.232 271.239 189.267ZM269.924 190.246C268.015 191.27 268.328 188.736 268.636 188.016C268.845 187.554 269.085 187.108 269.353 186.678C269.921 185.798 270.534 184.948 271.189 184.13C271.116 184.969 271.121 185.812 271.08 186.651C271.035 187.68 270.971 189.684 269.924 190.246Z"
        fill="#263238" />
    <path
        d="M266.333 178.663C265.341 179.502 265.916 180.889 266.66 181.646C267.956 182.928 269.566 183.845 271.329 184.307C271.337 184.309 271.345 184.31 271.353 184.308C271.361 184.307 271.368 184.303 271.375 184.298C271.381 184.294 271.387 184.288 271.391 184.28C271.394 184.273 271.397 184.265 271.397 184.257C271.435 184.255 271.472 184.244 271.505 184.226C271.538 184.207 271.567 184.18 271.588 184.149C271.609 184.117 271.622 184.081 271.627 184.043C271.632 184.005 271.627 183.967 271.615 183.931C270.903 182.376 270.332 180.617 269.162 179.325C268.478 178.573 267.272 177.865 266.333 178.663ZM270.051 181.791C270.422 182.548 270.749 183.319 271.148 184.058C270.223 183.569 269.324 183.032 268.455 182.449C268.039 182.159 267.642 181.843 267.267 181.501C266.696 180.962 265.409 178.758 267.562 178.944C268.754 179.067 269.611 180.88 270.051 181.787V181.791Z"
        fill="#263238" />
    <path
        d="M249.751 161.767C249.751 161.767 226.631 151.114 216.326 151.214C204.05 151.332 194.476 165.884 209.504 176.424C222.786 185.74 264.747 185.159 264.747 185.159L254.986 167.538C246.379 164.51 237.359 162.815 228.24 162.511L249.397 166.863L249.751 161.767Z"
        fill="#455A64" />
    <path
        d="M249.333 165.272C247.52 164.818 245.675 164.492 243.835 164.157C241.994 163.821 240.117 163.517 238.249 163.25C234.529 162.673 230.781 162.285 227.02 162.089C226.671 162.089 226.318 162.062 225.964 162.049L225.737 161.976C225.561 161.922 225.384 161.863 225.207 161.817C224.872 161.731 224.532 161.659 224.196 161.582C223.493 161.428 222.786 161.301 222.088 161.128C222.084 161.127 222.08 161.126 222.075 161.126C222.071 161.127 222.066 161.128 222.062 161.13C222.058 161.131 222.055 161.134 222.052 161.137C222.049 161.141 222.047 161.145 222.045 161.149C222.044 161.153 222.043 161.157 222.043 161.162C222.043 161.166 222.044 161.17 222.046 161.174C222.048 161.178 222.051 161.182 222.054 161.185C222.057 161.188 222.061 161.19 222.065 161.192C222.768 161.396 223.453 161.645 224.151 161.854L224.758 162.026C223.376 162.003 221.997 162.026 220.615 162.049C220.569 162.049 220.565 162.117 220.615 162.117C222.492 162.117 224.373 162.248 226.245 162.407C228.117 162.565 229.958 162.729 231.808 162.96C235.548 163.413 239.279 164.016 242.991 164.66C245.077 165.022 247.162 165.426 249.265 165.653C249.29 165.657 249.316 165.657 249.341 165.651C249.366 165.646 249.389 165.635 249.41 165.621C249.431 165.606 249.449 165.588 249.462 165.566C249.476 165.545 249.485 165.521 249.49 165.496C249.494 165.471 249.494 165.446 249.488 165.421C249.483 165.396 249.473 165.372 249.458 165.352C249.444 165.331 249.425 165.313 249.404 165.299C249.382 165.286 249.358 165.276 249.333 165.272Z"
        fill="#263238" />
    <path
        d="M260.458 184.353C259.86 183.233 259.366 182.05 258.826 180.898C258.287 179.747 257.743 178.591 257.199 177.439C256.111 175.141 252.185 167.393 251.759 166.845C251.753 166.836 251.745 166.83 251.735 166.828C251.726 166.825 251.715 166.826 251.706 166.83C251.697 166.835 251.69 166.843 251.687 166.852C251.683 166.861 251.683 166.872 251.686 166.881C251.854 167.47 254.288 172.593 254.86 173.735C255.984 176.002 257.176 178.269 258.35 180.535C258.686 181.179 259.03 181.818 259.375 182.462C259.719 183.106 260.078 183.736 260.386 184.393C260.418 184.425 260.481 184.393 260.458 184.353Z"
        fill="#263238" />
    <path
        d="M205.814 190.328C206.117 189.312 223.249 165.326 224.45 164.841C224.586 164.778 232.692 170.213 232.692 170.213C233.032 170.644 248.051 167.04 248.051 167.04L248.708 185.264L221.168 185.441C221.168 185.441 217.51 187.707 214.159 189.602C212.736 190.457 211.261 191.223 209.744 191.896C208.388 192.281 205.519 191.334 205.814 190.328Z"
        fill="#F7A9A0" />
    <path
        d="M209.753 191.887C211.27 191.216 212.743 190.45 214.164 189.593C217.514 187.721 221.172 185.427 221.172 185.427L227.301 185.391L236.463 169.651C234.369 170.082 232.805 170.349 232.696 170.213C232.696 170.213 224.595 164.773 224.454 164.841C223.253 165.326 206.122 189.321 205.818 190.323C205.514 191.325 208.388 192.281 209.753 191.887Z"
        fill="white" />
    <path
        d="M205.668 190.364C205.99 189.321 223.203 165.349 224.436 164.85C224.89 164.655 228.856 166.949 232.71 170.213L221.594 185.658C221.594 185.658 211.108 191.588 209.698 192.005C208.289 192.422 205.36 191.402 205.668 190.364Z"
        fill="#92E3A9" />
    <path
        d="M206.874 190.708C209.857 186.76 221.522 170.553 224.169 166.423C224.192 166.391 224.169 166.373 224.146 166.423C221.105 170.272 209.572 186.569 206.811 190.677C206.752 190.745 206.811 190.79 206.874 190.708Z"
        fill="#263238" />
    <path
        d="M211.666 191.066C211.998 190.628 212.236 190.126 212.365 189.592C212.494 189.058 212.511 188.502 212.414 187.961C212.245 186.984 211.706 186.111 210.909 185.522C210.886 185.522 210.855 185.549 210.877 185.567C211.575 186.275 212.024 187.191 212.157 188.176C212.291 189.161 212.101 190.162 211.616 191.03C211.598 191.066 211.643 191.098 211.666 191.066Z"
        fill="#263238" />
    <path
        d="M220.288 186.628C221.463 185.037 222.233 182.761 221.648 180.821C221.648 180.744 221.522 180.776 221.512 180.844C221.239 182.779 220.76 184.68 220.084 186.515C220.079 186.54 220.082 186.567 220.093 186.59C220.104 186.614 220.122 186.634 220.145 186.646C220.168 186.659 220.194 186.664 220.22 186.661C220.245 186.657 220.27 186.646 220.288 186.628Z"
        fill="#263238" />
    <path
        d="M218.91 187.521C220.089 185.93 220.86 183.659 220.27 181.714C220.248 181.637 220.139 181.673 220.13 181.737C219.859 183.673 219.38 185.574 218.702 187.408C218.695 187.434 218.697 187.462 218.708 187.487C218.719 187.512 218.738 187.533 218.762 187.546C218.786 187.559 218.813 187.564 218.84 187.559C218.867 187.555 218.892 187.541 218.91 187.521Z"
        fill="#263238" />
    <path
        d="M217.537 188.419C218.711 186.823 219.486 184.552 218.897 182.607C218.897 182.53 218.765 182.566 218.756 182.63C218.483 184.566 218.004 186.467 217.328 188.301C217.324 188.327 217.327 188.354 217.338 188.377C217.349 188.401 217.368 188.421 217.391 188.434C217.414 188.447 217.44 188.452 217.466 188.45C217.492 188.447 217.517 188.436 217.537 188.419Z"
        fill="#263238" />
    <path
        d="M216.158 189.312C217.337 187.716 218.108 185.445 217.518 183.5C217.496 183.428 217.391 183.46 217.378 183.528C217.106 185.464 216.628 187.365 215.95 189.199C215.943 189.225 215.945 189.253 215.956 189.278C215.967 189.303 215.986 189.324 216.01 189.337C216.034 189.35 216.062 189.354 216.088 189.35C216.115 189.345 216.14 189.332 216.158 189.312Z"
        fill="#263238" />
    <path
        d="M227.251 170.186C228.543 168.373 225.733 166.369 224.441 168.182C223.149 169.996 225.959 171.999 227.251 170.186Z"
        fill="#263238" />
    <path
        d="M223.33 191.447C224.59 191.116 224.667 189.634 224.327 188.614C223.709 186.9 222.653 185.377 221.263 184.198C221.231 184.171 221.199 184.198 221.181 184.198C221.146 184.183 221.108 184.177 221.07 184.179C221.033 184.181 220.996 184.192 220.963 184.211C220.93 184.23 220.901 184.256 220.88 184.288C220.859 184.319 220.846 184.356 220.841 184.393C220.814 186.107 220.569 187.938 221.063 189.607C221.354 190.604 222.133 191.76 223.33 191.447ZM221.331 187.018C221.331 186.175 221.358 185.336 221.331 184.498C221.952 185.339 222.53 186.212 223.063 187.113C223.315 187.551 223.538 188.005 223.729 188.473C224.006 189.208 224.219 191.751 222.369 190.654C221.317 190.055 221.335 188.025 221.331 187.018Z"
        fill="#263238" />
    <path
        d="M223.534 179.774C222.315 181.021 221.676 182.752 220.9 184.28C220.887 184.315 220.882 184.354 220.886 184.391C220.89 184.429 220.902 184.465 220.922 184.497C220.942 184.53 220.97 184.557 221.002 184.576C221.035 184.596 221.071 184.608 221.109 184.611C221.108 184.619 221.109 184.628 221.112 184.635C221.115 184.643 221.12 184.65 221.126 184.655C221.132 184.661 221.14 184.664 221.148 184.666C221.156 184.668 221.165 184.668 221.172 184.665C222.953 184.276 224.6 183.423 225.946 182.195C226.717 181.465 227.351 180.105 226.399 179.225C225.447 178.346 224.246 179.067 223.534 179.774ZM225.148 179.461C227.311 179.361 225.932 181.515 225.343 182.027C224.958 182.359 224.549 182.662 224.119 182.934C223.227 183.482 222.307 183.984 221.363 184.439C221.789 183.713 222.152 182.956 222.551 182.213C223.04 181.333 223.947 179.52 225.148 179.461Z"
        fill="#263238" />
    <path
        d="M248.749 161.418C248.749 161.418 272.041 154.301 284.494 155.738C296.689 157.143 301.752 172.407 289.898 180.739C276.955 189.838 228.072 186.869 228.072 186.869L238.453 168.146C238.453 168.146 255.077 164.161 270.255 164.252L248.948 167.761L248.749 161.418Z"
        fill="#455A64" />
    <path
        d="M237.742 169.352C237.754 169.321 237.762 169.289 237.764 169.257V169.18C237.764 169.121 237.796 169.062 237.81 169.003C237.841 168.876 237.882 168.758 237.923 168.635C237.964 168.513 238.018 168.4 238.068 168.282C238.126 168.168 238.191 168.057 238.263 167.951C238.263 167.951 238.263 167.951 238.29 167.928H238.317H238.345C240.158 167.534 252.62 165.403 254.474 165.14C256.328 164.877 258.214 164.646 260.091 164.438C263.83 164.009 267.589 163.769 271.352 163.717H272.453C272.526 163.69 272.608 163.676 272.685 163.653C272.861 163.603 273.038 163.554 273.22 163.517C273.56 163.44 273.9 163.381 274.24 163.322C274.947 163.191 275.658 163.096 276.366 162.946C276.406 162.946 276.425 163.001 276.366 163.01C275.658 163.186 274.965 163.413 274.253 163.59L273.641 163.735C275.024 163.771 276.402 163.839 277.785 163.925C277.825 163.925 277.83 163.993 277.785 163.993C275.908 163.934 274.022 163.993 272.145 164.057C270.268 164.12 268.423 164.234 266.569 164.392C262.811 164.71 259.062 165.154 255.322 165.648C253.228 165.925 240.539 168.137 238.431 168.286H238.404C238.388 168.336 238.37 168.384 238.349 168.432C238.295 168.549 238.24 168.663 238.177 168.776C238.113 168.889 238.064 168.998 238 169.102L237.9 169.257L237.85 169.334C237.831 169.36 237.813 169.387 237.796 169.415C237.792 169.429 237.719 169.397 237.742 169.352Z"
        fill="#263238" />
    <path
        d="M231.962 185.64C232.605 184.547 233.149 183.373 233.734 182.254L235.498 178.863C236.672 176.596 240.906 169.025 241.332 168.49C241.332 168.454 241.414 168.49 241.4 168.531C241.21 169.111 238.576 174.13 237.968 175.25C236.753 177.489 235.47 179.688 234.21 181.9C233.852 182.535 233.476 183.156 233.113 183.786C232.75 184.416 232.356 185.032 232.025 185.676C232.023 185.68 232.02 185.684 232.016 185.687C232.012 185.69 232.008 185.692 232.003 185.693C231.998 185.695 231.993 185.695 231.989 185.694C231.984 185.694 231.979 185.692 231.975 185.69C231.971 185.687 231.967 185.684 231.964 185.68C231.962 185.677 231.959 185.672 231.958 185.668C231.957 185.663 231.956 185.658 231.957 185.653C231.958 185.649 231.959 185.644 231.962 185.64Z"
        fill="#263238" />
    <path
        d="M242.951 127.994C232.71 133.516 223.122 140.184 221.372 144.74C220.27 147.61 221.531 151.83 222.732 154.922C223.317 156.427 236.704 151.821 235.919 150.285C234.02 146.576 233.358 145.076 233.358 145.076C233.553 144.672 244.691 134.699 247.797 130.229C252.117 124.005 247.429 125.573 242.951 127.994Z"
        fill="#F7A9A0" />
    <path
        d="M231.903 142.841C232.323 143.142 232.678 143.526 232.945 143.97C233.232 144.402 233.418 144.893 233.489 145.407C233.181 144.985 232.927 144.568 232.66 144.151C232.392 143.734 232.134 143.308 231.903 142.841Z"
        fill="#263238" />
    <path
        d="M228.167 136.258L235.833 143.553C235.833 143.553 245.634 134.604 248.44 129.767C251.246 124.93 249.107 124.517 243.408 127.332C237.71 130.147 228.167 136.258 228.167 136.258Z"
        fill="#92E3A9" />
    <path
        d="M228.167 136.258L235.833 143.553C235.833 143.553 245.634 134.604 248.44 129.767C251.246 124.93 249.107 124.517 243.408 127.332C237.71 130.147 228.167 136.258 228.167 136.258Z"
        fill="#92E3A9" />
    <path
        d="M237.375 141.59C234.985 139.553 232.725 137.37 230.606 135.053C230.579 135.025 230.629 134.985 230.656 135.012C231.227 135.619 234.777 138.774 237.429 141.549C237.461 141.581 237.411 141.621 237.375 141.59Z"
        fill="#263238" />
    <path opacity="0.1"
        d="M248.427 129.762C245.625 134.599 235.824 143.553 235.824 143.553L233.167 141.027L249.487 125.972C249.9 126.557 249.578 127.79 248.427 129.762Z"
        fill="black" />
    <path
        d="M239.881 142.265L237.773 154.532C237.773 154.532 247.293 160.009 263.364 155.072C263.364 155.072 260.617 135.17 254.501 128.293C251.441 124.853 247.774 125.043 245.399 127.387C244.8 127.972 239.845 134.033 239.052 137.578C238.34 140.692 239.881 142.265 239.881 142.265Z"
        fill="#F7A9A0" />
    <path
        d="M239.881 142.265L238.49 147.333L245.675 145.148L262.48 147.333C262.48 147.333 260.608 135.184 254.492 128.293C251.432 124.853 247.765 125.043 245.389 127.387C244.791 127.972 239.836 134.033 239.043 137.578C238.34 140.692 239.881 142.265 239.881 142.265Z"
        fill="#92E3A9" />
    <path
        d="M241.328 143.063C242.217 142.879 243.116 142.744 244.02 142.66C244.474 142.623 244.927 142.61 245.38 142.605H246.029C246.269 142.605 246.482 142.65 246.745 142.655C246.772 142.655 246.772 142.691 246.745 142.691C246.518 142.691 246.292 142.737 246.069 142.755L245.394 142.805L244.034 142.909C243.127 142.968 242.221 143.036 241.314 143.126C241.309 143.122 241.305 143.117 241.302 143.11C241.3 143.104 241.3 143.097 241.301 143.09C241.303 143.084 241.306 143.078 241.31 143.073C241.315 143.068 241.321 143.065 241.328 143.063Z"
        fill="#263238" />
    <path
        d="M245.004 145.769C245.004 145.769 244.097 148.158 241.958 148.807C241.958 148.807 241.645 146.64 242.275 145.788C242.588 145.361 244.265 144.881 244.515 145.144C244.699 145.335 244.863 145.544 245.004 145.769Z"
        fill="#92E3A9" />
    <path
        d="M245.004 145.769C245.004 145.769 244.097 148.158 241.958 148.807C241.958 148.807 241.645 146.64 242.275 145.788C242.588 145.361 244.265 144.881 244.515 145.144C244.699 145.335 244.863 145.544 245.004 145.769Z"
        fill="#92E3A9" />
    <path
        d="M245.004 145.769C244.747 146.47 244.358 147.115 243.857 147.669C243.606 147.951 243.322 148.2 243.009 148.412C242.693 148.623 242.35 148.791 241.989 148.911L241.872 148.952V148.825C241.793 148.297 241.769 147.762 241.799 147.229C241.791 146.677 241.949 146.135 242.252 145.674C242.464 145.496 242.709 145.361 242.973 145.28C243.226 145.19 243.485 145.121 243.748 145.071C243.88 145.046 244.013 145.033 244.147 145.03C244.289 145.011 244.433 145.045 244.551 145.126C244.727 145.322 244.879 145.538 245.004 145.769ZM245.004 145.769C244.853 145.556 244.684 145.357 244.496 145.176C244.389 145.118 244.266 145.101 244.147 145.126C244.019 145.142 243.892 145.164 243.766 145.194C243.514 145.251 243.267 145.33 243.028 145.429C242.793 145.513 242.576 145.641 242.388 145.806C242.122 146.235 241.987 146.733 241.998 147.238C241.981 147.757 242.002 148.277 242.062 148.793L241.926 148.707C242.269 148.6 242.597 148.447 242.901 148.254C243.207 148.059 243.49 147.829 243.744 147.569C244.259 147.042 244.685 146.434 245.004 145.769Z"
        fill="#263238" />
    <path opacity="0.1"
        d="M245.004 145.769C244.864 145.545 244.701 145.336 244.519 145.144L244.478 145.116L244.424 145.094H244.374C244.053 145.07 243.731 145.112 243.427 145.216C243.534 145.531 243.67 145.834 243.835 146.123C244.033 146.35 244.298 146.509 244.592 146.576C244.753 146.32 244.891 146.05 245.004 145.769Z"
        fill="#050400" />
    <path
        d="M245.253 145.851C245.253 145.851 246.931 148.471 248.427 149.138C248.427 149.138 249.093 147.474 248.372 146.055C248.05 145.42 245.77 144.736 245.571 145.058C245.428 145.306 245.321 145.573 245.253 145.851Z"
        fill="#92E3A9" />
    <path
        d="M245.253 145.851C245.253 145.851 246.931 148.471 248.427 149.138C248.427 149.138 249.093 147.474 248.372 146.055C248.05 145.42 245.77 144.736 245.571 145.058C245.428 145.306 245.321 145.573 245.253 145.851Z"
        fill="#92E3A9" />
    <path
        d="M245.253 145.851C245.7 146.472 246.185 147.066 246.704 147.628C246.959 147.909 247.232 148.174 247.52 148.421C247.792 148.669 248.097 148.878 248.427 149.042L248.286 149.101C248.477 148.552 248.568 147.973 248.554 147.392C248.543 147.105 248.496 146.82 248.413 146.545C248.373 146.406 248.322 146.271 248.259 146.141C248.202 146.02 248.112 145.916 248.001 145.842C247.52 145.512 246.984 145.271 246.418 145.13C246.27 145.089 246.118 145.057 245.965 145.035C245.832 144.998 245.691 144.998 245.557 145.035C245.41 145.288 245.307 145.564 245.253 145.851ZM245.253 145.851C245.304 145.552 245.408 145.265 245.562 145.003C245.702 144.935 245.861 144.911 246.015 144.935C246.168 144.947 246.319 144.972 246.468 145.008C247.063 145.128 247.631 145.359 248.141 145.688C248.278 145.781 248.389 145.907 248.463 146.055C248.532 146.192 248.589 146.335 248.635 146.481C248.726 146.775 248.78 147.08 248.794 147.388C248.821 148.006 248.722 148.622 248.504 149.201L248.468 149.305L248.363 149.256C248.01 149.08 247.684 148.855 247.393 148.589C247.106 148.329 246.838 148.049 246.591 147.75C246.093 147.156 245.645 146.52 245.253 145.851Z"
        fill="#263238" />
    <path opacity="0.1"
        d="M245.639 146.427C245.944 146.262 246.196 146.014 246.364 145.71C246.448 145.51 246.487 145.293 246.477 145.076C246.024 144.958 245.621 144.931 245.544 145.076C245.404 145.325 245.301 145.592 245.235 145.869C245.235 145.869 245.385 146.087 245.639 146.427Z"
        fill="#050400" />
    <path
        d="M246.002 145.148C245.968 144.951 245.877 144.768 245.74 144.623C245.602 144.477 245.425 144.376 245.23 144.331C245.035 144.287 244.831 144.301 244.644 144.373C244.457 144.444 244.295 144.57 244.18 144.733C244.064 144.896 244 145.09 243.994 145.29C243.989 145.49 244.043 145.687 244.15 145.856C244.256 146.026 244.411 146.159 244.594 146.241C244.777 146.322 244.979 146.347 245.177 146.313C245.44 146.268 245.675 146.12 245.83 145.901C245.985 145.683 246.046 145.412 246.002 145.148Z"
        fill="#92E3A9" />
    <path
        d="M246.001 145.148C245.963 144.933 245.853 144.737 245.688 144.594C245.522 144.451 245.313 144.369 245.095 144.362C244.876 144.355 244.662 144.423 244.488 144.555C244.314 144.687 244.191 144.876 244.139 145.088C244.087 145.3 244.11 145.524 244.204 145.721C244.297 145.919 244.456 146.078 244.653 146.172C244.85 146.267 245.074 146.29 245.286 146.239C245.499 146.188 245.687 146.065 245.82 145.892C245.899 145.787 245.956 145.666 245.987 145.539C246.018 145.411 246.023 145.278 246.001 145.148ZM246.001 145.148C246.038 145.353 246.013 145.565 245.931 145.756C245.848 145.947 245.711 146.11 245.537 146.225C245.363 146.339 245.159 146.4 244.951 146.399C244.742 146.399 244.539 146.338 244.365 146.223C244.245 146.141 244.142 146.036 244.064 145.914C243.986 145.791 243.934 145.654 243.912 145.511C243.888 145.373 243.891 145.231 243.922 145.095C243.953 144.958 244.011 144.829 244.091 144.714C244.172 144.6 244.275 144.502 244.393 144.427C244.512 144.352 244.644 144.302 244.782 144.278C244.92 144.254 245.061 144.258 245.198 144.289C245.335 144.319 245.464 144.377 245.579 144.458C245.693 144.538 245.791 144.641 245.866 144.76C245.94 144.878 245.991 145.01 246.015 145.148H246.001Z"
        fill="#263238" />
    <path
        d="M244.678 148.911C244.878 149.008 245.054 149.149 245.195 149.322C245.335 149.495 245.435 149.697 245.489 149.913C245.556 150.127 245.589 150.35 245.589 150.575C245.6 150.8 245.581 151.026 245.53 151.246C245.502 151.369 245.451 151.485 245.38 151.59C245.338 151.655 245.281 151.708 245.214 151.747C245.147 151.786 245.072 151.808 244.995 151.812C244.917 151.816 244.839 151.799 244.769 151.763C244.699 151.727 244.639 151.674 244.596 151.608C244.527 151.5 244.486 151.377 244.474 151.25C244.455 151.025 244.482 150.799 244.551 150.584C244.608 150.37 244.724 150.176 244.886 150.026C244.78 150.205 244.718 150.407 244.705 150.615C244.682 150.814 244.691 151.014 244.732 151.209C244.823 151.635 245.131 151.567 245.185 151.164C245.258 150.773 245.258 150.372 245.185 149.981C245.15 149.783 245.089 149.591 245.004 149.41C244.935 149.221 244.823 149.05 244.678 148.911Z"
        fill="#263238" />
    <path
        d="M256.052 128.067C268.913 137.428 280.11 150.52 279.118 154.736C278.07 159.193 269.357 164.293 261.61 165.426C260.023 165.657 254.928 154.093 256.551 153.517C257.811 153.064 263.555 151.35 264.257 150.548C264.711 149.99 255.58 137.537 252.57 131.004C249.392 124.168 252.611 125.573 256.052 128.067Z"
        fill="#F7A9A0" />
    <path
        d="M259.819 153.113C259.819 153.113 254.978 153.671 251.827 154.188C250.068 154.478 247.099 155.24 245.902 156.042C244.116 157.243 237.411 163.404 238.871 165.063C240.19 166.564 242.112 164.125 242.112 164.125C242.112 164.125 239.759 166.591 241.527 167.679C243.295 168.767 245.507 165.358 245.507 165.358C245.507 165.358 242.828 167.801 244.827 168.781C246.559 169.633 249.515 165.97 249.515 165.97C249.515 165.97 246.423 168.237 248.114 169.275C249.982 170.426 255.1 165.494 255.1 165.494C259.261 165.897 261.814 165.576 264.724 164.71C265.259 164.56 259.819 153.113 259.819 153.113Z"
        fill="#F7A9A0" />
    <path
        d="M244.8 166.178L245.362 165.403C245.709 164.888 246.089 164.396 246.5 163.93C246.904 163.477 247.33 163.046 247.77 162.629C248.209 162.212 248.744 161.79 249.193 161.337C249.196 161.332 249.2 161.328 249.204 161.325C249.209 161.322 249.214 161.32 249.22 161.32C249.225 161.319 249.231 161.32 249.236 161.321C249.241 161.323 249.246 161.326 249.25 161.33C249.253 161.334 249.256 161.339 249.258 161.344C249.26 161.349 249.261 161.355 249.26 161.36C249.259 161.365 249.257 161.371 249.254 161.375C249.252 161.38 249.248 161.384 249.243 161.387C248.792 161.831 248.367 162.3 247.969 162.792C247.561 163.245 247.162 163.735 246.759 164.206C246.355 164.678 245.947 165.113 245.544 165.566C245.344 165.789 245.149 166.02 244.959 166.255C244.793 166.491 244.606 166.711 244.401 166.913C244.397 166.916 244.391 166.918 244.385 166.917C244.379 166.917 244.374 166.915 244.369 166.912C244.365 166.908 244.362 166.903 244.36 166.898C244.358 166.892 244.359 166.886 244.36 166.881C244.481 166.631 244.628 166.396 244.8 166.178Z"
        fill="#263238" />
    <path
        d="M241.627 164.651C242.246 163.677 242.933 162.747 243.68 161.867C244.44 160.994 245.286 160.199 246.205 159.496C246.212 159.492 246.22 159.49 246.229 159.491C246.237 159.492 246.244 159.496 246.25 159.502C246.256 159.507 246.259 159.515 246.26 159.523C246.261 159.531 246.26 159.539 246.255 159.546C245.494 160.421 244.723 161.282 243.952 162.148C243.572 162.57 241.921 164.542 241.722 164.728C241.677 164.769 241.627 164.701 241.627 164.651Z"
        fill="#263238" />
    <path
        d="M247.715 167.697C248.317 166.793 248.979 165.929 249.696 165.113C250.501 164.35 251.36 163.645 252.266 163.005C252.303 163.005 252.348 163.028 252.316 163.06C251.514 163.821 250.703 164.574 249.941 165.376C249.569 165.766 248.173 167.412 247.788 167.752C247.751 167.783 247.697 167.733 247.715 167.697Z"
        fill="#263238" />
    <path
        d="M270.373 139.627L260.785 146.05C260.785 146.05 253.414 135.043 251.487 129.803C249.56 124.562 251.718 124.517 256.854 128.257C261.991 131.997 270.373 139.627 270.373 139.627Z"
        fill="#92E3A9" />
    <path
        d="M268.151 138.267C265.61 140.284 262.945 142.142 260.173 143.829C260.136 143.829 260.105 143.797 260.136 143.775C260.866 143.321 264.769 140.352 268.11 138.208C268.151 138.19 268.183 138.267 268.151 138.267Z"
        fill="#263238" />
    <path
        d="M261.397 145.615C261.197 145.71 261.004 145.816 260.816 145.933C259.71 144.092 259.91 144.514 258.794 142.687L257.144 139.994C256.578 139.06 256.056 138.081 255.435 137.179C255.435 137.152 255.381 137.179 255.39 137.206C255.78 138.113 256.297 138.96 256.75 139.817C256.646 139.686 256.55 139.55 256.442 139.427C256.201 139.146 255.961 138.865 255.739 138.566C255.707 138.521 255.63 138.566 255.662 138.611C255.875 138.897 256.061 139.192 256.251 139.491C256.442 139.79 256.641 140.08 256.85 140.366C257.058 140.651 257.271 140.905 257.489 141.164L257.57 141.263C257.874 141.798 258.169 142.338 258.477 142.868C259.144 144.014 259.894 145.11 260.721 146.146C260.964 146.005 261.196 145.846 261.415 145.67C261.456 145.647 261.424 145.611 261.397 145.615Z"
        fill="#263238" />
    <path
        d="M262.752 151.364C261.734 151.765 260.712 152.158 259.688 152.542C258.663 152.926 257.629 153.305 256.587 153.68C255.707 153.775 254.832 153.902 253.953 154.016C253.073 154.129 252.198 154.269 251.328 154.424C250.458 154.578 249.587 154.736 248.726 154.949C247.861 155.128 247.026 155.433 246.251 155.856C246.608 155.589 247 155.371 247.416 155.208C247.828 155.034 248.248 154.883 248.676 154.754C249.533 154.51 250.399 154.301 251.274 154.124C252.149 153.948 253.028 153.812 253.908 153.671C254.787 153.53 255.671 153.444 256.555 153.354H256.523C257.557 153 258.595 152.657 259.638 152.325C260.68 151.992 261.718 151.672 262.752 151.364Z"
        fill="#263238" />
    <path
        d="M251.519 126.729C251.373 127.414 249.642 130.483 247.543 130.356C246.468 130.284 246.568 126.503 246.568 126.503L246.523 126.222L245.906 122.309L251.301 119.345C251.301 119.345 251.559 126.534 251.519 126.729Z"
        fill="#F7A9A0" />
    <path
        d="M251.396 122.019C250.92 123.018 250.24 123.907 249.401 124.629C248.562 125.351 247.582 125.891 246.523 126.213L245.902 122.3L251.305 119.331C251.305 119.331 251.351 120.559 251.396 122.019Z"
        fill="#263238" />
    <path
        d="M240.122 117.726C240.611 124.667 244.823 125.156 246.319 125.052C247.679 124.952 252.289 124.449 252.52 117.499C252.752 110.55 249.37 108.578 246.251 108.637C243.132 108.696 239.637 110.79 240.122 117.726Z"
        fill="#F7A9A0" />
    <path
        d="M241.658 116.833C241.817 116.788 241.953 116.72 242.112 116.661C242.278 116.622 242.426 116.53 242.533 116.398C242.56 116.35 242.57 116.295 242.561 116.241C242.553 116.186 242.527 116.137 242.488 116.099C242.398 116.037 242.293 116 242.184 115.992C242.075 115.985 241.965 116.006 241.867 116.053C241.654 116.121 241.473 116.264 241.359 116.457C241.336 116.502 241.326 116.553 241.331 116.604C241.335 116.654 241.355 116.702 241.386 116.742C241.418 116.782 241.461 116.812 241.509 116.828C241.557 116.844 241.609 116.846 241.658 116.833Z"
        fill="#263238" />
    <path
        d="M246.119 116.153C245.952 116.153 245.802 116.153 245.639 116.13C245.469 116.145 245.298 116.104 245.154 116.013C245.114 115.975 245.087 115.925 245.078 115.871C245.069 115.817 245.078 115.762 245.104 115.713C245.17 115.626 245.258 115.558 245.36 115.517C245.461 115.475 245.571 115.462 245.68 115.478C245.903 115.474 246.119 115.554 246.287 115.7C246.324 115.735 246.351 115.781 246.362 115.831C246.374 115.881 246.371 115.933 246.353 115.982C246.335 116.03 246.303 116.072 246.262 116.102C246.22 116.133 246.171 116.15 246.119 116.153Z"
        fill="#263238" />
    <path
        d="M245.485 118.034C245.485 118.012 245.525 118.034 245.525 118.071C245.575 118.524 245.711 119.073 246.16 119.168V119.195C245.63 119.195 245.457 118.488 245.485 118.034Z"
        fill="#263238" />
    <path
        d="M245.834 117.486C246.582 117.323 246.849 118.846 246.16 118.977C245.471 119.109 245.208 117.622 245.834 117.486Z"
        fill="#263238" />
    <path
        d="M246.16 117.513C246.305 117.572 246.459 117.699 246.614 117.685C246.768 117.672 246.908 117.49 247.003 117.318C247.003 117.318 247.003 117.318 247.031 117.318C247.08 117.451 247.076 117.598 247.02 117.728C246.963 117.859 246.858 117.962 246.727 118.016C246.455 118.107 246.206 117.889 246.083 117.613C246.056 117.572 246.088 117.486 246.16 117.513Z"
        fill="#263238" />
    <path
        d="M242.837 118.402C242.837 118.402 242.805 118.429 242.81 118.447C242.91 118.9 242.946 119.458 242.552 119.694C242.552 119.694 242.552 119.721 242.552 119.716C243.064 119.549 242.987 118.823 242.837 118.402Z"
        fill="#263238" />
    <path
        d="M242.329 117.989C241.572 118.071 241.79 119.585 242.493 119.512C243.195 119.44 242.987 117.926 242.329 117.989Z"
        fill="#263238" />
    <path
        d="M242.03 118.134C241.922 118.234 241.826 118.397 241.681 118.424C241.536 118.451 241.373 118.315 241.228 118.175C241.26 118.465 241.4 118.751 241.681 118.769C241.962 118.787 242.094 118.506 242.135 118.211C242.126 118.17 242.08 118.098 242.03 118.134Z"
        fill="#263238" />
    <path
        d="M246.437 121.575C246.382 121.724 246.346 121.91 246.197 121.996C246.038 122.072 245.864 122.111 245.689 122.11C245.689 122.11 245.666 122.132 245.689 122.142C245.79 122.198 245.904 122.225 246.019 122.22C246.134 122.215 246.246 122.179 246.342 122.114C246.417 122.05 246.472 121.964 246.5 121.868C246.527 121.772 246.526 121.67 246.496 121.575C246.482 121.548 246.446 121.552 246.437 121.575Z"
        fill="#263238" />
    <path
        d="M243.975 120.392C243.975 120.392 244.03 121.103 244.098 121.43C244.421 121.438 244.742 121.358 245.023 121.198C245.305 121.039 245.538 120.805 245.698 120.523C245.698 120.491 245.662 120.464 245.639 120.491C245.283 120.865 244.815 121.113 244.306 121.199C244.265 121.113 244.261 119.975 244.206 119.984C243.957 120.06 243.719 120.17 243.499 120.31C243.35 118.828 243.436 117.336 243.263 115.863C243.263 115.851 243.259 115.839 243.25 115.831C243.242 115.822 243.23 115.818 243.218 115.818C243.206 115.818 243.195 115.822 243.186 115.831C243.178 115.839 243.173 115.851 243.173 115.863C243.03 117.459 243.048 119.066 243.227 120.659C243.241 120.863 243.857 120.478 243.975 120.392Z"
        fill="#263238" />
    <path
        d="M244.537 121.303C244.765 121.491 245.039 121.616 245.33 121.666C245.486 121.686 245.644 121.66 245.784 121.589C246.092 121.421 246.033 121.135 245.911 120.872C245.844 120.741 245.762 120.617 245.666 120.505C245.384 120.884 244.989 121.164 244.537 121.303Z"
        fill="#263238" />
    <path
        d="M245.33 121.666C245.486 121.686 245.644 121.66 245.784 121.589C246.092 121.421 246.033 121.135 245.911 120.872C245.739 120.921 245.589 121.025 245.484 121.169C245.379 121.313 245.325 121.488 245.33 121.666Z"
        fill="#FF9ABB" />
    <path
        d="M252.103 117.962C250.834 118.311 250.077 115.401 250.077 115.401C250.077 115.401 244.442 115.269 243.322 110.867C242.895 112.79 241.742 114.475 240.103 115.568C240.103 115.568 239.582 110.631 243.336 109.113C243.336 109.113 247.91 106.656 251.183 110.092C254.456 113.528 252.96 117.726 252.103 117.962Z"
        fill="#263238" />
    <path
        d="M251.455 118.107C251.455 118.107 252.615 115.727 253.672 116.108C254.728 116.489 254.093 119.775 253.019 120.383C252.886 120.469 252.737 120.528 252.581 120.556C252.425 120.584 252.265 120.58 252.111 120.544C251.956 120.509 251.81 120.442 251.682 120.349C251.554 120.256 251.446 120.138 251.364 120.002L251.455 118.107Z"
        fill="#F7A9A0" />
    <path
        d="M253.468 117.046V117.073C252.72 117.527 252.416 118.334 252.239 119.154C252.274 119.067 252.327 118.988 252.394 118.923C252.462 118.858 252.543 118.808 252.631 118.776C252.72 118.745 252.814 118.733 252.907 118.741C253.001 118.749 253.091 118.777 253.173 118.823C253.178 118.825 253.182 118.829 253.185 118.833C253.188 118.838 253.19 118.843 253.19 118.848C253.19 118.853 253.188 118.859 253.185 118.863C253.182 118.867 253.178 118.871 253.173 118.873C253.025 118.85 252.874 118.873 252.74 118.94C252.606 119.006 252.496 119.113 252.425 119.245C252.308 119.467 252.215 119.701 252.149 119.943C252.122 120.02 251.986 120.002 252.004 119.916C251.818 118.878 252.389 117.323 253.468 117.046Z"
        fill="#263238" />
    <path
        d="M252.847 120.133C252.838 120.212 252.799 120.283 252.738 120.332C252.677 120.382 252.599 120.405 252.521 120.396C252.442 120.388 252.371 120.349 252.321 120.288C252.272 120.226 252.249 120.148 252.258 120.07C252.262 120.031 252.273 119.994 252.292 119.96C252.311 119.925 252.336 119.895 252.366 119.871C252.397 119.846 252.431 119.828 252.469 119.817C252.506 119.806 252.545 119.803 252.584 119.807C252.623 119.811 252.66 119.823 252.694 119.842C252.728 119.86 252.759 119.885 252.783 119.916C252.807 119.946 252.826 119.981 252.837 120.018C252.848 120.056 252.851 120.095 252.847 120.133Z"
        fill="white" />
    <path
        d="M243.259 110.532C243.293 111.232 243.477 111.917 243.798 112.54C244.113 113.176 244.556 113.739 245.099 114.195C245.233 114.311 245.376 114.417 245.525 114.512L245.743 114.666C245.816 114.711 245.897 114.752 245.974 114.793C246.133 114.875 246.287 114.961 246.428 115.033L246.922 115.215L247.171 115.301L247.425 115.36L247.937 115.473C248.282 115.518 248.631 115.546 248.975 115.568C248.64 115.473 248.3 115.419 247.969 115.323L247.484 115.169L247.239 115.092L247.008 114.988C246.854 114.92 246.7 114.847 246.555 114.784C246.409 114.721 246.26 114.616 246.101 114.535L245.884 114.412L245.68 114.263C245.54 114.169 245.407 114.066 245.281 113.954C244.763 113.524 244.325 113.005 243.989 112.422C243.812 112.134 243.66 111.83 243.535 111.515C243.413 111.197 243.321 110.867 243.259 110.532Z"
        fill="#263238" />
    <path
        d="M241.885 162.964C240.525 163.739 238.911 160.28 238.911 160.28C238.871 160.946 238.598 161.577 238.141 162.062C237.298 162.878 235.647 161.912 235.647 161.912C235.46 162.594 235.073 163.203 234.537 163.662C233.63 164.365 231.844 163.626 231.844 163.626C231.325 164.151 230.635 164.473 229.899 164.533C227.918 164.623 226.2 162.135 225.089 160.566C223.979 158.998 222.306 153.499 221.88 152.483L231.898 145.275C231.898 145.275 238.875 150.901 239.918 152.936C240.797 154.664 243.925 161.776 241.885 162.964Z"
        fill="#F7A9A0" />
    <path
        d="M238.934 160.231C238.435 158.191 237.452 156.269 236.481 154.423C236.479 154.419 236.476 154.416 236.472 154.413C236.468 154.41 236.464 154.408 236.459 154.406C236.455 154.405 236.45 154.405 236.445 154.405C236.44 154.406 236.436 154.407 236.432 154.41C236.427 154.412 236.424 154.415 236.421 154.419C236.418 154.423 236.416 154.427 236.414 154.432C236.413 154.437 236.413 154.441 236.413 154.446C236.414 154.451 236.416 154.456 236.418 154.46C237.402 156.273 237.928 158.408 238.839 160.267C238.844 160.28 238.853 160.29 238.865 160.295C238.878 160.301 238.892 160.301 238.904 160.296C238.917 160.292 238.927 160.282 238.933 160.27C238.938 160.257 238.939 160.243 238.934 160.231Z"
        fill="#263238" />
    <path
        d="M235.756 161.786C235.597 161.333 235.379 160.903 235.108 160.507C234.849 160.054 234.582 159.637 234.31 159.206C233.76 158.351 233.192 157.508 232.605 156.677C232.578 156.64 232.515 156.677 232.542 156.713C233.086 157.565 233.616 158.431 234.124 159.31C234.378 159.764 234.627 160.19 234.877 160.634C235.081 161.068 235.333 161.477 235.629 161.854C235.641 161.864 235.656 161.87 235.671 161.872C235.687 161.874 235.702 161.871 235.716 161.863C235.73 161.856 235.741 161.845 235.748 161.831C235.755 161.817 235.758 161.801 235.756 161.786Z"
        fill="#263238" />
    <path
        d="M231.821 163.59C231.673 163.182 231.457 162.802 231.182 162.466C230.924 162.08 230.665 161.695 230.416 161.305C229.908 160.53 229.4 159.75 228.924 158.957C228.902 158.921 228.838 158.957 228.861 158.993C229.342 159.8 229.813 160.616 230.303 161.423C230.543 161.817 230.788 162.212 231.032 162.606C231.223 162.984 231.478 163.326 231.785 163.617C231.785 163.617 231.826 163.608 231.821 163.59Z"
        fill="#263238" />
    <path d="M260.857 166.491H224.817V168.11H260.857V166.491Z" fill="#C7C7C7" />
    <path d="M252.878 166.491L253.173 168.105H224.817V166.491H252.878Z" fill="#A6A6A6" />
    <path d="M251.605 168.105H221.005L218.457 147.32H249.057L251.605 168.105Z" fill="#C7C7C7" />
    <path
        d="M236.894 157.715C236.901 157.957 236.859 158.198 236.771 158.424C236.682 158.65 236.55 158.856 236.381 159.029C236.212 159.203 236.01 159.341 235.786 159.435C235.563 159.529 235.323 159.578 235.081 159.578C234.584 159.576 234.108 159.38 233.754 159.032C233.4 158.683 233.196 158.211 233.186 157.715C233.179 157.472 233.221 157.231 233.309 157.005C233.397 156.78 233.53 156.574 233.699 156.4C233.868 156.226 234.07 156.088 234.293 155.994C234.517 155.9 234.757 155.851 234.999 155.851C235.495 155.854 235.971 156.05 236.325 156.398C236.679 156.746 236.883 157.218 236.894 157.715Z"
        fill="white" />
</svg>
