<svg width="328" height="328" viewBox="0 0 328 328" fill="none" xmlns="http://www.w3.org/2000/svg">
    <path d="M328 250.854H0V251.018H328V250.854Z" fill="#EBEBEB" />
    <path d="M56.1408 257.099H34.4141V257.263H56.1408V257.099Z" fill="#EBEBEB" />
    <path d="M147.6 257.185H112.268V257.349H147.6V257.185Z" fill="#EBEBEB" />
    <path d="M81.9734 260.484H69.3848V260.648H81.9734V260.484Z" fill="#EBEBEB" />
    <path d="M292.576 260.406H279.961V260.57H292.576V260.406Z" fill="#EBEBEB" />
    <path d="M274.116 260.406H254.246V260.57H274.116V260.406Z" fill="#EBEBEB" />
    <path d="M243.304 259.323H215.385V259.487H243.304V259.323Z" fill="#EBEBEB" />
    <path
        d="M155.472 221.597H28.8046C27.8123 221.595 26.8613 221.2 26.1602 220.497C25.4592 219.795 25.0654 218.843 25.0654 217.851V39.7929C25.0741 38.8063 25.4716 37.8629 26.1717 37.1677C26.8719 36.4725 27.818 36.0816 28.8046 36.08H155.472C156.465 36.08 157.418 36.4746 158.12 37.1771C158.823 37.8795 159.217 38.8323 159.217 39.8257V217.851C159.217 218.844 158.823 219.797 158.12 220.5C157.418 221.202 156.465 221.597 155.472 221.597ZM28.8046 36.2112C27.8558 36.2129 26.9465 36.591 26.2762 37.2625C25.6059 37.9341 25.2294 38.8441 25.2294 39.7929V217.851C25.2294 218.8 25.6059 219.71 26.2762 220.381C26.9465 221.053 27.8558 221.431 28.8046 221.433H155.472C156.421 221.431 157.331 221.053 158.002 220.382C158.674 219.71 159.052 218.8 159.053 217.851V39.7929C159.052 38.8435 158.674 37.9335 158.002 37.2621C157.331 36.5908 156.421 36.2129 155.472 36.2112H28.8046Z"
        fill="#EBEBEB" />
    <path
        d="M297.372 221.597H170.698C169.705 221.595 168.753 221.2 168.051 220.498C167.349 219.796 166.954 218.844 166.952 217.851V39.7929C166.963 38.8057 167.362 37.8624 168.063 37.1673C168.764 36.4723 169.711 36.0816 170.698 36.08H297.372C298.357 36.0834 299.301 36.475 300 37.17C300.699 37.8651 301.096 38.8074 301.104 39.7929V217.851C301.104 218.842 300.711 219.793 300.012 220.495C299.312 221.197 298.363 221.593 297.372 221.597ZM170.698 36.2112C169.748 36.2129 168.838 36.5908 168.167 37.2621C167.496 37.9335 167.118 38.8435 167.116 39.7929V217.851C167.118 218.8 167.496 219.71 168.167 220.382C168.838 221.053 169.748 221.431 170.698 221.433H297.372C298.321 221.431 299.231 221.053 299.902 220.382C300.574 219.71 300.952 218.8 300.953 217.851V39.7929C300.952 38.8435 300.574 37.9335 299.902 37.2621C299.231 36.5908 298.321 36.2129 297.372 36.2112H170.698Z"
        fill="#EBEBEB" />
    <path d="M275.441 59.7091H199.279V150.644H275.441V59.7091Z" fill="#E6E6E6" />
    <path d="M277.343 59.7091H201.182V150.644H277.343V59.7091Z" fill="#F5F5F5" />
    <path d="M273.933 146.806V63.5402L204.6 63.5402V146.806H273.933Z" fill="white" />
    <path d="M273.926 146.806V63.5402H272.489V146.806H273.926Z" fill="#E6E6E6" />
    <path d="M275.927 127.08H202.593V132.23H275.927V127.08Z" fill="#F5F5F5" />
    <path
        d="M281.063 53.3656H195.56C195.421 53.3656 195.287 53.4209 195.189 53.5193C195.09 53.6177 195.035 53.7512 195.035 53.8904C195.035 54.0296 195.09 54.1631 195.189 54.2615C195.287 54.3599 195.421 54.4152 195.56 54.4152H281.063C281.202 54.4152 281.336 54.3599 281.434 54.2615C281.533 54.1631 281.588 54.0296 281.588 53.8904C281.588 53.7512 281.533 53.6177 281.434 53.5193C281.336 53.4209 281.202 53.3656 281.063 53.3656Z"
        fill="#E6E6E6" />
    <path
        d="M281.588 56.5144C283.037 56.5144 284.212 55.3396 284.212 53.8904C284.212 52.4412 283.037 51.2664 281.588 51.2664C280.139 51.2664 278.964 52.4412 278.964 53.8904C278.964 55.3396 280.139 56.5144 281.588 56.5144Z"
        fill="#E6E6E6" />
    <path
        d="M199.988 56.8293C199.8 56.8293 199.62 56.7546 199.487 56.6218C199.354 56.4889 199.279 56.3087 199.279 56.1208V54.5989C199.281 54.4115 199.356 54.2323 199.489 54.0998C199.621 53.9673 199.8 53.8921 199.988 53.8904C200.176 53.8904 200.356 53.965 200.489 54.0979C200.622 54.2308 200.696 54.411 200.696 54.5989V56.1208C200.696 56.3087 200.622 56.4889 200.489 56.6218C200.356 56.7546 200.176 56.8293 199.988 56.8293Z"
        fill="#E6E6E6" />
    <path
        d="M273.139 56.8293C272.951 56.8293 272.771 56.7546 272.638 56.6218C272.505 56.4889 272.431 56.3087 272.431 56.1208V54.5989C272.432 54.4115 272.508 54.2323 272.64 54.0998C272.773 53.9673 272.952 53.8921 273.139 53.8904C273.327 53.8904 273.507 53.965 273.64 54.0979C273.773 54.2308 273.848 54.411 273.848 54.5989V56.1208C273.848 56.3087 273.773 56.4889 273.64 56.6218C273.507 56.7546 273.327 56.8293 273.139 56.8293Z"
        fill="#E6E6E6" />
    <path opacity="0.5" d="M280.893 53.8904H202.593V92.0827H280.893V53.8904Z" fill="#E0E0E0" />
    <path
        d="M208.437 56.5144C209.887 56.5144 211.061 55.3396 211.061 53.8904C211.061 52.4412 209.887 51.2664 208.437 51.2664C206.988 51.2664 205.813 52.4412 205.813 53.8904C205.813 55.3396 206.988 56.5144 208.437 56.5144Z"
        fill="#E6E6E6" />
    <path d="M52.7554 160.412H47.9797L46.9629 127.894H51.3712L52.7554 160.412Z" fill="#F5F5F5" />
    <path
        d="M49.3575 250.854H40.5605C40.5605 250.357 40.7582 249.88 41.1101 249.528C41.4619 249.176 41.9391 248.978 42.4367 248.978H47.4813C47.9789 248.978 48.4561 249.176 48.808 249.528C49.1598 249.88 49.3575 250.357 49.3575 250.854Z"
        fill="#F0F0F0" />
    <path d="M46.3527 160.412H43.5713V162.111H46.3527V160.412Z" fill="#E0E0E0" />
    <path d="M63.1798 133.43H139.958V56.4421L63.1798 56.4421L63.1798 133.43Z" fill="#F0F0F0" />
    <path d="M63.1796 56.4421H61.8545V133.43H63.1796V56.4421Z" fill="#E0E0E0" />
    <path d="M69.9619 128.563H133.181V61.3032L69.9619 61.3032V128.563Z" fill="#FAFAFA" />
    <path
        d="M97.9345 113.658H105.216C112.926 113.658 119.176 107.408 119.176 99.6988V90.1671C119.176 82.4574 112.926 76.2074 105.216 76.2074H97.9345C90.2248 76.2074 83.9748 82.4574 83.9748 90.1671V99.6988C83.9748 107.408 90.2248 113.658 97.9345 113.658Z"
        fill="#F5F5F5" />
    <path d="M267.333 162.321H238.108V250.848H267.333V162.321Z" fill="#E6E6E6" />
    <path d="M253.065 250.854H267.333V238.633H238.108L253.065 250.854Z" fill="#FAFAFA" />
    <path d="M150.781 162.321H121.557V250.848H150.781V162.321Z" fill="#E6E6E6" />
    <path d="M267.327 162.321H138.331V246.643H267.327V162.321Z" fill="#FAFAFA" />
    <path d="M152.598 250.854H138.337V238.633H167.562L152.598 250.854Z" fill="#FAFAFA" />
    <path d="M256.267 193.743H149.404V214.847H256.267V193.743Z" fill="#F0F0F0" />
    <path d="M256.267 219.36H149.404V240.463H256.267V219.36Z" fill="#F0F0F0" />
    <path
        d="M230.813 196H174.85C173.768 196 172.73 195.57 171.965 194.805C171.199 194.039 170.77 193.001 170.77 191.919H234.894C234.894 192.455 234.789 192.986 234.585 193.482C234.38 193.977 234.079 194.427 233.7 194.806C233.321 195.186 232.871 195.486 232.376 195.691C231.88 195.896 231.349 196 230.813 196Z"
        fill="#FAFAFA" />
    <path d="M256.267 168.133H149.404V189.236H256.267V168.133Z" fill="#F0F0F0" />
    <path
        d="M230.813 170.389H174.85C173.767 170.388 172.729 169.956 171.964 169.19C171.199 168.424 170.77 167.385 170.77 166.302H234.894C234.894 166.839 234.789 167.37 234.585 167.866C234.38 168.362 234.08 168.812 233.701 169.192C233.322 169.572 232.872 169.873 232.376 170.078C231.881 170.284 231.35 170.389 230.813 170.389Z"
        fill="#FAFAFA" />
    <path
        d="M230.813 221.616H174.85C173.767 221.615 172.729 221.183 171.964 220.417C171.199 219.651 170.77 218.612 170.77 217.53H234.894C234.894 218.066 234.789 218.597 234.585 219.093C234.38 219.589 234.08 220.039 233.701 220.419C233.322 220.799 232.872 221.1 232.376 221.305C231.881 221.511 231.35 221.616 230.813 221.616Z"
        fill="#FAFAFA" />
    <path
        d="M164 280.479C234.247 280.479 291.192 277.155 291.192 273.053C291.192 268.952 234.247 265.628 164 265.628C93.7543 265.628 36.8086 268.952 36.8086 273.053C36.8086 277.155 93.7543 280.479 164 280.479Z"
        fill="#F5F5F5" />
    <path
        d="M49.5611 142.673H147.463C144.557 142.638 141.771 141.51 139.659 139.514C137.546 137.518 136.262 134.801 136.061 131.902L134.329 102.723H36.4346L38.1598 131.902C38.3606 134.801 39.6448 137.518 41.7571 139.514C43.8695 141.51 46.6554 142.638 49.5611 142.673Z"
        fill="#92E3A9" />
    <path opacity="0.6"
        d="M49.5611 142.673H147.463C144.557 142.638 141.771 141.51 139.659 139.514C137.546 137.518 136.262 134.801 136.061 131.902L134.329 102.723H36.4346L38.1598 131.902C38.3606 134.801 39.6448 137.518 41.7571 139.514C43.8695 141.51 46.6554 142.638 49.5611 142.673Z"
        fill="white" />
    <path
        d="M154.718 83.3119H67.568C66.1787 83.2956 64.8011 83.5678 63.5224 84.1115C62.2438 84.6551 61.092 85.4584 60.1398 86.4703C59.1877 87.4822 58.4561 88.6808 57.9913 89.9902C57.5264 91.2995 57.3385 92.6911 57.4394 94.0769L59.696 131.908C59.7989 133.295 59.6124 134.687 59.1483 135.997C58.6842 137.308 57.9527 138.507 57.0001 139.519C56.0476 140.532 54.895 141.335 53.6154 141.878C52.3358 142.421 50.9573 142.692 49.5674 142.673H147.462C148.852 142.692 150.231 142.421 151.51 141.878C152.79 141.335 153.943 140.532 154.895 139.519C155.848 138.507 156.579 137.308 157.043 135.997C157.507 134.687 157.694 133.295 157.591 131.908L157.834 136.002L155.354 94.1031C155.247 92.7148 155.431 91.3195 155.893 90.0061C156.356 88.6927 157.087 87.4901 158.04 86.4748C158.992 85.4596 160.146 84.654 161.428 84.1094C162.709 83.5649 164.09 83.2933 165.483 83.3119H154.718Z"
        fill="#92E3A9" />
    <path
        d="M165.483 83.3119H67.5684C70.474 83.3446 73.2607 84.4706 75.3735 86.4655C77.4863 88.4604 78.7703 91.1779 78.9696 94.0769L87.3992 236.225H185.294L176.884 94.1031C176.688 91.2005 175.406 88.4783 173.293 86.4785C171.18 84.4788 168.392 83.3482 165.483 83.3119Z"
        fill="#92E3A9" />
    <path opacity="0.8"
        d="M165.483 83.3119H67.5684C70.474 83.3446 73.2607 84.4706 75.3735 86.4655C77.4863 88.4604 78.7703 91.1779 78.9696 94.0769L87.3992 236.225H185.294L176.884 94.1031C176.688 91.2005 175.406 88.4783 173.293 86.4785C171.18 84.4788 168.392 83.3482 165.483 83.3119Z"
        fill="white" />
    <path
        d="M111.953 123.774H93.8084L92.7129 105.616H110.864L111.953 123.774ZM95.7764 121.635H109.664L108.896 107.748H94.9826L95.7764 121.635Z"
        fill="white" />
    <path
        d="M114.486 166.486H96.321L95.2451 148.322H113.41L114.486 166.486ZM98.3283 164.348H112.216L111.396 150.46H97.5083L98.3283 164.348Z"
        fill="white" />
    <path
        d="M117.011 209.198H98.8462L97.7441 191.034H115.909L117.011 209.198ZM100.86 207.06H114.748L113.921 193.172H100.034L100.86 207.06Z"
        fill="white" />
    <path d="M162.583 105.609H120.822V107.748H162.583V105.609Z" fill="white" />
    <path d="M158.149 113.626H121.295V115.764H158.149V113.626Z" fill="white" />
    <path d="M163.528 121.635H121.767V123.774H163.528V121.635Z" fill="white" />
    <path d="M165.109 148.322H123.348V150.46H165.109V148.322Z" fill="white" />
    <path d="M148.335 156.338H123.82V158.476H148.335V156.338Z" fill="white" />
    <path d="M136.953 164.348H124.299V166.486H136.953V164.348Z" fill="white" />
    <path d="M166.06 164.348H145.18V166.486H166.06V164.348Z" fill="white" />
    <path d="M167.635 191.034H125.874V193.172H167.635V191.034Z" fill="white" />
    <path d="M168.113 199.05H126.353V201.189H168.113V199.05Z" fill="white" />
    <path d="M149.923 207.06H126.825V209.198H149.923V207.06Z" fill="white" />
    <path
        d="M104.061 119.497C103.607 119.497 103.171 119.324 102.841 119.011L98.3999 114.8C98.2302 114.639 98.0938 114.447 97.9985 114.233C97.9032 114.02 97.8508 113.79 97.8444 113.556C97.8315 113.085 98.0065 112.627 98.331 112.284C98.6555 111.941 99.1028 111.742 99.5746 111.729C100.046 111.716 100.504 111.891 100.847 112.215L104.009 115.2L111.126 107.636C111.45 107.293 111.897 107.092 112.369 107.078C112.84 107.064 113.298 107.237 113.642 107.561C113.986 107.885 114.187 108.331 114.201 108.803C114.215 109.275 114.041 109.733 113.717 110.077L105.38 118.939C105.22 119.111 105.027 119.249 104.813 119.345C104.599 119.44 104.368 119.492 104.133 119.497H104.061Z"
        fill="#92E3A9" />
    <path
        d="M106.593 162.209C106.139 162.211 105.702 162.037 105.373 161.724L100.912 157.512C100.737 157.353 100.594 157.161 100.494 156.947C100.394 156.732 100.337 156.5 100.328 156.263C100.318 156.027 100.356 155.791 100.439 155.569C100.522 155.347 100.649 155.144 100.811 154.972C100.974 154.8 101.169 154.662 101.386 154.567C101.602 154.471 101.836 154.419 102.073 154.415C102.309 154.411 102.544 154.454 102.764 154.542C102.984 154.63 103.184 154.761 103.353 154.927L106.521 157.912L113.632 150.349C113.956 150.005 114.403 149.804 114.874 149.79C115.346 149.776 115.804 149.95 116.148 150.273C116.492 150.597 116.693 151.044 116.707 151.515C116.721 151.987 116.547 152.445 116.223 152.789L107.886 161.651C107.727 161.823 107.535 161.96 107.322 162.056C107.109 162.152 106.879 162.204 106.646 162.209H106.593Z"
        fill="#92E3A9" />
    <path
        d="M109.12 204.928C108.665 204.927 108.228 204.751 107.9 204.436L103.439 200.224C103.263 200.066 103.121 199.873 103.02 199.659C102.92 199.444 102.863 199.212 102.854 198.976C102.845 198.739 102.882 198.503 102.966 198.281C103.049 198.059 103.175 197.857 103.338 197.684C103.5 197.512 103.696 197.374 103.912 197.279C104.129 197.183 104.362 197.132 104.599 197.127C104.836 197.123 105.071 197.166 105.291 197.254C105.511 197.342 105.711 197.473 105.879 197.64L109.048 200.624L116.165 193.061C116.498 192.774 116.926 192.622 117.365 192.632C117.804 192.642 118.224 192.815 118.544 193.116C118.863 193.418 119.06 193.827 119.095 194.265C119.131 194.703 119.003 195.139 118.737 195.488L110.399 204.35C110.238 204.521 110.046 204.658 109.832 204.754C109.618 204.85 109.387 204.902 109.153 204.908L109.12 204.928Z"
        fill="#92E3A9" />
    <path d="M203.201 104.385L190.46 107.517L228.481 262.196L241.222 259.064L203.201 104.385Z"
        fill="#92E3A9" />
    <path opacity="0.2"
        d="M203.194 104.384L199.314 105.338L237.336 260.016L241.215 259.063L203.194 104.384Z"
        fill="black" />
    <path
        d="M240.26 261.365L230.385 263.792C229.594 263.987 229.11 264.786 229.304 265.578L230.958 272.305C231.153 273.096 231.952 273.58 232.744 273.386L242.618 270.959C243.409 270.764 243.893 269.965 243.699 269.173L242.045 262.446C241.851 261.654 241.051 261.17 240.26 261.365Z"
        fill="#92E3A9" />
    <path opacity="0.7"
        d="M240.26 261.365L230.385 263.792C229.594 263.987 229.11 264.786 229.304 265.578L230.958 272.305C231.153 273.096 231.952 273.58 232.744 273.386L242.618 270.959C243.409 270.764 243.893 269.965 243.699 269.173L242.045 262.446C241.851 261.654 241.051 261.17 240.26 261.365Z"
        fill="white" />
    <path
        d="M240.336 256.838L228.226 259.815C227.495 259.995 227.047 260.734 227.227 261.466L228.311 265.874C228.491 266.606 229.23 267.053 229.961 266.873L242.071 263.897C242.803 263.717 243.251 262.978 243.071 262.246L241.987 257.838C241.807 257.106 241.068 256.658 240.336 256.838Z"
        fill="#E0E0E0" />
    <path
        d="M203.202 104.37L190.463 107.505L191.959 96.8453L192.916 90.0098L196.938 95.6186L203.202 104.37Z"
        fill="#E0E0E0" />
    <path d="M196.938 95.6186L191.959 96.8453L192.917 90.0098L196.938 95.6186Z" fill="#92E3A9" />
    <path
        d="M236.107 94.2542C236.042 98.1902 235.281 105.61 237.354 108.03C232.589 109.597 228.317 112.383 224.962 116.112C222.121 111.468 225.828 108.968 225.828 108.968C229.915 107.656 229.666 104.58 228.806 101.752L236.107 94.2542Z"
        fill="#FFB573" />
    <path
        d="M223.755 112.104C224.837 108.083 221.787 107.512 226.871 105.544C230.846 103.969 238.357 103.746 240.122 105.012C241.1 105.721 239.755 108.201 239.755 108.201L223.755 112.104Z"
        fill="#263238" />
    <path
        d="M245.79 111.238C246.086 111.71 246.295 112.071 246.532 112.484C246.768 112.898 246.965 113.278 247.188 113.678C247.607 114.479 248.001 115.279 248.382 116.092C249.142 117.713 249.805 119.372 250.415 121.052C251.64 124.453 252.519 127.97 253.039 131.548L253.21 132.899C253.242 133.089 253.269 133.43 253.288 133.726C253.308 134.021 253.288 134.29 253.288 134.552C253.273 135.52 253.201 136.486 253.072 137.445C252.842 139.256 252.495 140.968 252.114 142.693C251.339 146.058 250.36 149.373 249.182 152.618C249.025 153.058 248.714 153.426 248.306 153.654C247.898 153.881 247.421 153.952 246.964 153.853C246.508 153.754 246.103 153.492 245.825 153.116C245.548 152.741 245.416 152.277 245.456 151.811C245.718 148.479 246.026 145.12 246.269 141.84C246.387 140.2 246.479 138.56 246.505 137.012C246.505 136.245 246.505 135.484 246.433 134.847L246.374 134.408L246.289 133.981L246.046 132.84C245.345 129.766 244.402 126.752 243.225 123.827C242.635 122.357 241.999 120.901 241.33 119.464C240.997 118.743 240.649 118.034 240.286 117.339L239.735 116.302L239.217 115.351L239.125 115.18C238.647 114.3 238.532 113.267 238.803 112.302C239.074 111.337 239.71 110.516 240.577 110.013C241.444 109.51 242.473 109.365 243.445 109.608C244.417 109.852 245.256 110.465 245.784 111.317L245.79 111.238Z"
        fill="#FFB573" />
    <path
        d="M244.032 153.944L244.576 153.038L246.112 150.454L248.926 152.048C249.51 154.672 247.725 156.994 247.725 156.994L246.932 157.65C246.661 157.885 246.311 158.009 245.953 157.995C245.595 157.982 245.255 157.833 245.003 157.578L244.393 157.014C244.009 156.61 243.766 156.092 243.701 155.539C243.636 154.985 243.752 154.426 244.032 153.944Z"
        fill="#FFB573" />
    <path
        d="M206.64 152.605L206.187 150.965C206.081 150.58 205.828 150.251 205.482 150.05C205.136 149.848 204.725 149.791 204.337 149.889L202.369 150.395L201.156 150.696C200.517 150.863 199.95 151.233 199.541 151.75C199.131 152.267 198.901 152.904 198.886 153.563V154.54C198.883 154.966 199.042 155.377 199.331 155.69C199.619 156.003 200.016 156.195 200.44 156.226L201.654 156.344C203.475 156.054 205.144 155.157 206.39 153.799C206.526 153.635 206.619 153.441 206.662 153.233C206.706 153.025 206.698 152.81 206.64 152.605Z"
        fill="#FFB573" />
    <path
        d="M242.51 108.352C245.954 109.88 249.11 113.521 251.694 120.258C250.868 123.033 242.333 127.579 242.333 127.579C242.333 127.579 231.686 105.006 242.51 108.352Z"
        fill="#92E3A9" />
    <path
        d="M214.02 116.978C214.053 119.477 209.913 125.27 214.676 128.629C215.089 133.686 215.647 138.665 216.729 146.964H242.201C239.781 137.78 241.873 131.613 245.757 115.476C245.979 114.609 246.01 113.704 245.85 112.823C245.69 111.943 245.341 111.107 244.827 110.374C244.314 109.641 243.648 109.027 242.876 108.575C242.103 108.123 241.242 107.843 240.352 107.755C239.335 107.656 238.259 107.571 237.163 107.512C233.311 107.236 229.444 107.236 225.592 107.512C224.339 107.623 223.046 107.781 221.806 107.951C219.64 108.267 217.659 109.354 216.229 111.012C214.799 112.67 214.014 114.788 214.02 116.978Z"
        fill="#92E3A9" />
    <path
        d="M222.456 114.544C222.516 116.42 222.456 118.218 222.456 120.055C222.456 121.891 222.338 123.708 222.22 125.545C222.017 129.269 221.579 132.976 220.908 136.645C220.83 137.111 220.705 137.596 220.593 138.068C220.482 138.541 220.384 139.013 220.233 139.512L220.023 140.24L219.911 140.607C219.869 140.772 219.816 140.934 219.754 141.092C219.479 141.799 219.104 142.462 218.639 143.06C217.999 143.891 217.299 144.673 216.546 145.402C215.857 146.091 215.155 146.714 214.447 147.37C211.657 149.774 208.692 151.966 205.578 153.93C205.187 154.176 204.72 154.273 204.264 154.204C203.807 154.135 203.39 153.905 203.089 153.554C202.788 153.204 202.623 152.757 202.623 152.295C202.623 151.834 202.79 151.387 203.091 151.037C205.433 148.368 207.847 145.717 210.097 143.093C210.648 142.437 211.186 141.781 211.698 141.125C212.178 140.543 212.617 139.927 213.01 139.282C213.168 139.039 213.266 138.744 213.181 138.908C213.095 139.072 213.181 138.823 213.181 138.751L213.24 138.462L213.364 137.891C213.456 137.524 213.509 137.111 213.574 136.71C213.64 136.31 213.719 135.91 213.758 135.49C214.204 132.177 214.414 128.688 214.539 125.198C214.663 121.708 214.742 118.152 214.762 114.702C214.756 114.196 214.85 113.694 215.038 113.225C215.227 112.755 215.506 112.328 215.859 111.966C216.573 111.236 217.548 110.82 218.57 110.808C219.591 110.797 220.575 111.192 221.305 111.906C222.035 112.62 222.452 113.595 222.463 114.616L222.456 114.544Z"
        fill="#FFB573" />
    <path
        d="M219.648 108.535C216.506 110.097 213.39 113.127 212.098 120.068C212.918 122.816 224.148 128.11 224.148 128.11C224.148 128.11 230.4 104.521 219.648 108.535Z"
        fill="#92E3A9" />
    <path
        d="M220.337 91.7482C220.422 92.2402 220.225 92.6994 219.897 92.7584C219.569 92.8175 219.241 92.4764 219.156 91.9778C219.071 91.4793 219.274 91.0266 219.596 90.9676C219.917 90.9085 220.258 91.2497 220.337 91.7482Z"
        fill="#263238" />
    <path d="M219.76 90.9609L218.507 90.856C218.507 90.856 219.261 91.6628 219.76 90.9609Z"
        fill="#263238" />
    <path
        d="M220.219 92.2992C219.961 93.5223 219.54 94.705 218.966 95.8154C219.253 95.9496 219.567 96.0191 219.884 96.0191C220.202 96.0191 220.515 95.9496 220.803 95.8154L220.219 92.2992Z"
        fill="#ED893E" />
    <path
        d="M219.038 88.3632C218.963 88.3627 218.891 88.3347 218.835 88.2845C218.807 88.2571 218.785 88.2244 218.77 88.1883C218.755 88.1523 218.747 88.1137 218.747 88.0746C218.747 88.0356 218.755 87.9969 218.77 87.9609C218.785 87.9248 218.807 87.8921 218.835 87.8647C219.155 87.5118 219.555 87.2398 220.001 87.071C220.446 86.9023 220.926 86.8415 221.4 86.8938C221.437 86.9009 221.473 86.9153 221.505 86.9364C221.537 86.9574 221.564 86.9846 221.586 87.0163C221.607 87.0481 221.622 87.0837 221.63 87.1213C221.637 87.1588 221.637 87.1974 221.629 87.2349C221.613 87.3135 221.567 87.3828 221.501 87.4281C221.435 87.4734 221.354 87.4912 221.275 87.4776C220.9 87.4435 220.522 87.4975 220.171 87.6353C219.82 87.7731 219.506 87.9909 219.255 88.2714C219.197 88.3294 219.12 88.3624 219.038 88.3632Z"
        fill="#263238" />
    <path
        d="M236.573 86.861C237.229 93.0274 237.623 95.6252 235.11 99.325C231.325 104.934 223.715 104.573 221.269 98.7805C219.064 93.5325 218.376 84.3485 223.86 80.7668C225.039 79.9622 226.41 79.4818 227.834 79.3737C229.257 79.2656 230.685 79.5336 231.972 80.1509C233.26 80.7681 234.363 81.7129 235.17 82.8906C235.978 84.0683 236.461 85.4375 236.573 86.861Z"
        fill="#FFB573" />
    <path
        d="M225.356 91.3677C221.42 90.6723 220.469 86.1525 221.925 84.1845C215.293 84.4797 210.826 77.0603 217.989 72.8291C225.153 68.5979 231.477 75.1514 230.965 77.6245C239.788 76.8242 244.957 84.0861 240.149 89.485C246.492 90.5149 255.991 97.6653 249.018 105.177C258.445 106.561 259.468 136.081 233.805 130.833C206.752 125.296 230.256 101.752 230.256 101.752C230.256 101.752 223.401 99.8235 225.356 91.3677Z"
        fill="#263238" />
    <path
        d="M250.487 107.099L249.93 106.757C252.311 102.887 252.704 99.3643 251.097 96.2614C249.031 92.3254 244.019 90.0032 240.129 89.7801L240.168 89.1241C244.235 89.3537 249.503 91.7481 251.681 95.9531C253.374 99.2331 252.96 103.077 250.487 107.099Z"
        fill="#263238" />
    <path
        d="M243.028 90.1475C245.291 89.7736 244.222 86.0803 242.556 85.1029C240.89 84.1254 232.906 85.713 233.785 88.2582C234.664 90.8035 239.991 90.6527 243.028 90.1475Z"
        fill="white" />
    <path
        d="M243.435 89.2161C245.692 88.7831 244.787 85.7917 243.094 84.8537C241.402 83.9156 234.429 84.6109 235.38 87.1234C236.331 89.6359 240.418 89.813 243.435 89.2161Z"
        fill="#92E3A9" />
    <path
        d="M219.793 84.9324C218.282 84.912 216.82 84.388 215.641 83.4433C213.758 81.9804 212.721 79.7893 213.017 77.8607C213.194 76.634 213.961 74.9481 216.638 73.8788L216.88 74.4889C214.991 75.2433 213.882 76.4569 213.666 77.9525C213.43 79.6581 214.368 81.6065 216.067 82.925C216.855 83.5822 217.804 84.0174 218.817 84.1858C219.829 84.3541 220.868 84.2495 221.827 83.8828L222.076 84.4929C221.352 84.7892 220.576 84.9386 219.793 84.9324Z"
        fill="#263238" />
    <path
        d="M226.91 92.0893C226.615 93.7031 226.523 94.3918 225.683 95.1462C225.445 95.4132 225.131 95.6018 224.783 95.6875C224.436 95.7731 224.07 95.7518 223.735 95.6263C223.4 95.5008 223.11 95.277 222.904 94.9842C222.698 94.6913 222.585 94.3431 222.58 93.9851C222.449 92.5026 222.954 90.1147 224.457 89.6162C225.959 89.1176 227.205 90.4821 226.91 92.0893Z"
        fill="#FFB573" />
    <path
        d="M223.289 97.2258L222.758 96.2746C222.735 96.2357 222.724 96.1916 222.724 96.1466C222.724 96.1017 222.735 96.0576 222.758 96.0187L223.289 95.0741C223.312 95.0331 223.345 94.9989 223.386 94.9751C223.426 94.9513 223.472 94.9387 223.519 94.9387C223.566 94.9387 223.612 94.9513 223.652 94.9751C223.692 94.9989 223.726 95.0331 223.748 95.0741L224.28 96.0187C224.302 96.0576 224.314 96.1017 224.314 96.1466C224.314 96.1916 224.302 96.2357 224.28 96.2746L223.748 97.2258C223.726 97.2668 223.692 97.301 223.652 97.3248C223.612 97.3486 223.566 97.3611 223.519 97.3611C223.472 97.3611 223.426 97.3486 223.386 97.3248C223.345 97.301 223.312 97.2668 223.289 97.2258Z"
        fill="white" />
    <path
        d="M216.743 146.944C216.743 146.944 215.844 179.836 214.643 201.471C213.371 221.328 211.737 267.766 211.737 267.766L216.756 268.028C216.756 268.028 227.855 228.951 227.389 205.341C240.418 172.318 235.734 147.935 235.734 147.935L216.743 146.944Z"
        fill="#FFB573" />
    <path
        d="M212.111 265.68C212 265.599 211.865 265.556 211.728 265.556C211.59 265.556 211.456 265.599 211.344 265.68C208.935 267.468 206.018 268.438 203.019 268.448C199.687 268.593 200.507 270.416 205.276 271.026C210.885 271.722 212.085 272.876 213.896 273.329C215.706 273.782 217.143 272.404 217.11 268.599C217.107 268.469 217.066 268.343 216.991 268.237C216.916 268.131 216.811 268.049 216.69 268.002C215.078 267.411 213.541 266.631 212.111 265.68Z"
        fill="#263238" />
    <path
        d="M223.4 146.944C223.4 146.944 232.584 185.871 237.905 204.016C243.5 223.04 247.935 266.454 247.902 267.891H252.245C252.245 267.891 257.854 232.703 250.933 203.996C250.277 157.42 242.247 146.977 242.247 146.977L223.4 146.944Z"
        fill="#FFB573" />
    <path
        d="M247.791 266.336C247.678 266.29 247.552 266.281 247.434 266.312C247.316 266.343 247.211 266.411 247.135 266.507C246.013 267.963 245.199 269.577 241.887 270.994C239.145 272.161 240.66 273.762 244.95 273.178C249.995 272.483 250.067 273.303 251.766 273.303C253.465 273.303 254.265 271.61 253.025 267.93C252.986 267.808 252.914 267.7 252.816 267.616C252.719 267.533 252.601 267.478 252.474 267.458C250.874 267.275 249.301 266.898 247.791 266.336Z"
        fill="#263238" />
    <path
        d="M216.742 146.944C216.742 146.944 212.413 175.769 213.023 215.168C226.719 215.09 240.33 212.99 253.413 208.936C253.413 208.936 253.609 157.886 242.215 146.964C235.635 145.192 216.893 146.367 216.742 146.944Z"
        fill="#263238" />
    <path opacity="0.2"
        d="M217.247 209.572C217.205 209.572 217.164 209.556 217.134 209.527C217.103 209.497 217.085 209.457 217.083 209.415C215.857 184.257 218.835 148.741 218.861 148.407C218.862 148.385 218.867 148.364 218.877 148.344C218.886 148.324 218.9 148.307 218.916 148.292C218.933 148.278 218.952 148.268 218.973 148.261C218.994 148.255 219.016 148.253 219.038 148.256C219.06 148.258 219.081 148.264 219.1 148.273C219.119 148.283 219.136 148.297 219.15 148.313C219.165 148.33 219.175 148.349 219.182 148.369C219.188 148.39 219.191 148.412 219.189 148.433C219.156 148.794 216.185 184.284 217.411 209.441C217.413 209.463 217.41 209.485 217.403 209.505C217.396 209.526 217.385 209.545 217.37 209.561C217.355 209.577 217.337 209.59 217.317 209.599C217.297 209.607 217.276 209.612 217.254 209.612L217.247 209.572Z"
        fill="white" />
    <path opacity="0.2" d="M234.389 184.415L238.121 164.643L239.624 169.373L234.389 184.415Z"
        fill="black" />
</svg>
