<svg width="361" height="184" viewBox="0 0 361 184" fill="none" xmlns="http://www.w3.org/2000/svg">
    <rect width="361" height="184" rx="16" fill="url(#paint0_radial_501_7816)" />
    <mask id="mask0_501_7816" style="mask-type:alpha" maskUnits="userSpaceOnUse" x="0" y="0"
        width="361" height="184">
        <rect width="361" height="184" rx="12" fill="#ED713C" />
    </mask>
    <g mask="url(#mask0_501_7816)">
        <path
            d="M324.644 199.195C321.872 200.95 319.039 201.294 316.291 199.275C313.555 197.268 313.3 194.538 314.354 191.178C310.77 191.912 307.538 191.889 305.407 188.861C303.591 186.269 304.027 183.723 305.819 181.28C306.037 181.074 306.267 180.867 306.485 180.661C307.768 179.789 309.257 178.94 310.746 179.227C313.47 179.743 312.974 178.55 313.119 176.727C313.325 174.215 313.034 173.183 310.068 173.584C308.991 173.733 307.744 172.816 306.569 172.391C306.255 172.093 305.94 171.795 305.625 171.497C304.051 168.997 303.567 166.439 305.48 163.916C307.598 161.106 310.601 160.865 314.281 161.806C313.349 158.365 313.482 155.348 316.678 153.353C319.402 151.644 322.09 152.08 324.656 153.766C324.874 153.972 325.092 154.19 325.31 154.396C325.83 155.612 326.968 156.931 326.775 158.044C326.242 161.026 327.743 160.487 329.922 160.659C332.549 160.865 332.767 160.188 332.695 158.067C332.658 156.862 333.651 155.635 334.184 154.419C334.414 154.19 334.644 153.972 334.874 153.743C337.622 151.908 340.455 151.598 343.215 153.594C345.963 155.578 346.29 158.296 345.225 161.633C348.723 161.06 351.992 160.922 354.123 163.973C355.939 166.565 355.527 169.1 353.796 171.577C353.529 171.83 353.263 172.07 352.997 172.323C351.689 172.804 350.321 173.802 349.099 173.665C346.435 173.378 346.459 174.272 346.496 176.417C346.532 178.493 346.399 179.491 349.099 179.204C350.333 179.078 351.689 180.076 352.997 180.557C353.263 180.81 353.542 181.062 353.808 181.326C355.648 183.929 356.011 186.613 353.893 189.205C351.798 191.774 348.965 192.187 345.418 191.086C346.145 194.55 346.024 197.715 342.634 199.711C340.043 201.236 337.465 200.823 334.995 199.321C334.656 199 334.329 198.69 333.99 198.369C332.683 196.534 332.344 194.492 332.707 192.359C328.99 191.958 325.903 192.061 326.278 196.729C326.327 197.291 325.673 197.899 325.334 198.484C325.128 198.725 324.886 198.965 324.644 199.195ZM342.452 188.448C340.322 187.221 344.801 183.367 340.043 183.356C337.61 183.344 337.053 184.136 337.065 186.258C337.101 190.719 341.108 186.498 342.452 188.448ZM317.211 188.506C318.518 186.808 323.276 190.822 322.453 185.329C321.799 180.959 318.857 184.4 317.247 183.276C317.901 185.088 317.199 186.613 317.211 188.506ZM342.61 164.524C336.98 165.074 337.113 165.097 336.956 166.336C336.399 170.637 339.825 169.169 342.501 169.845C341.702 167.85 342.319 166.221 342.61 164.524ZM317.162 164.294C317.477 166.233 317.671 167.907 317.356 169.777C318.906 168.458 322.017 171.715 322.55 167.38C323.191 162.023 318.421 166.278 317.162 164.294ZM327.61 176.119C327.707 177.266 326.799 178.883 329.256 178.436C330.503 178.206 332.114 179.044 331.896 176.589C331.75 174.926 331.666 174.272 329.644 174.399C328.131 174.479 327.041 174.341 327.61 176.119Z"
            fill="white" fill-opacity="0.07" />
        <path
            d="M325.321 154.407C325.103 154.2 324.886 153.982 324.668 153.776C324.631 153.512 324.668 153.214 324.559 152.985C323.13 149.991 323.082 147.158 326.011 144.979C328.396 143.201 331.084 143.19 333.493 144.956C336.447 147.124 336.399 149.957 335.006 152.95C334.897 153.191 334.922 153.478 334.885 153.742C334.655 153.971 334.425 154.189 334.195 154.418C331.229 155.554 328.275 155.519 325.321 154.407Z"
            fill="white" fill-opacity="0.07" />
        <path
            d="M353.833 181.325C353.567 181.072 353.288 180.82 353.022 180.556C351.775 177.815 351.799 175.063 353.022 172.321C353.288 172.069 353.554 171.828 353.821 171.576C354.765 171.301 355.685 170.957 356.654 170.773C359.39 170.28 361.75 170.911 363.324 173.216C364.765 175.326 364.765 177.54 363.336 179.65C361.775 181.967 359.414 182.598 356.678 182.105C355.697 181.944 354.777 181.6 353.833 181.325Z"
            fill="white" fill-opacity="0.07" />
        <path
            d="M306.497 180.672C306.279 180.878 306.049 181.084 305.831 181.291C302.368 182.335 298.894 183.275 296.315 179.743C294.814 177.69 294.778 175.442 296.218 173.331C298.676 169.718 302.163 170.521 305.661 171.519C305.976 171.817 306.291 172.116 306.606 172.414C307.731 175.166 307.622 177.919 306.497 180.672Z"
            fill="white" fill-opacity="0.07" />
        <path
            d="M357.839 164.109C354.631 163.914 351.967 160.99 352.282 158.008C352.597 155.118 355.49 152.743 358.493 152.927C361.701 153.122 364.376 156.047 364.049 159.029C363.735 161.919 360.841 164.281 357.839 164.109Z"
            fill="white" fill-opacity="0.07" />
        <path
            d="M301.158 152.95C304.148 152.836 306.981 155.244 307.223 158.123C307.477 161.093 304.766 163.961 301.57 164.087C298.41 164.201 295.492 161.529 295.492 158.513C295.492 155.657 298.131 153.065 301.158 152.95Z"
            fill="white" fill-opacity="0.07" />
        <path
            d="M354.607 149.566C354.595 152.606 351.653 155.278 348.457 155.14C345.406 155.003 342.779 152.399 342.791 149.521C342.803 146.481 345.757 143.809 348.941 143.946C351.992 144.084 354.619 146.699 354.607 149.566Z"
            fill="white" fill-opacity="0.07" />
        <path
            d="M310.855 143.981C314.039 143.993 316.848 146.78 316.703 149.773C316.557 152.641 313.821 155.129 310.807 155.107C307.623 155.095 304.814 152.308 304.959 149.315C305.105 146.447 307.853 143.97 310.855 143.981Z"
            fill="white" fill-opacity="0.07" />
        <path
            d="M297.332 185.362C297.078 188.527 295.383 190.466 291.957 190.488C288.567 190.511 286.582 188.699 286.545 185.476C286.509 182.265 288.434 180.396 291.836 180.338C295.25 180.304 297.005 182.196 297.332 185.362Z"
            fill="white" fill-opacity="0.07" />
        <path
            d="M292.114 162.332C295.443 162.722 297.38 164.465 297.247 167.677C297.113 170.899 295.055 172.654 291.69 172.551C288.288 172.436 286.436 170.487 286.545 167.287C286.654 164.041 288.772 162.504 292.114 162.332Z"
            fill="white" fill-opacity="0.07" />
        <path
            d="M325.77 140.449C325.419 143.82 323.639 145.713 320.225 145.655C316.823 145.598 314.886 143.706 314.922 140.494C314.971 137.272 316.968 135.448 320.37 135.471C323.833 135.494 325.455 137.512 325.77 140.449Z"
            fill="white" fill-opacity="0.07" />
        <path
            d="M344.717 140.633C344.402 143.787 342.646 145.599 339.269 145.714C336.048 145.817 333.555 143.363 333.809 140.312C334.087 137.135 336.061 135.38 339.402 135.461C342.792 135.541 344.474 137.502 344.717 140.633Z"
            fill="white" fill-opacity="0.07" />
        <path
            d="M287.405 176.416C286.92 179.317 285.298 181.129 282.32 181.049C279.366 180.969 277.502 179.145 277.574 176.347C277.647 173.548 279.572 171.794 282.538 171.851C285.528 171.908 287.017 173.824 287.405 176.416Z"
            fill="white" fill-opacity="0.07" />
        <path
            d="M329.692 126.893C332.61 127.214 334.583 128.693 334.643 131.526C334.692 134.347 332.828 136.171 329.861 136.228C326.883 136.286 324.958 134.508 324.886 131.698C324.813 128.865 326.75 127.328 329.692 126.893Z"
            fill="white" fill-opacity="0.07" />
        <path
            d="M306.316 140.507C305.989 143.248 304.439 145.117 301.473 145.175C298.507 145.232 296.582 143.466 296.522 140.679C296.449 137.88 298.313 136.057 301.267 135.977C304.233 135.908 305.856 137.72 306.316 140.507Z"
            fill="white" fill-opacity="0.07" />
        <path
            d="M358.093 135.827C361.023 136.16 363.02 137.639 363.081 140.472C363.141 143.305 361.253 145.152 358.275 145.209C355.284 145.278 353.347 143.477 353.263 140.667C353.19 137.823 355.139 136.286 358.093 135.827Z"
            fill="white" fill-opacity="0.07" />
        <path
            d="M296.86 149.407C296.521 152.217 294.971 154.086 292.005 154.143C289.039 154.201 287.114 152.434 287.054 149.647C286.981 146.838 288.858 145.025 291.8 144.957C294.778 144.876 296.376 146.711 296.86 149.407Z"
            fill="white" fill-opacity="0.07" />
        <path
            d="M348.7 127.316C351.569 127.523 353.24 128.945 353.167 131.709C353.106 134.485 351.375 135.93 348.494 135.849C345.806 135.769 344.269 134.267 344.232 131.721C344.184 128.945 345.831 127.523 348.7 127.316Z"
            fill="white" fill-opacity="0.07" />
        <path
            d="M282.72 162.791C279.682 162.619 277.975 161.277 277.975 158.513C277.987 155.76 279.633 154.269 282.527 154.292C285.202 154.315 286.764 155.76 286.873 158.306C287.006 161.082 285.359 162.47 282.72 162.791Z"
            fill="white" fill-opacity="0.07" />
        <path
            d="M315.334 131.779C315.007 134.485 313.421 135.965 310.54 135.816C307.622 135.655 306.194 133.935 306.387 131.24C306.569 128.705 308.228 127.34 310.903 127.386C313.833 127.443 315.201 129.083 315.334 131.779Z"
            fill="white" fill-opacity="0.07" />
        <path
            d="M272.974 189.17C270.552 188.929 269.003 187.668 269.063 185.294C269.112 183.126 270.589 181.738 272.877 181.727C275.383 181.715 276.908 183.172 276.848 185.546C276.811 187.714 275.322 188.918 272.974 189.17Z"
            fill="white" fill-opacity="0.07" />
        <path
            d="M339.111 118.842C341.314 118.979 342.924 120.058 343.142 122.237C343.384 124.634 341.919 126.216 339.437 126.343C336.931 126.469 335.333 125.001 335.297 122.615C335.273 120.447 336.75 119.197 339.111 118.842Z"
            fill="white" fill-opacity="0.07" />
        <path
            d="M272.852 163.731C275.031 163.858 276.617 164.913 276.835 167.092C277.065 169.466 275.637 171.037 273.167 171.163C270.673 171.29 269.099 169.844 269.063 167.47C269.039 165.303 270.479 164.064 272.852 163.731Z"
            fill="white" fill-opacity="0.07" />
        <path
            d="M324.305 122.569C324.123 124.679 322.937 126.182 320.649 126.354C318.131 126.537 316.472 125.126 316.375 122.764C316.291 120.39 317.864 118.899 320.383 118.91C322.683 118.922 323.966 120.344 324.305 122.569Z"
            fill="white" fill-opacity="0.07" />
        <path
            d="M295.457 131.686C295.239 133.716 294.125 134.944 291.934 134.932C289.524 134.921 288.265 133.579 288.411 131.342C288.544 129.289 289.924 128.2 292.091 128.291C294.27 128.372 295.323 129.645 295.457 131.686Z"
            fill="white" fill-opacity="0.07" />
        <path
            d="M361.543 122.523C361.362 124.381 360.333 125.665 358.384 125.757C356.205 125.86 354.836 124.61 354.861 122.546C354.885 120.688 356.18 119.518 358.141 119.506C360.139 119.483 361.204 120.71 361.543 122.523Z"
            fill="white" fill-opacity="0.07" />
        <path
            d="M304.717 122.649C304.427 124.461 303.398 125.723 301.448 125.734C299.306 125.746 297.962 124.45 298.095 122.419C298.204 120.619 299.524 119.449 301.485 119.529C303.434 119.598 304.451 120.837 304.717 122.649Z"
            fill="white" fill-opacity="0.07" />
        <path
            d="M282.563 143.97C280.19 143.729 278.895 142.663 278.919 140.587C278.943 138.304 280.372 137.123 282.733 137.261C284.9 137.398 286.026 138.706 285.941 140.759C285.844 142.869 284.416 143.775 282.563 143.97Z"
            fill="white" fill-opacity="0.07" />
        <path
            d="M276.279 149.636C275.916 151.471 274.826 152.698 272.841 152.618C270.892 152.538 269.632 151.311 269.705 149.441C269.778 147.595 271.085 146.402 273.059 146.471C275.044 146.539 276.061 147.801 276.279 149.636Z"
            fill="white" fill-opacity="0.07" />
        <path
            d="M313.374 113.68C313.18 115.056 312.393 115.997 310.916 116.008C309.221 116.02 308.228 115.022 308.362 113.428C308.47 112.063 309.475 111.214 310.964 111.294C312.441 111.386 313.204 112.304 313.374 113.68Z"
            fill="white" fill-opacity="0.07" />
        <path
            d="M332.61 113.669C332.368 115.607 331.23 116.479 329.402 116.307C327.744 116.146 326.86 115.091 326.969 113.52C327.09 111.696 328.301 110.859 330.141 111.019C331.811 111.168 332.562 112.258 332.61 113.669Z"
            fill="white" fill-opacity="0.07" />
        <path
            d="M351.301 113.577C350.998 115.297 350.054 116.215 348.395 116.043C346.979 115.894 346.083 114.976 346.18 113.577C346.289 111.994 347.354 111.134 349.001 111.283C350.466 111.409 351.119 112.43 351.301 113.577Z"
            fill="white" fill-opacity="0.07" />
        <path
            d="M266.037 158.513C265.855 159.889 265.081 160.841 263.604 160.864C261.909 160.899 260.904 159.912 261.013 158.318C261.11 156.953 262.09 156.093 263.592 156.162C265.081 156.219 265.843 157.137 266.037 158.513Z"
            fill="white" fill-opacity="0.07" />
        <path
            d="M266.292 176.462C266.171 178.148 265.214 179.134 263.338 179.065C261.679 179.008 260.735 178.068 260.723 176.508C260.711 174.73 261.776 173.778 263.64 173.835C265.311 173.881 266.159 174.845 266.292 176.462Z"
            fill="white" fill-opacity="0.07" />
        <path
            d="M137.607 225.114L136.714 224.468C148.594 209.69 154.875 192.037 154.875 173.409C154.875 144.551 139.55 118.002 113.879 102.389L114.488 101.493C140.485 117.295 155.999 144.183 155.999 173.409C155.999 192.266 149.634 210.148 137.607 225.114Z"
            fill="white" fill-opacity="0.07" />
        <path
            d="M65.8666 258.799C16.1624 258.799 -24.2773 220.488 -24.2773 173.399C-24.2773 126.311 16.1624 88 65.8666 88V89.0647C16.7822 89.0647 -23.1429 126.898 -23.1429 173.39C-23.1429 219.891 16.7927 257.714 65.8666 257.714C80.698 257.714 95.3823 254.192 108.323 247.524L108.859 248.46C95.75 255.237 80.8765 258.799 65.8666 258.799Z"
            fill="white" fill-opacity="0.07" />
        <path
            d="M23.2108 239.136C-1.07405 224.965 -15.5693 200.387 -15.5693 173.399H-13.311C-13.311 199.64 0.785122 223.533 24.3977 237.315L23.2108 239.136Z"
            fill="white" fill-opacity="0.07" />
        <path
            d="M65.8672 250.559C56.9389 250.559 48.1682 249.195 39.7861 246.519L40.5109 244.499C48.6619 247.106 57.191 248.429 65.8776 248.429C106.664 248.429 140.539 219.482 144.646 181.091L146.894 181.31C142.65 220.775 107.819 250.559 65.8672 250.559Z"
            fill="white" fill-opacity="0.07" />
        <path
            d="M144.037 161.417C141.085 144.012 131.653 128.061 117.462 116.508C103.124 104.825 84.7951 98.3971 65.8672 98.3971C50.5841 98.3971 35.7527 102.527 22.9695 110.348C8.07506 119.463 -3.29009 133.196 -9.03569 149.018L-11.168 148.321C-5.26481 132.051 6.42596 117.931 21.7405 108.557C34.8913 100.517 50.1429 96.2676 65.8567 96.2676C85.3308 96.2676 104.175 102.885 118.922 114.896C133.512 126.777 143.217 143.187 146.253 161.088L144.037 161.417Z"
            fill="white" fill-opacity="0.07" />
        <path
            d="M65.8664 229.124C33.4306 229.124 7.04492 204.127 7.04492 173.398C7.04492 160.96 11.278 149.197 19.2714 139.386L21.057 140.689C13.3682 150.133 9.30324 161.437 9.30324 173.398C9.30324 202.943 34.6805 226.984 65.8664 226.984C71.4019 226.984 76.8744 226.228 82.1158 224.735L82.7671 226.785C77.3051 228.348 71.612 229.124 65.8664 229.124Z"
            fill="white" fill-opacity="0.07" />
        <path
            d="M105.592 214.496L104.069 212.924C115.739 202.794 122.43 188.395 122.43 173.409C122.43 162.861 119.195 152.651 113.082 143.884L114.962 142.71C121.327 151.825 124.688 162.443 124.688 173.419C124.678 188.992 117.724 203.968 105.592 214.496Z"
            fill="white" fill-opacity="0.07" />
        <path
            d="M101.054 131.446C90.9597 123.833 78.7857 119.813 65.866 119.813C54.5324 119.813 43.5979 122.978 34.239 128.968L32.9785 127.197C42.7051 120.967 54.0807 117.684 65.866 117.684C79.3109 117.684 91.9681 121.863 102.461 129.784L101.054 131.446Z"
            fill="white" fill-opacity="0.07" />
        <path
            d="M31.4251 206.05C22.2237 197.333 17.1504 185.74 17.1504 173.411C17.1504 147.966 38.9984 127.258 65.8672 127.258C92.7255 127.258 114.584 147.966 114.584 173.411H113.46C113.46 148.553 92.1162 128.333 65.8777 128.333C39.6391 128.333 18.2953 148.553 18.2953 173.411C18.2953 185.451 23.2426 196.776 32.2444 205.294L31.4251 206.05Z"
            fill="white" fill-opacity="0.07" />
        <path
            d="M65.8661 202.108C49.1545 202.108 35.5625 189.231 35.5625 173.399C35.5625 157.567 49.1545 144.69 65.8661 144.69V146.83C50.4044 146.83 37.8208 158.751 37.8208 173.399C37.8208 188.047 50.4044 199.968 65.8661 199.968C81.3277 199.968 93.9113 188.047 93.9113 173.399H96.1696C96.1591 189.231 82.5672 202.108 65.8661 202.108Z"
            fill="white" fill-opacity="0.07" />
        <path
            d="M65.8672 187.668C57.5586 187.668 50.8047 181.27 50.8047 173.399H51.9286C51.9286 180.673 58.1784 186.594 65.8567 186.594C73.535 186.594 79.7848 180.673 79.7848 173.399C79.7848 166.124 73.535 160.204 65.8567 160.204C61.5921 160.204 57.6217 162.015 54.9537 165.179L54.0714 164.512C56.9494 161.089 61.2455 159.129 65.8567 159.129C74.1652 159.129 80.9192 165.527 80.9192 173.399C80.9192 181.27 74.1652 187.668 65.8672 187.668Z"
            fill="white" fill-opacity="0.07" />
        <path
            d="M281.815 21.0449L280.995 20.4503C291.915 6.86616 297.69 -9.36168 297.69 -26.486C297.69 -53.014 283.602 -77.4198 260.003 -91.7724L260.563 -92.5957C284.461 -78.0693 298.723 -53.3525 298.723 -26.486C298.723 -9.15128 292.871 7.28694 281.815 21.0449Z"
            fill="white" fill-opacity="0.07" />
        <path
            d="M215.866 52.0094C170.175 52.0094 133 16.7911 133 -26.4953C133 -69.7817 170.175 -105 215.866 -105V-104.021C170.745 -104.021 134.043 -69.242 134.043 -26.5045C134.043 16.2423 170.754 51.0123 215.866 51.0123C229.5 51.0123 242.999 47.7741 254.895 41.6452L255.387 42.5051C243.337 48.7346 229.664 52.0094 215.866 52.0094Z"
            fill="white" fill-opacity="0.07" />
        <path
            d="M176.654 33.9349C154.33 20.9087 141.005 -1.68585 141.005 -26.4941H143.081C143.081 -2.37192 156.039 19.5915 177.745 32.2609L176.654 33.9349Z"
            fill="white" fill-opacity="0.07" />
        <path
            d="M215.867 44.4356C207.66 44.4356 199.597 43.1823 191.892 40.7216L192.558 38.8647C200.051 41.2613 207.891 42.478 215.877 42.478C253.37 42.478 284.51 15.8676 288.285 -19.4238L290.352 -19.2226C286.451 17.0568 254.432 44.4356 215.867 44.4356Z"
            fill="white" fill-opacity="0.07" />
        <path
            d="M215.866 24.7313C186.049 24.7313 161.794 1.75256 161.794 -26.4952C161.794 -37.9297 165.685 -48.7422 173.033 -57.7617L174.675 -56.5634C167.607 -47.8823 163.87 -37.4906 163.87 -26.4952C163.87 0.663998 187.198 22.7646 215.866 22.7646C220.955 22.7646 225.986 22.0694 230.804 20.6972L231.403 22.5816C226.382 24.0178 221.148 24.7313 215.866 24.7313Z"
            fill="white" fill-opacity="0.07" />
        <path
            d="M252.384 11.2838L250.984 9.83842C261.712 0.526169 267.863 -12.7104 267.863 -26.4867C267.863 -36.1831 264.889 -45.5686 259.269 -53.6276L260.997 -54.707C266.849 -46.3278 269.939 -36.5674 269.939 -26.4776C269.929 -12.1616 263.537 1.6056 252.384 11.2838Z"
            fill="white" fill-opacity="0.07" />
        <path
            d="M215.866 15.9307C208.585 15.9307 201.353 14.2384 194.961 11.0367L195.444 10.1677C201.691 13.2962 208.749 14.9519 215.856 14.9519C235.486 14.9519 252.828 2.44713 258.033 -15.4639L259.027 -15.1986C253.716 3.13321 235.959 15.9307 215.866 15.9307Z"
            fill="white" fill-opacity="0.07" />
        <path
            d="M184.204 3.51662C175.746 -4.49667 171.082 -15.1536 171.082 -26.4875C171.082 -49.8779 191.166 -68.9141 215.866 -68.9141C240.556 -68.9141 260.649 -49.8779 260.649 -26.4875H259.616C259.616 -49.3382 239.995 -67.9261 215.875 -67.9261C191.755 -67.9261 172.135 -49.3382 172.135 -26.4875C172.135 -15.4189 176.682 -5.00892 184.957 2.82143L184.204 3.51662Z"
            fill="white" fill-opacity="0.07" />
    </g>
    <path
        d="M27.0983 164.212V159.28H28.2023C29.5103 159.28 30.5783 160.048 30.5783 161.752C30.5783 163.456 29.5103 164.212 28.2023 164.212H27.0983ZM28.2743 166C30.8423 166 32.5583 164.38 32.5583 161.752C32.5583 159.124 30.8423 157.492 28.2863 157.492H25.2023V166H28.2743ZM35.3854 161.74C35.3854 159.964 36.6574 159.16 37.8454 159.16C39.0214 159.16 40.2934 159.964 40.2934 161.74C40.2934 163.516 39.0214 164.308 37.8454 164.308C36.6574 164.308 35.3854 163.516 35.3854 161.74ZM33.4174 161.752C33.4174 164.44 35.4454 166.18 37.8454 166.18C40.2334 166.18 42.2614 164.44 42.2614 161.752C42.2614 159.052 40.2334 157.312 37.8454 157.312C35.4454 157.312 33.4174 159.052 33.4174 161.752ZM49.1805 166V164.188H45.5085V157.492H43.6125V166H49.1805ZM56.1328 166H58.1968L55.0288 157.492H52.8328L49.6288 166H51.6208L52.2328 164.272H55.5208L56.1328 166ZM53.9008 159.604L54.9208 162.544H52.8568L53.9008 159.604ZM61.1533 161.308V159.136H62.2573C62.9773 159.136 63.4693 159.544 63.4693 160.228C63.4693 160.888 62.9773 161.308 62.2573 161.308H61.1533ZM62.4493 162.94C64.1773 162.94 65.3653 161.824 65.3653 160.216C65.3653 158.632 64.1773 157.492 62.4493 157.492H59.2453V166H61.1413V162.94H62.4493ZM68.0807 161.74C68.0807 159.964 69.3527 159.16 70.5407 159.16C71.7167 159.16 72.9887 159.964 72.9887 161.74C72.9887 163.516 71.7167 164.308 70.5407 164.308C69.3527 164.308 68.0807 163.516 68.0807 161.74ZM66.1127 161.752C66.1127 164.44 68.1407 166.18 70.5407 166.18C72.9287 166.18 74.9567 164.44 74.9567 161.752C74.9567 159.052 72.9287 157.312 70.5407 157.312C68.1407 157.312 66.1127 159.052 66.1127 161.752ZM84.6609 166V164.2H81.1569V162.568H84.3249V160.9H81.1569V159.28H84.6489V157.492H79.2609V166H84.6609ZM95.893 166V157.492H93.289L91.069 163.24L88.729 157.492H86.257V166H88.057V160.432L90.277 166H91.813L94.033 160.36V166H95.893ZM103.141 166V164.2H99.6374V162.568H102.805V160.9H99.6374V159.28H103.129V157.492H97.7414V166H103.141ZM109.885 166H112.249L108.925 161.176L112.237 157.492H109.741L106.633 161.068V157.492H104.737V166H106.633V163.72L107.593 162.652L109.885 166ZM118.98 166H121.044L117.876 157.492H115.68L112.476 166H114.468L115.08 164.272H118.368L118.98 166ZM116.748 159.604L117.768 162.544H115.704L116.748 159.604Z"
        fill="white" />
    <path
        d="M177.563 162.112C177.563 161.488 177.635 160.876 177.851 160.42C178.067 159.988 178.415 159.7 178.991 159.7C179.579 159.7 179.915 159.988 180.131 160.42C180.359 160.876 180.431 161.488 180.431 162.112C180.431 162.736 180.359 163.348 180.131 163.804C179.915 164.236 179.579 164.524 178.991 164.524C178.415 164.524 178.067 164.236 177.851 163.804C177.635 163.348 177.563 162.736 177.563 162.112ZM175.667 162.112C175.667 163.072 175.811 164.044 176.351 164.86C176.867 165.628 177.731 166.192 178.991 166.192C180.263 166.192 181.127 165.628 181.643 164.86C182.183 164.044 182.327 163.072 182.327 162.112C182.327 161.152 182.183 160.18 181.643 159.364C181.127 158.584 180.263 158.032 178.991 158.032C177.731 158.032 176.867 158.584 176.351 159.364C175.811 160.18 175.667 161.152 175.667 162.112ZM186.746 166V158.212H185.126C184.994 159.004 184.166 159.664 183.002 159.676V160.936H184.862V166H186.746ZM193.538 157.324H191.906L187.598 166.168H189.218L193.538 157.324ZM195.291 161.332C195.243 161.176 195.219 161.008 195.219 160.852C195.219 160.204 195.579 159.7 196.311 159.7C197.007 159.7 197.355 160.132 197.355 160.624C197.355 161.14 197.115 161.464 196.503 161.824L195.231 162.568C193.803 163.396 193.395 164.572 193.395 166H199.311V164.416H195.711C195.819 164.188 196.011 164.032 196.239 163.888L197.715 163.012C198.711 162.424 199.251 161.596 199.251 160.588C199.251 159.196 198.147 158.032 196.359 158.032C194.487 158.032 193.443 159.28 193.443 160.672C193.443 160.912 193.479 161.224 193.515 161.32L195.291 161.332ZM202.199 162.616C202.379 162.52 202.643 162.436 202.895 162.436C203.447 162.436 204.023 162.748 204.023 163.492C204.023 164.068 203.591 164.56 202.859 164.56C202.127 164.56 201.635 164.02 201.611 163.336L199.787 163.672C199.907 165.004 201.059 166.168 202.871 166.168C204.791 166.168 205.931 164.92 205.931 163.54C205.931 162.208 204.947 161.248 203.747 161.164L205.667 159.676V158.212H200.051V159.796H203.303L201.383 161.368L202.199 162.616Z"
        fill="white" />
    <path
        d="M280.775 161.308V159.136H281.879C282.599 159.136 283.091 159.544 283.091 160.228C283.091 160.888 282.599 161.308 281.879 161.308H280.775ZM282.071 162.94C283.799 162.94 284.987 161.824 284.987 160.216C284.987 158.632 283.799 157.492 282.071 157.492H278.867V166H280.763V162.94H282.071ZM291.568 166V164.2H288.064V162.568H291.232V160.9H288.064V159.28H291.556V157.492H286.168V166H291.568ZM297.256 166H299.344L297.616 162.556C298.66 162.184 299.296 161.308 299.296 160.156C299.296 158.644 298.216 157.492 296.536 157.492H293.164V166H295.06V162.832H295.732L297.256 166ZM295.06 161.2V159.136H296.176C296.956 159.136 297.376 159.532 297.376 160.168C297.376 160.768 296.956 161.2 296.176 161.2H295.06ZM306.555 159.58C306.375 158.584 305.571 157.312 303.447 157.312C301.815 157.312 300.399 158.44 300.399 160.048C300.399 161.308 301.275 162.268 302.715 162.544L303.879 162.76C304.443 162.868 304.791 163.18 304.791 163.612C304.791 164.14 304.335 164.5 303.591 164.5C302.427 164.5 301.899 163.816 301.827 163.036L300.087 163.456C300.207 164.656 301.215 166.18 303.567 166.18C305.595 166.18 306.711 164.824 306.711 163.492C306.711 162.28 305.871 161.236 304.251 160.936L303.111 160.72C302.523 160.612 302.271 160.312 302.271 159.904C302.271 159.436 302.727 158.992 303.435 158.992C304.467 158.992 304.791 159.664 304.851 160.06L306.555 159.58ZM309.476 161.74C309.476 159.964 310.748 159.16 311.936 159.16C313.112 159.16 314.384 159.964 314.384 161.74C314.384 163.516 313.112 164.308 311.936 164.308C310.748 164.308 309.476 163.516 309.476 161.74ZM307.508 161.752C307.508 164.44 309.536 166.18 311.936 166.18C314.324 166.18 316.352 164.44 316.352 161.752C316.352 159.052 314.324 157.312 311.936 157.312C309.536 157.312 307.508 159.052 307.508 161.752ZM325.095 166V157.492H323.199V162.664L320.007 157.492H317.703V166H319.587V160.408L323.091 166H325.095ZM332.626 166H334.69L331.522 157.492H329.326L326.122 166H328.114L328.726 164.272H332.014L332.626 166ZM330.394 159.604L331.414 162.544H329.35L330.394 159.604ZM341.306 166V164.188H337.634V157.492H335.738V166H341.306Z"
        fill="white" />
    <path
        d="M28.2483 147.15C29.8783 147.15 30.9983 146.2 31.3783 144.87L30.5083 144.55C30.2183 145.52 29.4583 146.25 28.2483 146.25C26.9583 146.25 25.7283 145.3 25.7283 143.45C25.7283 141.6 26.9583 140.66 28.2483 140.66C29.4083 140.66 30.1883 141.26 30.4583 142.33L31.3683 142.01C31.0083 140.64 29.8683 139.76 28.2483 139.76C26.4883 139.76 24.7283 141.08 24.7283 143.45C24.7283 145.82 26.4183 147.15 28.2483 147.15ZM32.083 145.71C32.083 146.47 32.713 147.15 33.693 147.15C34.553 147.15 35.033 146.69 35.243 146.35C35.243 146.7 35.273 146.88 35.293 147H36.213C36.193 146.88 36.153 146.63 36.153 146.21V143.8C36.153 142.86 35.593 142.04 34.153 142.04C33.113 142.04 32.283 142.68 32.183 143.6L33.083 143.81C33.143 143.25 33.513 142.84 34.173 142.84C34.903 142.84 35.213 143.23 35.213 143.7C35.213 143.87 35.133 144.02 34.843 144.06L33.543 144.25C32.713 144.37 32.083 144.85 32.083 145.71ZM33.823 146.36C33.343 146.36 33.043 146.02 33.043 145.66C33.043 145.23 33.343 145 33.743 144.94L35.213 144.72V144.94C35.213 145.99 34.593 146.36 33.823 146.36ZM40.2874 142.14C40.2374 142.13 40.1074 142.11 39.9774 142.11C39.4874 142.11 38.8874 142.29 38.5374 143.03V142.19H37.6174V147H38.5574V144.59C38.5574 143.53 39.0874 143.11 39.8774 143.11C40.0074 143.11 40.1474 143.12 40.2874 143.14V142.14ZM41.8004 144.58C41.8004 143.59 42.3604 142.89 43.2204 142.89C44.0804 142.89 44.6004 143.57 44.6004 144.56C44.6004 145.55 44.0704 146.3 43.2104 146.3C42.3104 146.3 41.8004 145.57 41.8004 144.58ZM44.6104 146.35C44.6104 146.64 44.6404 146.89 44.6604 147H45.5704C45.5604 146.92 45.5204 146.57 45.5204 146.11V139.76H44.5904V142.87C44.4304 142.48 43.9704 142.06 43.1204 142.06C41.7604 142.06 40.8404 143.22 40.8404 144.58C40.8404 146.01 41.7104 147.13 43.1204 147.13C43.8704 147.13 44.3804 146.73 44.6104 146.27V146.35ZM50.5593 144.17C50.5793 143.46 50.9593 142.9 51.6793 142.9C52.5193 142.9 52.7993 143.44 52.7993 144.11V147H53.7393V143.95C53.7393 142.88 53.1693 142.05 52.0193 142.05C51.4693 142.05 50.9093 142.24 50.5593 142.75V139.76H49.6193V147H50.5593V144.17ZM57.2946 146.31C56.4946 146.31 55.7946 145.71 55.7946 144.59C55.7946 143.48 56.4946 142.88 57.2946 142.88C58.0946 142.88 58.7946 143.48 58.7946 144.59C58.7946 145.71 58.0946 146.31 57.2946 146.31ZM57.2946 142.04C55.8546 142.04 54.8346 143.13 54.8346 144.59C54.8346 146.06 55.8546 147.15 57.2946 147.15C58.7346 147.15 59.7546 146.06 59.7546 144.59C59.7546 143.13 58.7346 142.04 57.2946 142.04ZM61.8972 147V139.76H60.9572V147H61.8972ZM64.0563 144.58C64.0563 143.59 64.6163 142.89 65.4763 142.89C66.3363 142.89 66.8563 143.57 66.8563 144.56C66.8563 145.55 66.3263 146.3 65.4663 146.3C64.5663 146.3 64.0563 145.57 64.0563 144.58ZM66.8663 146.35C66.8663 146.64 66.8963 146.89 66.9163 147H67.8263C67.8163 146.92 67.7763 146.57 67.7763 146.11V139.76H66.8463V142.87C66.6863 142.48 66.2263 142.06 65.3763 142.06C64.0163 142.06 63.0963 143.22 63.0963 144.58C63.0963 146.01 63.9663 147.13 65.3763 147.13C66.1263 147.13 66.6363 146.73 66.8663 146.27V146.35ZM69.9852 144.1C70.0252 143.48 70.5052 142.87 71.2952 142.87C72.1452 142.87 72.5952 143.41 72.6152 144.1H69.9852ZM72.7552 145.35C72.5752 145.89 72.1852 146.32 71.4052 146.32C70.5952 146.32 69.9752 145.72 69.9552 144.86H73.5752C73.5852 144.8 73.5952 144.68 73.5952 144.56C73.5952 143.06 72.7652 142.04 71.2852 142.04C70.0752 142.04 68.9852 143.07 68.9852 144.58C68.9852 146.21 70.1152 147.15 71.4052 147.15C72.5252 147.15 73.2952 146.48 73.5652 145.63L72.7552 145.35ZM77.4651 142.14C77.4151 142.13 77.2851 142.11 77.1551 142.11C76.6651 142.11 76.0651 142.29 75.7151 143.03V142.19H74.7951V147H75.7351V144.59C75.7351 143.53 76.2651 143.11 77.0551 143.11C77.1851 143.11 77.3251 143.12 77.4651 143.14V142.14Z"
        fill="white" fill-opacity="0.5" />
    <path
        d="M180.433 147V146.09H177.103V143.92H180.123V143H177.103V140.82H180.433V139.91H176.123V147H180.433ZM181.133 147H182.253L183.473 145.23L184.713 147H185.843C185.553 146.61 184.363 144.94 184.073 144.55L185.783 142.19H184.673L183.513 143.88L182.333 142.19H181.193L182.923 144.55L181.133 147ZM187.675 148.9V146.35C187.935 146.78 188.495 147.13 189.235 147.13C190.645 147.13 191.475 146.02 191.475 144.59C191.475 143.19 190.705 142.08 189.265 142.08C188.485 142.08 187.915 142.46 187.655 142.94V142.19H186.745V148.9H187.675ZM190.515 144.59C190.515 145.58 189.965 146.29 189.095 146.29C188.235 146.29 187.665 145.58 187.665 144.59C187.665 143.63 188.235 142.91 189.095 142.91C189.975 142.91 190.515 143.63 190.515 144.59ZM193.603 147V142.19H192.673V147H193.603ZM192.463 140.37C192.463 140.74 192.763 141.04 193.133 141.04C193.513 141.04 193.813 140.74 193.813 140.37C193.813 139.99 193.513 139.69 193.133 139.69C192.763 139.69 192.463 139.99 192.463 140.37ZM197.872 142.14C197.822 142.13 197.692 142.11 197.562 142.11C197.072 142.11 196.472 142.29 196.122 143.03V142.19H195.202V147H196.142V144.59C196.142 143.53 196.672 143.11 197.462 143.11C197.592 143.11 197.732 143.12 197.872 143.14V142.14ZM200.221 149.01L203.351 142.19H202.341L200.901 145.51L199.401 142.19H198.321L200.391 146.47L199.191 149.01H200.221Z"
        fill="white" fill-opacity="0.5" />
    <path
        d="M29.087 58V45.02H26.387C26.167 46.34 24.787 47.44 22.847 47.46V49.56H25.947V58H29.087ZM31.3003 54.3C31.4603 56.34 33.4403 58.32 36.3203 58.32C39.5603 58.32 41.4003 56.16 41.4003 53.74C41.4003 50.94 39.5803 49.4 36.9203 49.4C36.1803 49.4 35.2203 49.66 34.7203 50.1L35.2403 47.66H40.6003V45.02H33.0603L31.6003 51.76C31.6603 51.8 34.3603 52.66 34.4203 52.68C34.7403 52.28 35.3603 51.84 36.2403 51.84C37.2803 51.84 38.2603 52.46 38.2603 53.76C38.2603 54.94 37.3803 55.64 36.3203 55.64C35.0403 55.64 34.2803 54.7 34.2203 53.7L31.3003 54.3ZM45.7154 51.52C45.7154 50.48 45.8354 49.46 46.1954 48.7C46.5554 47.98 47.1354 47.5 48.0954 47.5C49.0754 47.5 49.6354 47.98 49.9954 48.7C50.3754 49.46 50.4954 50.48 50.4954 51.52C50.4954 52.56 50.3754 53.58 49.9954 54.34C49.6354 55.06 49.0754 55.54 48.0954 55.54C47.1354 55.54 46.5554 55.06 46.1954 54.34C45.8354 53.58 45.7154 52.56 45.7154 51.52ZM42.5554 51.52C42.5554 53.12 42.7954 54.74 43.6954 56.1C44.5554 57.38 45.9954 58.32 48.0954 58.32C50.2154 58.32 51.6554 57.38 52.5154 56.1C53.4154 54.74 53.6554 53.12 53.6554 51.52C53.6554 49.92 53.4154 48.3 52.5154 46.94C51.6554 45.64 50.2154 44.72 48.0954 44.72C45.9954 44.72 44.5554 45.64 43.6954 46.94C42.7954 48.3 42.5554 49.92 42.5554 51.52ZM54.7132 56.24C54.7132 57.24 55.4132 58.04 56.5132 58.04C56.7532 58.04 56.9732 57.98 57.0732 57.9C57.0332 59.1 55.9332 59.9 55.0732 60.06V61.48C56.6732 61.3 58.8732 59.98 58.8732 56.88C58.8732 55.56 58.1132 54.38 56.7132 54.38C55.5732 54.38 54.7132 55.18 54.7132 56.24ZM63.5084 51.52C63.5084 50.48 63.6284 49.46 63.9884 48.7C64.3484 47.98 64.9284 47.5 65.8884 47.5C66.8684 47.5 67.4284 47.98 67.7884 48.7C68.1684 49.46 68.2884 50.48 68.2884 51.52C68.2884 52.56 68.1684 53.58 67.7884 54.34C67.4284 55.06 66.8684 55.54 65.8884 55.54C64.9284 55.54 64.3484 55.06 63.9884 54.34C63.6284 53.58 63.5084 52.56 63.5084 51.52ZM60.3484 51.52C60.3484 53.12 60.5884 54.74 61.4884 56.1C62.3484 57.38 63.7884 58.32 65.8884 58.32C68.0084 58.32 69.4484 57.38 70.3084 56.1C71.2084 54.74 71.4484 53.12 71.4484 51.52C71.4484 49.92 71.2084 48.3 70.3084 46.94C69.4484 45.64 68.0084 44.72 65.8884 44.72C63.7884 44.72 62.3484 45.64 61.4884 46.94C60.5884 48.3 60.3484 49.92 60.3484 51.52ZM76.0475 51.52C76.0475 50.48 76.1675 49.46 76.5275 48.7C76.8875 47.98 77.4675 47.5 78.4275 47.5C79.4075 47.5 79.9675 47.98 80.3275 48.7C80.7075 49.46 80.8275 50.48 80.8275 51.52C80.8275 52.56 80.7075 53.58 80.3275 54.34C79.9675 55.06 79.4075 55.54 78.4275 55.54C77.4675 55.54 76.8875 55.06 76.5275 54.34C76.1675 53.58 76.0475 52.56 76.0475 51.52ZM72.8875 51.52C72.8875 53.12 73.1275 54.74 74.0275 56.1C74.8875 57.38 76.3275 58.32 78.4275 58.32C80.5475 58.32 81.9875 57.38 82.8475 56.1C83.7475 54.74 83.9875 53.12 83.9875 51.52C83.9875 49.92 83.7475 48.3 82.8475 46.94C81.9875 45.64 80.5475 44.72 78.4275 44.72C76.3275 44.72 74.8875 45.64 74.0275 46.94C73.1275 48.3 72.8875 49.92 72.8875 51.52ZM88.5865 51.52C88.5865 50.48 88.7065 49.46 89.0665 48.7C89.4265 47.98 90.0065 47.5 90.9665 47.5C91.9465 47.5 92.5065 47.98 92.8665 48.7C93.2465 49.46 93.3665 50.48 93.3665 51.52C93.3665 52.56 93.2465 53.58 92.8665 54.34C92.5065 55.06 91.9465 55.54 90.9665 55.54C90.0065 55.54 89.4265 55.06 89.0665 54.34C88.7065 53.58 88.5865 52.56 88.5865 51.52ZM85.4265 51.52C85.4265 53.12 85.6665 54.74 86.5665 56.1C87.4265 57.38 88.8665 58.32 90.9665 58.32C93.0865 58.32 94.5265 57.38 95.3865 56.1C96.2865 54.74 96.5265 53.12 96.5265 51.52C96.5265 49.92 96.2865 48.3 95.3865 46.94C94.5265 45.64 93.0865 44.72 90.9665 44.72C88.8665 44.72 87.4265 45.64 86.5665 46.94C85.6665 48.3 85.4265 49.92 85.4265 51.52ZM97.6643 56.12C97.6643 57.22 98.5843 58.18 99.7043 58.18C100.824 58.18 101.764 57.22 101.764 56.12C101.764 55 100.824 54.08 99.7043 54.08C98.5843 54.08 97.6643 55 97.6643 56.12ZM106.497 51.52C106.497 50.48 106.617 49.46 106.977 48.7C107.337 47.98 107.917 47.5 108.877 47.5C109.857 47.5 110.417 47.98 110.777 48.7C111.157 49.46 111.277 50.48 111.277 51.52C111.277 52.56 111.157 53.58 110.777 54.34C110.417 55.06 109.857 55.54 108.877 55.54C107.917 55.54 107.337 55.06 106.977 54.34C106.617 53.58 106.497 52.56 106.497 51.52ZM103.337 51.52C103.337 53.12 103.577 54.74 104.477 56.1C105.337 57.38 106.777 58.32 108.877 58.32C110.997 58.32 112.437 57.38 113.297 56.1C114.197 54.74 114.437 53.12 114.437 51.52C114.437 49.92 114.197 48.3 113.297 46.94C112.437 45.64 110.997 44.72 108.877 44.72C106.777 44.72 105.337 45.64 104.477 46.94C103.577 48.3 103.337 49.92 103.337 51.52ZM119.036 51.52C119.036 50.48 119.156 49.46 119.516 48.7C119.876 47.98 120.456 47.5 121.416 47.5C122.396 47.5 122.956 47.98 123.316 48.7C123.696 49.46 123.816 50.48 123.816 51.52C123.816 52.56 123.696 53.58 123.316 54.34C122.956 55.06 122.396 55.54 121.416 55.54C120.456 55.54 119.876 55.06 119.516 54.34C119.156 53.58 119.036 52.56 119.036 51.52ZM115.876 51.52C115.876 53.12 116.116 54.74 117.016 56.1C117.876 57.38 119.316 58.32 121.416 58.32C123.536 58.32 124.976 57.38 125.836 56.1C126.736 54.74 126.976 53.12 126.976 51.52C126.976 49.92 126.736 48.3 125.836 46.94C124.976 45.64 123.536 44.72 121.416 44.72C119.316 44.72 117.876 45.64 117.016 46.94C116.116 48.3 115.876 49.92 115.876 51.52Z"
        fill="white" />
    <path
        d="M29.8383 105V92.04H28.1183C27.8183 93.44 26.5783 94.44 24.7783 94.48V95.86H27.9183V105H29.8383ZM36.8891 105V92.04H35.1691C34.8691 93.44 33.6291 94.44 31.8291 94.48V95.86H34.9691V105H36.8891ZM43.9399 105V92.04H42.2199C41.9199 93.44 40.6799 94.44 38.8799 94.48V95.86H42.0199V105H43.9399ZM50.9907 105V92.04H49.2707C48.9707 93.44 47.7307 94.44 45.9307 94.48V95.86H49.0707V105H50.9907ZM60.3014 96.7C60.2814 96.5 60.2614 96.3 60.2614 96.12C60.2614 94.64 61.0614 93.46 62.7614 93.46C64.4014 93.46 65.2014 94.56 65.2014 95.74C65.2014 96.74 64.6414 97.66 63.4214 98.44L61.2614 99.84C59.0614 101.26 58.2214 102.88 58.1814 105H67.2614V103.18H60.6014C60.7814 102.38 61.4414 101.84 62.1814 101.36L64.7414 99.72C66.2214 98.78 67.1814 97.42 67.1814 95.72C67.1814 93.56 65.5814 91.74 62.8014 91.74C59.9614 91.74 58.3214 93.72 58.3214 95.94C58.3214 96.1 58.3214 96.28 58.3414 96.46L60.3014 96.7ZM70.8874 96.7C70.8674 96.5 70.8474 96.3 70.8474 96.12C70.8474 94.64 71.6474 93.46 73.3474 93.46C74.9874 93.46 75.7874 94.56 75.7874 95.74C75.7874 96.74 75.2274 97.66 74.0074 98.44L71.8474 99.84C69.6474 101.26 68.8074 102.88 68.7674 105H77.8474V103.18H71.1874C71.3674 102.38 72.0274 101.84 72.7674 101.36L75.3274 99.72C76.8074 98.78 77.7674 97.42 77.7674 95.72C77.7674 93.56 76.1674 91.74 73.3874 91.74C70.5474 91.74 68.9074 93.72 68.9074 95.94C68.9074 96.1 68.9074 96.28 68.9274 96.46L70.8874 96.7ZM81.4733 96.7C81.4533 96.5 81.4333 96.3 81.4333 96.12C81.4333 94.64 82.2333 93.46 83.9333 93.46C85.5733 93.46 86.3733 94.56 86.3733 95.74C86.3733 96.74 85.8133 97.66 84.5933 98.44L82.4333 99.84C80.2333 101.26 79.3933 102.88 79.3533 105H88.4333V103.18H81.7733C81.9533 102.38 82.6133 101.84 83.3533 101.36L85.9133 99.72C87.3933 98.78 88.3533 97.42 88.3533 95.72C88.3533 93.56 86.7533 91.74 83.9733 91.74C81.1333 91.74 79.4933 93.72 79.4933 95.94C79.4933 96.1 79.4933 96.28 79.5133 96.46L81.4733 96.7ZM92.0593 96.7C92.0393 96.5 92.0193 96.3 92.0193 96.12C92.0193 94.64 92.8193 93.46 94.5193 93.46C96.1593 93.46 96.9593 94.56 96.9593 95.74C96.9593 96.74 96.3993 97.66 95.1793 98.44L93.0193 99.84C90.8193 101.26 89.9793 102.88 89.9393 105H99.0193V103.18H92.3593C92.5393 102.38 93.1993 101.84 93.9393 101.36L96.4993 99.72C97.9793 98.78 98.9393 97.42 98.9393 95.72C98.9393 93.56 97.3393 91.74 94.5593 91.74C91.7193 91.74 90.0793 93.72 90.0793 95.94C90.0793 96.1 90.0793 96.28 90.0993 96.46L92.0593 96.7ZM109.325 98.98C109.665 98.86 110.065 98.78 110.465 98.78C111.745 98.78 113.105 99.5 113.105 101.2C113.105 102.5 112.145 103.6 110.365 103.6C108.805 103.6 107.565 102.52 107.485 100.8L105.565 101.24C105.685 103.36 107.385 105.32 110.385 105.32C113.405 105.32 115.085 103.34 115.085 101.16C115.085 98.5 112.985 97.22 111.085 97.22L114.785 93.8V92.04H105.985V93.84H112.185L108.365 97.36L109.325 98.98ZM120.38 98.98C120.72 98.86 121.12 98.78 121.52 98.78C122.8 98.78 124.16 99.5 124.16 101.2C124.16 102.5 123.2 103.6 121.42 103.6C119.86 103.6 118.62 102.52 118.54 100.8L116.62 101.24C116.74 103.36 118.44 105.32 121.44 105.32C124.46 105.32 126.14 103.34 126.14 101.16C126.14 98.5 124.04 97.22 122.14 97.22L125.84 93.8V92.04H117.04V93.84H123.24L119.42 97.36L120.38 98.98ZM131.435 98.98C131.775 98.86 132.175 98.78 132.575 98.78C133.855 98.78 135.215 99.5 135.215 101.2C135.215 102.5 134.255 103.6 132.475 103.6C130.915 103.6 129.675 102.52 129.595 100.8L127.675 101.24C127.795 103.36 129.495 105.32 132.495 105.32C135.515 105.32 137.195 103.34 137.195 101.16C137.195 98.5 135.095 97.22 133.195 97.22L136.895 93.8V92.04H128.095V93.84H134.295L130.475 97.36L131.435 98.98ZM142.489 98.98C142.829 98.86 143.229 98.78 143.629 98.78C144.909 98.78 146.269 99.5 146.269 101.2C146.269 102.5 145.309 103.6 143.529 103.6C141.969 103.6 140.729 102.52 140.649 100.8L138.729 101.24C138.849 103.36 140.549 105.32 143.549 105.32C146.569 105.32 148.249 103.34 148.249 101.16C148.249 98.5 146.149 97.22 144.249 97.22L147.949 93.8V92.04H139.149V93.84H145.349L141.529 97.36L142.489 98.98ZM154.744 102.08H161.104V105H163.004V102.08H165.224V100.26H163.004V92.04H160.304L154.744 99.82V102.08ZM161.104 100.26H156.544L161.104 93.92V100.26ZM166.228 102.08H172.588V105H174.488V102.08H176.708V100.26H174.488V92.04H171.788L166.228 99.82V102.08ZM172.588 100.26H168.028L172.588 93.92V100.26ZM177.713 102.08H184.073V105H185.973V102.08H188.193V100.26H185.973V92.04H183.273L177.713 99.82V102.08ZM184.073 100.26H179.513L184.073 93.92V100.26ZM189.197 102.08H195.557V105H197.457V102.08H199.677V100.26H197.457V92.04H194.757L189.197 99.82V102.08ZM195.557 100.26H190.997L195.557 93.92V100.26Z"
        fill="white" />
    <path opacity="0.28"
        d="M25.6739 24.6099L23.4443 22.4223C22.5666 23.3611 22.234 24.3017 22.2282 24.321L22.167 24.5L22.2276 24.679C22.2403 24.717 23.565 28.4662 27.9728 28.4662C28.5093 28.4662 28.9978 28.4084 29.4465 28.3115L27.8608 26.7556C27.2899 26.7282 26.7497 26.4933 26.3455 26.0967C25.9413 25.7001 25.7019 25.1701 25.6739 24.6099ZM27.9728 20.5338C26.9016 20.5338 26.0239 20.7627 25.2922 21.0993L23.1527 19L22.3362 19.8012L32.7306 30L33.5471 29.1988L31.6426 27.3302C33.166 26.2236 33.7094 24.7028 33.7175 24.679L33.7781 24.5L33.7175 24.321C33.7048 24.283 32.3806 20.5338 27.9728 20.5338ZM29.0735 24.8094C29.1815 24.4258 29.0897 23.994 28.7894 23.6988C28.4891 23.4036 28.0485 23.3141 27.6575 23.4201L26.7867 22.5656C27.1436 22.3503 27.5539 22.2354 27.9728 22.2336C29.2467 22.2336 30.2827 23.2501 30.2827 24.5C30.281 24.911 30.1637 25.3135 29.9437 25.6632L29.0735 24.8094Z"
        fill="white" />
    <path opacity="0.28"
        d="M45.137 31.15C46.767 31.15 47.887 30.2 48.267 28.87L47.397 28.55C47.107 29.52 46.347 30.25 45.137 30.25C43.847 30.25 42.617 29.3 42.617 27.45C42.617 25.6 43.847 24.66 45.137 24.66C46.297 24.66 47.077 25.26 47.347 26.33L48.257 26.01C47.897 24.64 46.757 23.76 45.137 23.76C43.377 23.76 41.617 25.08 41.617 27.45C41.617 29.82 43.307 31.15 45.137 31.15ZM52.4417 30.42C52.4417 30.62 52.4617 30.89 52.4817 31H53.3817C53.3617 30.83 53.3317 30.49 53.3317 30.11V26.19H52.3917V29.09C52.3917 29.82 52.0117 30.32 51.2517 30.32C50.4617 30.32 50.1617 29.74 50.1617 29.08V26.19H49.2217V29.22C49.2217 30.31 49.9017 31.15 51.0217 31.15C51.5817 31.15 52.1817 30.92 52.4417 30.42ZM57.6057 26.14C57.5557 26.13 57.4257 26.11 57.2957 26.11C56.8057 26.11 56.2057 26.29 55.8557 27.03V26.19H54.9357V31H55.8757V28.59C55.8757 27.53 56.4057 27.11 57.1957 27.11C57.3257 27.11 57.4657 27.12 57.6057 27.14V26.14ZM61.2776 26.14C61.2276 26.13 61.0976 26.11 60.9676 26.11C60.4776 26.11 59.8776 26.29 59.5276 27.03V26.19H58.6076V31H59.5476V28.59C59.5476 27.53 60.0776 27.11 60.8676 27.11C60.9976 27.11 61.1376 27.12 61.2776 27.14V26.14ZM62.8407 28.1C62.8807 27.48 63.3607 26.87 64.1507 26.87C65.0007 26.87 65.4507 27.41 65.4707 28.1H62.8407ZM65.6107 29.35C65.4307 29.89 65.0407 30.32 64.2607 30.32C63.4507 30.32 62.8307 29.72 62.8107 28.86H66.4307C66.4407 28.8 66.4507 28.68 66.4507 28.56C66.4507 27.06 65.6207 26.04 64.1407 26.04C62.9307 26.04 61.8407 27.07 61.8407 28.58C61.8407 30.21 62.9707 31.15 64.2607 31.15C65.3807 31.15 66.1507 30.48 66.4207 29.63L65.6107 29.35ZM68.5906 28.22C68.5906 27.49 68.9706 26.9 69.7106 26.9C70.5506 26.9 70.8306 27.44 70.8306 28.11V31H71.7706V27.95C71.7706 26.88 71.2006 26.05 70.0506 26.05C69.4906 26.05 68.9206 26.28 68.5706 26.88V26.19H67.6506V31H68.5906V28.22ZM74.5258 24.67H73.6658V25.45C73.6658 25.87 73.4458 26.19 72.9258 26.19H72.6658V27.04H73.5858V29.68C73.5858 30.55 74.1058 31.05 74.9258 31.05C75.2458 31.05 75.4858 30.99 75.5658 30.96V30.16C75.4858 30.18 75.3158 30.2 75.1958 30.2C74.7058 30.2 74.5258 29.98 74.5258 29.54V27.04H75.5658V26.19H74.5258V24.67ZM79.4205 23.91V31H81.9005C83.2005 31 84.0905 30.19 84.0905 29.07C84.0905 28.28 83.6205 27.56 82.8105 27.36C83.4305 27.13 83.8705 26.59 83.8705 25.83C83.8705 24.71 83.0805 23.91 81.7305 23.91H79.4205ZM80.4005 27.01V24.77H81.5805C82.3905 24.77 82.8805 25.21 82.8805 25.88C82.8805 26.54 82.4105 27.01 81.6205 27.01H80.4005ZM80.4005 30.14V27.85H81.8005C82.6605 27.85 83.0905 28.33 83.0905 29.01C83.0905 29.7 82.5505 30.14 81.7605 30.14H80.4005ZM84.9385 29.71C84.9385 30.47 85.5685 31.15 86.5485 31.15C87.4085 31.15 87.8885 30.69 88.0985 30.35C88.0985 30.7 88.1285 30.88 88.1485 31H89.0685C89.0485 30.88 89.0085 30.63 89.0085 30.21V27.8C89.0085 26.86 88.4485 26.04 87.0085 26.04C85.9685 26.04 85.1385 26.68 85.0385 27.6L85.9385 27.81C85.9985 27.25 86.3685 26.84 87.0285 26.84C87.7585 26.84 88.0685 27.23 88.0685 27.7C88.0685 27.87 87.9885 28.02 87.6985 28.06L86.3985 28.25C85.5685 28.37 84.9385 28.85 84.9385 29.71ZM86.6785 30.36C86.1985 30.36 85.8985 30.02 85.8985 29.66C85.8985 29.23 86.1985 29 86.5985 28.94L88.0685 28.72V28.94C88.0685 29.99 87.4485 30.36 86.6785 30.36ZM91.4129 31V23.76H90.4729V31H91.4129ZM92.7119 29.71C92.7119 30.47 93.3419 31.15 94.3219 31.15C95.1819 31.15 95.6619 30.69 95.8719 30.35C95.8719 30.7 95.9019 30.88 95.9219 31H96.8419C96.8219 30.88 96.7819 30.63 96.7819 30.21V27.8C96.7819 26.86 96.2219 26.04 94.7819 26.04C93.7419 26.04 92.9119 26.68 92.8119 27.6L93.7119 27.81C93.7719 27.25 94.1419 26.84 94.8019 26.84C95.5319 26.84 95.8419 27.23 95.8419 27.7C95.8419 27.87 95.7619 28.02 95.4719 28.06L94.1719 28.25C93.3419 28.37 92.7119 28.85 92.7119 29.71ZM94.4519 30.36C93.9719 30.36 93.6719 30.02 93.6719 29.66C93.6719 29.23 93.9719 29 94.3719 28.94L95.8419 28.72V28.94C95.8419 29.99 95.2219 30.36 94.4519 30.36ZM99.1863 28.22C99.1863 27.49 99.5663 26.9 100.306 26.9C101.146 26.9 101.426 27.44 101.426 28.11V31H102.366V27.95C102.366 26.88 101.796 26.05 100.646 26.05C100.086 26.05 99.5163 26.28 99.1663 26.88V26.19H98.2463V31H99.1863V28.22ZM105.882 26.91C106.702 26.91 107.052 27.46 107.172 27.93L108.022 27.57C107.822 26.84 107.162 26.04 105.882 26.04C104.512 26.04 103.462 27.09 103.462 28.59C103.462 30.05 104.492 31.15 105.892 31.15C107.142 31.15 107.832 30.34 108.062 29.65L107.232 29.29C107.122 29.67 106.792 30.28 105.892 30.28C105.112 30.28 104.422 29.69 104.422 28.59C104.422 27.47 105.122 26.91 105.882 26.91ZM109.725 28.1C109.765 27.48 110.245 26.87 111.035 26.87C111.885 26.87 112.335 27.41 112.355 28.1H109.725ZM112.495 29.35C112.315 29.89 111.925 30.32 111.145 30.32C110.335 30.32 109.715 29.72 109.695 28.86H113.315C113.325 28.8 113.335 28.68 113.335 28.56C113.335 27.06 112.505 26.04 111.025 26.04C109.815 26.04 108.725 27.07 108.725 28.58C108.725 30.21 109.855 31.15 111.145 31.15C112.265 31.15 113.035 30.48 113.305 29.63L112.495 29.35Z"
        fill="white" />
    <path
        d="M315.61 22.3525C317.087 23.3809 318.28 24.6938 319.1 26.192C319.921 27.6901 320.346 29.3342 320.344 30.9997C320.345 32.6648 319.92 34.3082 319.1 35.8057C318.279 37.3033 317.086 38.6157 315.61 39.6438C314.134 38.6155 312.941 37.3028 312.121 35.805C311.3 34.3072 310.875 32.6634 310.876 30.9981C310.875 29.3328 311.3 27.6891 312.121 26.1913C312.941 24.6934 314.134 23.3807 315.61 22.3525ZM314.024 21.4107C312.461 22.5945 311.206 24.0653 310.347 25.7215C309.487 27.3776 309.043 29.1796 309.046 31.003C309.043 32.8255 309.487 34.6268 310.346 36.2823C311.205 37.9378 312.458 39.4083 314.02 40.592C312.134 41.5318 310.003 42.017 307.839 41.9995C305.676 41.982 303.555 41.4624 301.688 40.4922C299.821 39.522 298.272 38.1352 297.197 36.4694C296.121 34.8037 295.555 32.9171 295.556 30.9972C295.556 29.0773 296.123 27.191 297.2 25.5258C298.276 23.8605 299.826 22.4743 301.693 21.505C303.561 20.5357 305.682 20.0169 307.845 20.0004C310.009 19.9839 312.14 20.4701 314.026 21.4107H314.024ZM317.2 40.592C318.762 39.4083 320.016 37.9378 320.875 36.2823C321.733 34.6268 322.177 32.8255 322.175 31.003C322.177 29.1796 321.733 27.3776 320.874 25.7215C320.014 24.0653 318.76 22.5945 317.197 21.4107C319.083 20.4701 321.214 19.9839 323.377 20.0004C325.541 20.0169 327.662 20.5357 329.529 21.505C331.397 22.4743 332.946 23.8605 334.023 25.5258C335.099 27.191 335.666 29.0773 335.667 30.9972C335.667 32.9171 335.102 34.8037 334.026 36.4694C332.95 38.1352 331.402 39.522 329.535 40.4922C327.668 41.4624 325.547 41.982 323.383 41.9995C321.22 42.017 319.089 41.5318 317.202 40.592H317.2Z"
        fill="white" />
    <defs>
        <radialGradient id="paint0_radial_501_7816" cx="0" cy="0" r="1"
            gradientUnits="userSpaceOnUse"
            gradientTransform="translate(394.384 126.021) rotate(-164.197) scale(438.104 634.438)">
            <stop stop-color="#0052F2" />
            <stop offset="1" stop-color="#00F462" />
        </radialGradient>
    </defs>
</svg>
