<svg width="342" height="184" viewBox="0 0 342 184" fill="none" xmlns="http://www.w3.org/2000/svg">
    <rect width="342" height="184" rx="14" fill="#008D39" />
    <mask id="mask0_291_6027" style="mask-type:alpha" maskUnits="userSpaceOnUse" x="0" y="0"
        width="342" height="184">
        <rect width="342" height="184" rx="12" fill="#ED713C" />
    </mask>
    <g mask="url(#mask0_291_6027)">
        <path
            d="M307.557 199.195C304.931 200.95 302.247 201.294 299.643 199.275C297.051 197.268 296.811 194.538 297.808 191.178C294.414 191.912 291.351 191.889 289.333 188.861C287.612 186.269 288.025 183.723 289.723 181.28C289.929 181.074 290.147 180.867 290.354 180.661C291.569 179.789 292.98 178.94 294.391 179.227C296.971 179.743 296.501 178.55 296.639 176.727C296.834 174.215 296.558 173.183 293.748 173.584C292.728 173.733 291.546 172.816 290.434 172.391C290.136 172.093 289.837 171.795 289.539 171.497C288.048 168.997 287.589 166.439 289.402 163.916C291.409 161.106 294.253 160.865 297.74 161.806C296.857 158.365 296.983 155.348 300.01 153.353C302.591 151.644 305.137 152.08 307.569 153.766C307.775 153.972 307.982 154.19 308.188 154.396C308.681 155.612 309.759 156.931 309.576 158.044C309.071 161.026 310.493 160.487 312.558 160.659C315.046 160.865 315.253 160.188 315.184 158.067C315.15 156.862 316.09 155.635 316.595 154.419C316.813 154.19 317.031 153.972 317.249 153.743C319.852 151.908 322.536 151.598 325.151 153.594C327.754 155.578 328.064 158.296 327.055 161.633C330.369 161.06 333.466 160.922 335.484 163.973C337.205 166.565 336.815 169.1 335.175 171.577C334.922 171.83 334.67 172.07 334.418 172.323C333.179 172.804 331.883 173.802 330.725 173.665C328.201 173.378 328.224 174.272 328.259 176.417C328.293 178.493 328.167 179.491 330.725 179.204C331.895 179.078 333.179 180.076 334.418 180.557C334.67 180.81 334.934 181.062 335.186 181.326C336.929 183.929 337.274 186.613 335.266 189.205C333.282 191.774 330.599 192.187 327.238 191.086C327.926 194.55 327.812 197.715 324.6 199.711C322.146 201.236 319.703 200.823 317.363 199.321C317.042 199 316.732 198.69 316.411 198.369C315.173 196.534 314.851 194.492 315.196 192.359C311.675 191.958 308.75 192.061 309.105 196.729C309.151 197.291 308.532 197.899 308.211 198.484C308.016 198.725 307.787 198.965 307.557 199.195ZM324.428 188.448C322.41 187.221 326.653 183.367 322.146 183.356C319.841 183.344 319.313 184.136 319.324 186.258C319.359 190.719 323.155 186.498 324.428 188.448ZM300.515 188.506C301.754 186.808 306.261 190.822 305.481 185.329C304.862 180.959 302.075 184.4 300.55 183.276C301.169 185.088 300.504 186.613 300.515 188.506ZM324.577 164.524C319.244 165.074 319.37 165.097 319.221 166.336C318.694 170.637 321.939 169.169 324.474 169.845C323.717 167.85 324.302 166.221 324.577 164.524ZM300.469 164.294C300.767 166.233 300.951 167.907 300.653 169.777C302.121 168.458 305.068 171.715 305.573 167.38C306.181 162.023 301.662 166.278 300.469 164.294ZM310.367 176.119C310.459 177.266 309.599 178.883 311.927 178.436C313.108 178.206 314.634 179.044 314.427 176.589C314.29 174.926 314.209 174.272 312.294 174.399C310.86 174.479 309.828 174.341 310.367 176.119Z"
            fill="white" fill-opacity="0.07" />
        <path
            d="M308.199 154.407C307.993 154.2 307.786 153.982 307.58 153.776C307.545 153.512 307.58 153.214 307.477 152.984C306.123 149.991 306.077 147.158 308.853 144.979C311.112 143.201 313.658 143.19 315.941 144.956C318.739 147.124 318.693 149.957 317.374 152.95C317.271 153.191 317.294 153.478 317.26 153.741C317.042 153.971 316.824 154.189 316.606 154.418C313.796 155.554 310.998 155.519 308.199 154.407Z"
            fill="white" fill-opacity="0.07" />
        <path
            d="M335.209 181.325C334.957 181.072 334.693 180.82 334.441 180.556C333.26 177.815 333.283 175.063 334.441 172.321C334.693 172.069 334.946 171.828 335.198 171.576C336.092 171.301 336.964 170.957 337.882 170.773C340.474 170.28 342.71 170.911 344.201 173.216C345.566 175.326 345.566 177.54 344.213 179.65C342.733 181.967 340.497 182.598 337.905 182.105C336.976 181.944 336.104 181.6 335.209 181.325Z"
            fill="white" fill-opacity="0.07" />
        <path
            d="M290.365 180.672C290.159 180.878 289.941 181.084 289.734 181.291C286.454 182.335 283.162 183.275 280.719 179.743C279.297 177.69 279.263 175.442 280.628 173.331C282.956 169.718 286.259 170.521 289.574 171.519C289.872 171.817 290.17 172.116 290.468 172.414C291.535 175.166 291.432 177.919 290.365 180.672Z"
            fill="white" fill-opacity="0.07" />
        <path
            d="M339.005 164.109C335.966 163.914 333.443 160.99 333.741 158.008C334.039 155.118 336.78 152.743 339.624 152.927C342.664 153.122 345.198 156.047 344.889 159.029C344.591 161.919 341.849 164.281 339.005 164.109Z"
            fill="white" fill-opacity="0.07" />
        <path
            d="M285.307 152.95C288.14 152.836 290.824 155.244 291.053 158.123C291.294 161.093 288.725 163.961 285.697 164.087C282.704 164.202 279.94 161.529 279.94 158.513C279.94 155.657 282.44 153.065 285.307 152.95Z"
            fill="white" fill-opacity="0.07" />
        <path
            d="M335.943 149.566C335.931 152.606 333.144 155.278 330.117 155.14C327.226 155.003 324.738 152.399 324.749 149.52C324.761 146.481 327.559 143.809 330.575 143.946C333.466 144.084 335.954 146.699 335.943 149.566Z"
            fill="white" fill-opacity="0.07" />
        <path
            d="M294.494 143.982C297.51 143.993 300.171 146.78 300.033 149.774C299.896 152.641 297.304 155.13 294.448 155.107C291.432 155.095 288.771 152.308 288.908 149.315C289.046 146.447 291.649 143.97 294.494 143.982Z"
            fill="white" fill-opacity="0.07" />
        <path
            d="M281.682 185.362C281.442 188.527 279.836 190.466 276.59 190.488C273.379 190.511 271.498 188.699 271.463 185.476C271.429 182.265 273.253 180.396 276.475 180.338C279.71 180.304 281.373 182.196 281.682 185.362Z"
            fill="white" fill-opacity="0.07" />
        <path
            d="M276.739 162.332C279.893 162.722 281.728 164.465 281.602 167.677C281.476 170.899 279.526 172.654 276.338 172.551C273.115 172.436 271.36 170.487 271.463 167.287C271.567 164.041 273.574 162.504 276.739 162.332Z"
            fill="white" fill-opacity="0.07" />
        <path
            d="M308.624 140.449C308.291 143.82 306.605 145.713 303.371 145.655C300.148 145.598 298.313 143.706 298.347 140.494C298.393 137.272 300.285 135.448 303.508 135.471C306.788 135.494 308.325 137.512 308.624 140.449Z"
            fill="white" fill-opacity="0.07" />
        <path
            d="M326.573 140.633C326.275 143.787 324.612 145.599 321.412 145.714C318.361 145.817 315.999 143.363 316.24 140.312C316.503 137.135 318.373 135.38 321.538 135.461C324.75 135.541 326.344 137.502 326.573 140.633Z"
            fill="white" fill-opacity="0.07" />
        <path
            d="M272.278 176.416C271.819 179.317 270.282 181.129 267.461 181.049C264.662 180.969 262.896 179.145 262.965 176.347C263.034 173.548 264.857 171.794 267.667 171.851C270.5 171.908 271.911 173.824 272.278 176.416Z"
            fill="white" fill-opacity="0.07" />
        <path
            d="M312.339 126.893C315.103 127.214 316.973 128.693 317.03 131.526C317.076 134.348 315.31 136.171 312.5 136.228C309.679 136.286 307.855 134.508 307.786 131.698C307.717 128.865 309.552 127.328 312.339 126.893Z"
            fill="white" fill-opacity="0.07" />
        <path
            d="M290.193 140.507C289.883 143.248 288.415 145.117 285.605 145.175C282.795 145.232 280.972 143.466 280.914 140.679C280.845 137.88 282.612 136.057 285.41 135.976C288.22 135.908 289.757 137.72 290.193 140.507Z"
            fill="white" fill-opacity="0.07" />
        <path
            d="M339.246 135.827C342.022 136.16 343.914 137.639 343.971 140.472C344.029 143.305 342.239 145.152 339.418 145.209C336.585 145.278 334.75 143.477 334.67 140.667C334.601 137.823 336.448 136.286 339.246 135.827Z"
            fill="white" fill-opacity="0.07" />
        <path
            d="M281.235 149.407C280.914 152.217 279.446 154.086 276.636 154.143C273.826 154.201 272.003 152.434 271.945 149.647C271.876 146.838 273.654 145.025 276.441 144.957C279.263 144.876 280.777 146.711 281.235 149.407Z"
            fill="white" fill-opacity="0.07" />
        <path
            d="M330.346 127.316C333.064 127.523 334.647 128.945 334.578 131.709C334.521 134.485 332.881 135.93 330.151 135.849C327.605 135.769 326.149 134.267 326.114 131.721C326.068 128.945 327.628 127.523 330.346 127.316Z"
            fill="white" fill-opacity="0.07" />
        <path
            d="M267.84 162.791C264.961 162.619 263.344 161.277 263.344 158.513C263.355 155.76 264.915 154.269 267.656 154.292C270.191 154.315 271.67 155.76 271.774 158.306C271.9 161.082 270.34 162.47 267.84 162.791Z"
            fill="white" fill-opacity="0.07" />
        <path
            d="M298.737 131.779C298.427 134.485 296.925 135.965 294.195 135.816C291.431 135.655 290.078 133.935 290.261 131.24C290.434 128.705 292.005 127.34 294.539 127.386C297.315 127.443 298.611 129.083 298.737 131.779Z"
            fill="white" fill-opacity="0.07" />
        <path
            d="M258.607 189.17C256.313 188.929 254.845 187.668 254.902 185.294C254.948 183.126 256.347 181.738 258.515 181.727C260.889 181.715 262.334 183.172 262.277 185.546C262.242 187.714 260.832 188.918 258.607 189.17Z"
            fill="white" fill-opacity="0.07" />
        <path
            d="M321.262 118.842C323.35 118.979 324.875 120.057 325.081 122.236C325.311 124.633 323.923 126.216 321.572 126.342C319.198 126.469 317.684 125 317.649 122.615C317.627 120.447 319.026 119.197 321.262 118.842Z"
            fill="white" fill-opacity="0.07" />
        <path
            d="M258.492 163.731C260.556 163.858 262.058 164.913 262.265 167.092C262.483 169.466 261.129 171.037 258.79 171.163C256.427 171.29 254.936 169.844 254.902 167.47C254.879 165.303 256.244 164.064 258.492 163.731Z"
            fill="white" fill-opacity="0.07" />
        <path
            d="M307.236 122.569C307.064 124.679 305.94 126.182 303.772 126.354C301.387 126.537 299.816 125.126 299.724 122.764C299.644 120.39 301.135 118.899 303.52 118.91C305.699 118.922 306.915 120.344 307.236 122.569Z"
            fill="white" fill-opacity="0.07" />
        <path
            d="M279.905 131.686C279.699 133.716 278.644 134.944 276.568 134.932C274.286 134.921 273.093 133.579 273.23 131.342C273.357 129.289 274.664 128.2 276.717 128.291C278.781 128.372 279.779 129.645 279.905 131.686Z"
            fill="white" fill-opacity="0.07" />
        <path
            d="M342.515 122.523C342.343 124.381 341.368 125.665 339.521 125.757C337.457 125.86 336.161 124.61 336.184 122.546C336.207 120.688 337.434 119.518 339.292 119.506C341.184 119.483 342.194 120.71 342.515 122.523Z"
            fill="white" fill-opacity="0.07" />
        <path
            d="M288.679 122.649C288.403 124.461 287.429 125.723 285.582 125.734C283.552 125.746 282.279 124.45 282.405 122.419C282.508 120.619 283.758 119.449 285.616 119.529C287.463 119.598 288.426 120.837 288.679 122.649Z"
            fill="white" fill-opacity="0.07" />
        <path
            d="M267.691 143.97C265.443 143.729 264.216 142.663 264.239 140.587C264.262 138.304 265.615 137.123 267.851 137.261C269.904 137.398 270.971 138.706 270.891 140.759C270.799 142.869 269.446 143.775 267.691 143.97Z"
            fill="white" fill-opacity="0.07" />
        <path
            d="M261.737 149.636C261.393 151.471 260.361 152.698 258.48 152.618C256.634 152.538 255.441 151.311 255.51 149.441C255.578 147.595 256.817 146.402 258.687 146.471C260.568 146.539 261.531 147.801 261.737 149.636Z"
            fill="white" fill-opacity="0.07" />
        <path
            d="M296.88 113.68C296.696 115.056 295.951 115.997 294.551 116.008C292.946 116.02 292.005 115.022 292.131 113.428C292.235 112.063 293.187 111.214 294.597 111.294C295.996 111.386 296.719 112.304 296.88 113.68Z"
            fill="white" fill-opacity="0.07" />
        <path
            d="M315.104 113.669C314.874 115.607 313.796 116.479 312.065 116.307C310.493 116.146 309.656 115.091 309.759 113.52C309.874 111.696 311.021 110.859 312.764 111.019C314.347 111.168 315.058 112.258 315.104 113.669Z"
            fill="white" fill-opacity="0.07" />
        <path
            d="M332.811 113.577C332.525 115.297 331.63 116.215 330.059 116.043C328.717 115.894 327.868 114.976 327.96 113.577C328.063 111.994 329.072 111.134 330.632 111.283C332.02 111.409 332.639 112.43 332.811 113.577Z"
            fill="white" fill-opacity="0.07" />
        <path
            d="M252.035 158.513C251.863 159.889 251.129 160.841 249.73 160.864C248.124 160.899 247.172 159.912 247.275 158.318C247.367 156.953 248.296 156.093 249.718 156.162C251.129 156.219 251.851 157.137 252.035 158.513Z"
            fill="white" fill-opacity="0.07" />
        <path
            d="M252.276 176.462C252.161 178.148 251.255 179.134 249.477 179.065C247.906 179.008 247.012 178.068 247 176.508C246.989 174.73 247.998 173.778 249.764 173.835C251.347 173.881 252.15 174.845 252.276 176.462Z"
            fill="white" fill-opacity="0.07" />
        <path
            d="M130.364 225.114L129.518 224.468C140.773 209.69 146.724 192.037 146.724 173.409C146.724 144.551 132.205 118.002 107.885 102.389L108.462 101.493C133.091 117.295 147.788 144.183 147.788 173.409C147.788 192.266 141.758 210.148 130.364 225.114Z"
            fill="white" fill-opacity="0.07" />
        <path
            d="M62.3995 258.799C15.3114 258.799 -23 220.488 -23 173.399C-23 126.311 15.3114 88 62.3995 88V89.0647C15.8985 89.0647 -21.9253 126.898 -21.9253 173.39C-21.9253 219.891 15.9084 257.714 62.3995 257.714C76.4503 257.714 90.3618 254.192 102.621 247.524L103.129 248.46C90.7101 255.237 76.6195 258.799 62.3995 258.799Z"
            fill="white" fill-opacity="0.07" />
        <path
            d="M21.9891 239.136C-1.01762 224.965 -14.75 200.387 -14.75 173.399H-12.6105C-12.6105 199.64 0.743695 223.533 23.1135 237.315L21.9891 239.136Z"
            fill="white" fill-opacity="0.07" />
        <path
            d="M62.3997 250.559C53.9414 250.559 45.6323 249.195 37.6914 246.519L38.378 244.499C46.1 247.106 54.1802 248.429 62.4097 248.429C101.049 248.429 133.141 219.482 137.032 181.091L139.162 181.31C135.142 220.775 102.144 250.559 62.3997 250.559Z"
            fill="white" fill-opacity="0.07" />
        <path
            d="M136.455 161.417C133.659 144.012 124.723 128.061 111.279 116.508C97.6959 104.825 80.3314 98.3971 62.3997 98.3971C47.921 98.3971 33.8701 102.527 21.7598 110.348C7.64924 119.463 -3.11774 133.196 -8.56094 149.018L-10.581 148.321C-4.98853 132.051 6.08694 117.931 20.5955 108.557C33.0541 100.517 47.503 96.2676 62.3897 96.2676C80.8389 96.2676 98.6909 102.885 112.662 114.896C126.484 126.777 135.679 143.187 138.555 161.088L136.455 161.417Z"
            fill="white" fill-opacity="0.07" />
        <path
            d="M62.3994 229.124C31.6707 229.124 6.67383 204.127 6.67383 173.398C6.67383 160.96 10.6841 149.197 18.2568 139.386L19.9485 140.689C12.6643 150.133 8.81329 161.437 8.81329 173.398C8.81329 202.943 32.8549 226.984 62.3994 226.984C67.6436 226.984 72.8281 226.228 77.7936 224.735L78.4106 226.785C73.2361 228.348 67.8426 229.124 62.3994 229.124Z"
            fill="white" fill-opacity="0.07" />
        <path
            d="M100.035 214.497L98.5917 212.924C109.647 202.794 115.986 188.395 115.986 173.409C115.986 162.861 112.921 152.651 107.13 143.884L108.911 142.71C114.941 151.825 118.126 162.443 118.126 173.419C118.116 188.992 111.528 203.968 100.035 214.497Z"
            fill="white" fill-opacity="0.07" />
        <path
            d="M95.7346 131.446C86.1717 123.833 74.6385 119.813 62.3988 119.813C51.6617 119.813 41.3027 122.978 32.4363 128.968L31.2422 127.197C40.4568 120.967 51.2338 117.684 62.3988 117.684C75.1361 117.684 87.127 121.863 97.0681 129.784L95.7346 131.446Z"
            fill="white" fill-opacity="0.07" />
        <path
            d="M29.7705 206.05C21.0534 197.333 16.2471 185.74 16.2471 173.411C16.2471 147.966 36.9452 127.258 62.3998 127.258C87.8445 127.258 108.553 147.966 108.553 173.411H107.488C107.488 148.553 87.2673 128.333 62.4097 128.333C37.5521 128.333 17.3317 148.553 17.3317 173.411C17.3317 185.451 22.0186 196.776 30.5467 205.294L29.7705 206.05Z"
            fill="white" fill-opacity="0.07" />
        <path
            d="M62.3991 202.108C46.567 202.108 33.6904 189.231 33.6904 173.399C33.6904 157.567 46.567 144.69 62.3991 144.69V146.83C47.7512 146.83 35.8299 158.751 35.8299 173.399C35.8299 188.047 47.7512 199.968 62.3991 199.968C77.0469 199.968 88.9682 188.047 88.9682 173.399H91.1077C91.0978 189.231 78.2212 202.108 62.3991 202.108Z"
            fill="white" fill-opacity="0.07" />
        <path
            d="M62.3998 187.669C54.5286 187.669 48.1301 181.27 48.1301 173.399H49.1948C49.1948 180.673 55.1157 186.594 62.3899 186.594C69.6641 186.594 75.5849 180.673 75.5849 173.399C75.5849 166.125 69.6641 160.204 62.3899 160.204C58.3498 160.204 54.5883 162.015 52.0607 165.179L51.2249 164.513C53.9514 161.09 58.0214 159.129 62.3899 159.129C70.2611 159.129 76.6596 165.528 76.6596 173.399C76.6596 181.27 70.2611 187.669 62.3998 187.669Z"
            fill="white" fill-opacity="0.07" />
        <path
            d="M266.983 21.0449L266.205 20.4503C276.551 6.86616 282.021 -9.36168 282.021 -26.486C282.021 -53.014 268.675 -77.4198 246.318 -91.7724L246.849 -92.5957C269.489 -78.0693 283 -53.3525 283 -26.486C283 -9.15128 277.457 7.28694 266.983 21.0449Z"
            fill="white" fill-opacity="0.07" />
        <path
            d="M204.505 52.0094C161.218 52.0094 126 16.7911 126 -26.4953C126 -69.7817 161.218 -105 204.505 -105V-104.021C161.758 -104.021 126.988 -69.242 126.988 -26.5045C126.988 16.2423 161.767 51.0123 204.505 51.0123C217.421 51.0123 230.209 47.7741 241.479 41.6452L241.946 42.5051C230.53 48.7346 217.577 52.0094 204.505 52.0094Z"
            fill="white" fill-opacity="0.07" />
        <path
            d="M167.357 33.9349C146.208 20.9087 133.584 -1.68585 133.584 -26.4941H135.551C135.551 -2.37192 147.827 19.5915 168.391 32.2609L167.357 33.9349Z"
            fill="white" fill-opacity="0.07" />
        <path
            d="M204.505 44.4356C196.73 44.4356 189.092 43.1823 181.792 40.7216L182.423 38.8647C189.522 41.2613 196.95 42.478 204.515 42.478C240.035 42.478 269.536 15.8676 273.112 -19.4238L275.07 -19.2226C271.374 17.0568 241.041 44.4356 204.505 44.4356Z"
            fill="white" fill-opacity="0.07" />
        <path
            d="M204.505 24.7313C176.257 24.7313 153.278 1.75256 153.278 -26.4952C153.278 -37.9297 156.965 -48.7422 163.926 -57.7617L165.481 -56.5634C158.785 -47.8823 155.245 -37.4906 155.245 -26.4952C155.245 0.663998 177.346 22.7646 204.505 22.7646C209.326 22.7646 214.092 22.0694 218.656 20.6972L219.223 22.5816C214.467 24.0178 209.509 24.7313 204.505 24.7313Z"
            fill="white" fill-opacity="0.07" />
        <path
            d="M239.101 11.2839L237.774 9.83855C247.937 0.526291 253.764 -12.7103 253.764 -26.4866C253.764 -36.183 250.947 -45.5685 245.623 -53.6275L247.26 -54.7069C252.804 -46.3277 255.731 -36.5672 255.731 -26.4774C255.722 -12.1614 249.666 1.60572 239.101 11.2839Z"
            fill="white" fill-opacity="0.07" />
        <path
            d="M204.505 15.9307C197.607 15.9307 190.756 14.2384 184.7 11.0367L185.158 10.1677C191.076 13.2962 197.763 14.9519 204.496 14.9519C223.093 14.9519 239.522 2.44713 244.452 -15.4639L245.395 -15.1986C240.363 3.13321 223.541 15.9307 204.505 15.9307Z"
            fill="white" fill-opacity="0.07" />
        <path
            d="M174.51 3.51662C166.496 -4.49667 162.078 -15.1536 162.078 -26.4875C162.078 -49.8779 181.105 -68.9141 204.505 -68.9141C227.895 -68.9141 246.931 -49.8779 246.931 -26.4875H245.952C245.952 -49.3382 227.365 -67.9261 204.514 -67.9261C181.663 -67.9261 163.075 -49.3382 163.075 -26.4875C163.075 -15.4189 167.384 -5.00892 175.223 2.82143L174.51 3.51662Z"
            fill="white" fill-opacity="0.07" />
    </g>
    <path
        d="M266.164 161.308V159.136H267.268C267.988 159.136 268.48 159.544 268.48 160.228C268.48 160.888 267.988 161.308 267.268 161.308H266.164ZM267.46 162.94C269.188 162.94 270.376 161.824 270.376 160.216C270.376 158.632 269.188 157.492 267.46 157.492H264.256V166H266.152V162.94H267.46ZM276.957 166V164.2H273.453V162.568H276.621V160.9H273.453V159.28H276.945V157.492H271.557V166H276.957ZM282.645 166H284.733L283.005 162.556C284.049 162.184 284.685 161.308 284.685 160.156C284.685 158.644 283.605 157.492 281.925 157.492H278.553V166H280.449V162.832H281.121L282.645 166ZM280.449 161.2V159.136H281.565C282.345 159.136 282.765 159.532 282.765 160.168C282.765 160.768 282.345 161.2 281.565 161.2H280.449ZM291.944 159.58C291.764 158.584 290.96 157.312 288.836 157.312C287.204 157.312 285.788 158.44 285.788 160.048C285.788 161.308 286.664 162.268 288.104 162.544L289.268 162.76C289.832 162.868 290.18 163.18 290.18 163.612C290.18 164.14 289.724 164.5 288.98 164.5C287.816 164.5 287.288 163.816 287.216 163.036L285.476 163.456C285.596 164.656 286.604 166.18 288.956 166.18C290.984 166.18 292.1 164.824 292.1 163.492C292.1 162.28 291.26 161.236 289.64 160.936L288.5 160.72C287.912 160.612 287.66 160.312 287.66 159.904C287.66 159.436 288.116 158.992 288.824 158.992C289.856 158.992 290.18 159.664 290.24 160.06L291.944 159.58ZM294.865 161.74C294.865 159.964 296.137 159.16 297.325 159.16C298.501 159.16 299.773 159.964 299.773 161.74C299.773 163.516 298.501 164.308 297.325 164.308C296.137 164.308 294.865 163.516 294.865 161.74ZM292.897 161.752C292.897 164.44 294.925 166.18 297.325 166.18C299.713 166.18 301.741 164.44 301.741 161.752C301.741 159.052 299.713 157.312 297.325 157.312C294.925 157.312 292.897 159.052 292.897 161.752ZM310.484 166V157.492H308.588V162.664L305.396 157.492H303.092V166H304.976V160.408L308.48 166H310.484ZM318.015 166H320.079L316.911 157.492H314.715L311.511 166H313.503L314.115 164.272H317.403L318.015 166ZM315.783 159.604L316.803 162.544H314.739L315.783 159.604ZM326.695 166V164.188H323.023V157.492H321.127V166H326.695Z"
        fill="white" />
    <path
        d="M26.97 147.15C28.6 147.15 29.72 146.2 30.1 144.87L29.23 144.55C28.94 145.52 28.18 146.25 26.97 146.25C25.68 146.25 24.45 145.3 24.45 143.45C24.45 141.6 25.68 140.66 26.97 140.66C28.13 140.66 28.91 141.26 29.18 142.33L30.09 142.01C29.73 140.64 28.59 139.76 26.97 139.76C25.21 139.76 23.45 141.08 23.45 143.45C23.45 145.82 25.14 147.15 26.97 147.15ZM30.8047 145.71C30.8047 146.47 31.4347 147.15 32.4147 147.15C33.2747 147.15 33.7547 146.69 33.9647 146.35C33.9647 146.7 33.9947 146.88 34.0147 147H34.9347C34.9147 146.88 34.8747 146.63 34.8747 146.21V143.8C34.8747 142.86 34.3147 142.04 32.8747 142.04C31.8347 142.04 31.0047 142.68 30.9047 143.6L31.8047 143.81C31.8647 143.25 32.2347 142.84 32.8947 142.84C33.6247 142.84 33.9347 143.23 33.9347 143.7C33.9347 143.87 33.8547 144.02 33.5647 144.06L32.2647 144.25C31.4347 144.37 30.8047 144.85 30.8047 145.71ZM32.5447 146.36C32.0647 146.36 31.7647 146.02 31.7647 145.66C31.7647 145.23 32.0647 145 32.4647 144.94L33.9347 144.72V144.94C33.9347 145.99 33.3147 146.36 32.5447 146.36ZM39.0091 142.14C38.9591 142.13 38.8291 142.11 38.6991 142.11C38.2091 142.11 37.6091 142.29 37.2591 143.03V142.19H36.3391V147H37.2791V144.59C37.2791 143.53 37.8091 143.11 38.5991 143.11C38.7291 143.11 38.8691 143.12 39.0091 143.14V142.14ZM40.5221 144.58C40.5221 143.59 41.0821 142.89 41.9421 142.89C42.8021 142.89 43.3221 143.57 43.3221 144.56C43.3221 145.55 42.7921 146.3 41.9321 146.3C41.0321 146.3 40.5221 145.57 40.5221 144.58ZM43.3321 146.35C43.3321 146.64 43.3621 146.89 43.3821 147H44.2921C44.2821 146.92 44.2421 146.57 44.2421 146.11V139.76H43.3121V142.87C43.1521 142.48 42.6921 142.06 41.8421 142.06C40.4821 142.06 39.5621 143.22 39.5621 144.58C39.5621 146.01 40.4321 147.13 41.8421 147.13C42.5921 147.13 43.1021 146.73 43.3321 146.27V146.35ZM49.281 144.17C49.301 143.46 49.681 142.9 50.401 142.9C51.241 142.9 51.521 143.44 51.521 144.11V147H52.461V143.95C52.461 142.88 51.891 142.05 50.741 142.05C50.191 142.05 49.631 142.24 49.281 142.75V139.76H48.341V147H49.281V144.17ZM56.0163 146.31C55.2163 146.31 54.5163 145.71 54.5163 144.59C54.5163 143.48 55.2163 142.88 56.0163 142.88C56.8163 142.88 57.5163 143.48 57.5163 144.59C57.5163 145.71 56.8163 146.31 56.0163 146.31ZM56.0163 142.04C54.5763 142.04 53.5563 143.13 53.5563 144.59C53.5563 146.06 54.5763 147.15 56.0163 147.15C57.4563 147.15 58.4763 146.06 58.4763 144.59C58.4763 143.13 57.4563 142.04 56.0163 142.04ZM60.6189 147V139.76H59.6789V147H60.6189ZM62.778 144.58C62.778 143.59 63.338 142.89 64.198 142.89C65.058 142.89 65.578 143.57 65.578 144.56C65.578 145.55 65.048 146.3 64.188 146.3C63.288 146.3 62.778 145.57 62.778 144.58ZM65.588 146.35C65.588 146.64 65.618 146.89 65.638 147H66.548C66.538 146.92 66.498 146.57 66.498 146.11V139.76H65.568V142.87C65.408 142.48 64.948 142.06 64.098 142.06C62.738 142.06 61.818 143.22 61.818 144.58C61.818 146.01 62.688 147.13 64.098 147.13C64.848 147.13 65.358 146.73 65.588 146.27V146.35ZM68.7069 144.1C68.7469 143.48 69.2269 142.87 70.0169 142.87C70.8669 142.87 71.3169 143.41 71.3369 144.1H68.7069ZM71.4769 145.35C71.2969 145.89 70.9069 146.32 70.1269 146.32C69.3169 146.32 68.6969 145.72 68.6769 144.86H72.2969C72.3069 144.8 72.3169 144.68 72.3169 144.56C72.3169 143.06 71.4869 142.04 70.0069 142.04C68.7969 142.04 67.7069 143.07 67.7069 144.58C67.7069 146.21 68.8369 147.15 70.1269 147.15C71.2469 147.15 72.0169 146.48 72.2869 145.63L71.4769 145.35ZM76.1868 142.14C76.1368 142.13 76.0068 142.11 75.8768 142.11C75.3868 142.11 74.7868 142.29 74.4368 143.03V142.19H73.5168V147H74.4568V144.59C74.4568 143.53 74.9868 143.11 75.7768 143.11C75.9068 143.11 76.0468 143.12 76.1868 143.14V142.14Z"
        fill="white" fill-opacity="0.5" />
    <path
        d="M171.21 147V146.09H167.88V143.92H170.9V143H167.88V140.82H171.21V139.91H166.9V147H171.21ZM171.911 147H173.031L174.251 145.23L175.491 147H176.621C176.331 146.61 175.141 144.94 174.851 144.55L176.561 142.19H175.451L174.291 143.88L173.111 142.19H171.971L173.701 144.55L171.911 147ZM178.453 148.9V146.35C178.713 146.78 179.273 147.13 180.013 147.13C181.423 147.13 182.253 146.02 182.253 144.59C182.253 143.19 181.483 142.08 180.043 142.08C179.263 142.08 178.693 142.46 178.433 142.94V142.19H177.523V148.9H178.453ZM181.293 144.59C181.293 145.58 180.743 146.29 179.873 146.29C179.013 146.29 178.443 145.58 178.443 144.59C178.443 143.63 179.013 142.91 179.873 142.91C180.753 142.91 181.293 143.63 181.293 144.59ZM184.38 147V142.19H183.45V147H184.38ZM183.24 140.37C183.24 140.74 183.54 141.04 183.91 141.04C184.29 141.04 184.59 140.74 184.59 140.37C184.59 139.99 184.29 139.69 183.91 139.69C183.54 139.69 183.24 139.99 183.24 140.37ZM188.65 142.14C188.6 142.13 188.47 142.11 188.34 142.11C187.85 142.11 187.25 142.29 186.9 143.03V142.19H185.98V147H186.92V144.59C186.92 143.53 187.45 143.11 188.24 143.11C188.37 143.11 188.51 143.12 188.65 143.14V142.14ZM190.998 149.01L194.128 142.19H193.118L191.678 145.51L190.178 142.19H189.098L191.168 146.47L189.968 149.01H190.998Z"
        fill="white" fill-opacity="0.5" />
    <path opacity="0.28"
        d="M24.3224 24.6099L22.2101 22.4223C21.3786 23.3611 21.0635 24.3017 21.058 24.321L21 24.5L21.0574 24.679C21.0695 24.717 22.3245 28.4662 26.5003 28.4662C27.0085 28.4662 27.4713 28.4084 27.8964 28.3115L26.3941 26.7556C25.8532 26.7282 25.3415 26.4933 24.9586 26.0967C24.5757 25.7001 24.3489 25.1701 24.3224 24.6099ZM26.5003 20.5338C25.4855 20.5338 24.6539 20.7627 23.9608 21.0993L21.9339 19L21.1603 19.8012L31.0076 30L31.7812 29.1988L29.9769 27.3302C31.4201 26.2236 31.9349 24.7028 31.9426 24.679L32 24.5L31.9426 24.321C31.9305 24.283 30.6761 20.5338 26.5003 20.5338ZM27.543 24.8094C27.6453 24.4258 27.5583 23.994 27.2738 23.6988C26.9894 23.4036 26.5719 23.3141 26.2016 23.4201L25.3766 22.5656C25.7147 22.3503 26.1034 22.2354 26.5003 22.2336C27.7071 22.2336 28.6886 23.2501 28.6886 24.5C28.6869 24.911 28.5758 25.3135 28.3674 25.6632L27.543 24.8094Z"
        fill="white" />
    <path opacity="0.28"
        d="M42.97 31.15C44.6 31.15 45.72 30.2 46.1 28.87L45.23 28.55C44.94 29.52 44.18 30.25 42.97 30.25C41.68 30.25 40.45 29.3 40.45 27.45C40.45 25.6 41.68 24.66 42.97 24.66C44.13 24.66 44.91 25.26 45.18 26.33L46.09 26.01C45.73 24.64 44.59 23.76 42.97 23.76C41.21 23.76 39.45 25.08 39.45 27.45C39.45 29.82 41.14 31.15 42.97 31.15ZM50.2747 30.42C50.2747 30.62 50.2947 30.89 50.3147 31H51.2147C51.1947 30.83 51.1647 30.49 51.1647 30.11V26.19H50.2247V29.09C50.2247 29.82 49.8447 30.32 49.0847 30.32C48.2947 30.32 47.9947 29.74 47.9947 29.08V26.19H47.0547V29.22C47.0547 30.31 47.7347 31.15 48.8547 31.15C49.4147 31.15 50.0147 30.92 50.2747 30.42ZM55.4388 26.14C55.3888 26.13 55.2588 26.11 55.1288 26.11C54.6388 26.11 54.0388 26.29 53.6888 27.03V26.19H52.7688V31H53.7088V28.59C53.7088 27.53 54.2388 27.11 55.0288 27.11C55.1588 27.11 55.2988 27.12 55.4388 27.14V26.14ZM59.1106 26.14C59.0606 26.13 58.9306 26.11 58.8006 26.11C58.3106 26.11 57.7106 26.29 57.3606 27.03V26.19H56.4406V31H57.3806V28.59C57.3806 27.53 57.9106 27.11 58.7006 27.11C58.8306 27.11 58.9706 27.12 59.1106 27.14V26.14ZM60.6737 28.1C60.7137 27.48 61.1937 26.87 61.9837 26.87C62.8337 26.87 63.2837 27.41 63.3037 28.1H60.6737ZM63.4437 29.35C63.2637 29.89 62.8737 30.32 62.0937 30.32C61.2837 30.32 60.6637 29.72 60.6437 28.86H64.2637C64.2737 28.8 64.2837 28.68 64.2837 28.56C64.2837 27.06 63.4537 26.04 61.9737 26.04C60.7637 26.04 59.6737 27.07 59.6737 28.58C59.6737 30.21 60.8037 31.15 62.0937 31.15C63.2137 31.15 63.9837 30.48 64.2537 29.63L63.4437 29.35ZM66.4236 28.22C66.4236 27.49 66.8036 26.9 67.5436 26.9C68.3836 26.9 68.6636 27.44 68.6636 28.11V31H69.6036V27.95C69.6036 26.88 69.0336 26.05 67.8836 26.05C67.3236 26.05 66.7536 26.28 66.4036 26.88V26.19H65.4836V31H66.4236V28.22ZM72.3588 24.67H71.4988V25.45C71.4988 25.87 71.2788 26.19 70.7588 26.19H70.4988V27.04H71.4188V29.68C71.4188 30.55 71.9388 31.05 72.7588 31.05C73.0788 31.05 73.3188 30.99 73.3988 30.96V30.16C73.3188 30.18 73.1488 30.2 73.0288 30.2C72.5388 30.2 72.3588 29.98 72.3588 29.54V27.04H73.3988V26.19H72.3588V24.67ZM77.2535 23.91V31H79.7335C81.0335 31 81.9235 30.19 81.9235 29.07C81.9235 28.28 81.4535 27.56 80.6435 27.36C81.2635 27.13 81.7035 26.59 81.7035 25.83C81.7035 24.71 80.9135 23.91 79.5635 23.91H77.2535ZM78.2335 27.01V24.77H79.4135C80.2235 24.77 80.7135 25.21 80.7135 25.88C80.7135 26.54 80.2435 27.01 79.4535 27.01H78.2335ZM78.2335 30.14V27.85H79.6335C80.4935 27.85 80.9235 28.33 80.9235 29.01C80.9235 29.7 80.3835 30.14 79.5935 30.14H78.2335ZM82.7715 29.71C82.7715 30.47 83.4015 31.15 84.3815 31.15C85.2415 31.15 85.7215 30.69 85.9315 30.35C85.9315 30.7 85.9615 30.88 85.9815 31H86.9015C86.8815 30.88 86.8415 30.63 86.8415 30.21V27.8C86.8415 26.86 86.2815 26.04 84.8415 26.04C83.8015 26.04 82.9715 26.68 82.8715 27.6L83.7715 27.81C83.8315 27.25 84.2015 26.84 84.8615 26.84C85.5915 26.84 85.9015 27.23 85.9015 27.7C85.9015 27.87 85.8215 28.02 85.5315 28.06L84.2315 28.25C83.4015 28.37 82.7715 28.85 82.7715 29.71ZM84.5115 30.36C84.0315 30.36 83.7315 30.02 83.7315 29.66C83.7315 29.23 84.0315 29 84.4315 28.94L85.9015 28.72V28.94C85.9015 29.99 85.2815 30.36 84.5115 30.36ZM89.2459 31V23.76H88.3059V31H89.2459ZM90.5449 29.71C90.5449 30.47 91.1749 31.15 92.1549 31.15C93.0149 31.15 93.4949 30.69 93.7049 30.35C93.7049 30.7 93.7349 30.88 93.7549 31H94.6749C94.6549 30.88 94.6149 30.63 94.6149 30.21V27.8C94.6149 26.86 94.0549 26.04 92.6149 26.04C91.5749 26.04 90.7449 26.68 90.6449 27.6L91.5449 27.81C91.6049 27.25 91.9749 26.84 92.6349 26.84C93.3649 26.84 93.6749 27.23 93.6749 27.7C93.6749 27.87 93.5949 28.02 93.3049 28.06L92.0049 28.25C91.1749 28.37 90.5449 28.85 90.5449 29.71ZM92.2849 30.36C91.8049 30.36 91.5049 30.02 91.5049 29.66C91.5049 29.23 91.8049 29 92.2049 28.94L93.6749 28.72V28.94C93.6749 29.99 93.0549 30.36 92.2849 30.36ZM97.0193 28.22C97.0193 27.49 97.3993 26.9 98.1393 26.9C98.9793 26.9 99.2593 27.44 99.2593 28.11V31H100.199V27.95C100.199 26.88 99.6293 26.05 98.4793 26.05C97.9193 26.05 97.3493 26.28 96.9993 26.88V26.19H96.0793V31H97.0193V28.22ZM103.715 26.91C104.535 26.91 104.885 27.46 105.005 27.93L105.855 27.57C105.655 26.84 104.995 26.04 103.715 26.04C102.345 26.04 101.295 27.09 101.295 28.59C101.295 30.05 102.325 31.15 103.725 31.15C104.975 31.15 105.665 30.34 105.895 29.65L105.065 29.29C104.955 29.67 104.625 30.28 103.725 30.28C102.945 30.28 102.255 29.69 102.255 28.59C102.255 27.47 102.955 26.91 103.715 26.91ZM107.558 28.1C107.598 27.48 108.078 26.87 108.868 26.87C109.718 26.87 110.168 27.41 110.188 28.1H107.558ZM110.328 29.35C110.148 29.89 109.758 30.32 108.978 30.32C108.168 30.32 107.548 29.72 107.528 28.86H111.148C111.158 28.8 111.168 28.68 111.168 28.56C111.168 27.06 110.338 26.04 108.858 26.04C107.648 26.04 106.558 27.07 106.558 28.58C106.558 30.21 107.688 31.15 108.978 31.15C110.098 31.15 110.868 30.48 111.138 29.63L110.328 29.35Z"
        fill="white" />
    <path
        d="M298.999 22.3525C300.398 23.3809 301.529 24.6938 302.306 26.192C303.083 27.6901 303.485 29.3342 303.484 30.9997C303.485 32.6648 303.082 34.3082 302.305 35.8057C301.528 37.3033 300.397 38.6157 298.999 39.6438C297.601 38.6155 296.47 37.3028 295.693 35.805C294.916 34.3072 294.513 32.6634 294.514 30.9981C294.513 29.3328 294.916 27.6891 295.693 26.1913C296.47 24.6934 297.601 23.3807 298.999 22.3525ZM297.496 21.4107C296.016 22.5945 294.827 24.0653 294.013 25.7215C293.198 27.3776 292.778 29.1796 292.78 31.003C292.778 32.8255 293.198 34.6268 294.012 36.2823C294.826 37.9378 296.013 39.4083 297.493 40.592C295.705 41.5318 293.687 42.017 291.637 41.9995C289.587 41.982 287.578 41.4624 285.809 40.4922C284.041 39.522 282.574 38.1352 281.555 36.4694C280.535 34.8037 279.999 32.9171 280 30.9972C280.001 29.0773 280.537 27.191 281.558 25.5258C282.578 23.8605 284.045 22.4743 285.815 21.505C287.584 20.5357 289.593 20.0169 291.643 20.0004C293.692 19.9839 295.711 20.4701 297.498 21.4107H297.496ZM300.506 40.592C301.985 39.4083 303.173 37.9378 303.986 36.2823C304.8 34.6268 305.22 32.8255 305.218 31.003C305.22 29.1796 304.8 27.3776 303.986 25.7215C303.171 24.0653 301.983 22.5945 300.502 21.4107C302.289 20.4701 304.308 19.9839 306.357 20.0004C308.407 20.0169 310.416 20.5357 312.185 21.505C313.955 22.4743 315.422 23.8605 316.442 25.5258C317.463 27.191 317.999 29.0773 318 30.9972C318.001 32.9171 317.465 34.8037 316.445 36.4694C315.426 38.1352 313.959 39.522 312.191 40.4922C310.422 41.4624 308.413 41.982 306.363 41.9995C304.313 42.017 302.295 41.5318 300.507 40.592H300.506Z"
        fill="white" />
</svg>
